M48
; DRILL file {KiCad 8.0.1} date 2024-04-10T03:36:57-0400
; FORMAT={-:-/ absolute / metric / decimal}
; #@! TF.CreationDate,2024-04-10T03:36:57-04:00
; #@! TF.GenerationSoftware,Kicad,Pcbnew,8.0.1
; #@! TF.FileFunction,Plated,1,2,PTH
FMAT,2
METRIC
; #@! TA.AperFunction,Plated,PTH,ViaDrill
T1C0.400
; #@! TA.AperFunction,Plated,PTH,ComponentDrill
T2C0.450
; #@! TA.AperFunction,Plated,PTH,ComponentDrill
T3C1.000
%
G90
G05
T1
X50.5Y-158.1
X51.0Y-149.3
X52.7Y-159.7
X54.0Y-142.0
X54.6Y-149.2
X55.2Y-159.7
X56.4Y-129.2
X57.8Y-159.7
X58.6Y-133.2
X59.0Y-145.7
X60.2Y-139.1
X60.2Y-143.1
X60.2Y-144.4
X60.3Y-159.6
X60.8Y-148.85
X62.2Y-154.8
X63.0Y-148.0
X64.45Y-150.7
X64.75Y-146.35
X67.4Y-156.4
X67.8Y-142.2
X68.684Y-149.536
X68.9Y-146.4
X69.197Y-150.394
X70.4Y-149.4
X71.2Y-150.5
X71.95Y-134.9
X71.95Y-146.3
X72.6Y-131.8
X72.8Y-152.4
X82.0Y-135.0
X83.5Y-140.0
X85.0Y-145.0
X86.5Y-150.0
X88.5Y-155.0
X91.0Y-152.25
X96.25Y-145.0
X99.5Y-150.0
X103.915Y-152.233
X104.0Y-156.0
X105.5Y-147.25
X107.0Y-142.25
X108.5Y-137.25
X112.75Y-137.25
X117.5Y-154.0
X119.0Y-137.25
X119.0Y-142.25
X119.0Y-147.25
X119.0Y-152.25
X121.0Y-156.0
X128.0Y-135.0
X128.0Y-146.25
X129.8Y-148.2
X135.0Y-137.0
X135.0Y-142.0
X142.3Y-154.2
X143.5Y-137.5
X143.5Y-142.5
X143.5Y-147.5
X143.5Y-152.5
X145.5Y-156.0
T3
X50.13Y-128.0
X50.13Y-162.5
X52.67Y-128.0
X52.67Y-162.5
X54.737Y-153.924
X54.737Y-156.464
X55.21Y-128.0
X55.21Y-162.5
X57.277Y-153.924
X57.277Y-156.464
X57.75Y-128.0
X57.75Y-162.5
X59.817Y-153.924
X59.817Y-156.464
X60.29Y-128.0
X60.29Y-162.5
X62.83Y-128.0
X62.83Y-162.5
X65.37Y-128.0
X65.37Y-162.5
X67.91Y-128.0
X67.91Y-162.5
X70.45Y-128.0
X70.45Y-162.5
X72.99Y-128.0
X72.99Y-162.5
T2
X49.059Y-137.032G85X49.859Y-137.032
G05
X49.859Y-144.182G85X49.059Y-144.182
G05
M30
