G04 #@! TF.GenerationSoftware,KiCad,Pcbnew,8.0.1*
G04 #@! TF.CreationDate,2024-04-10T03:36:54-04:00*
G04 #@! TF.ProjectId,ieee_pcb_workshop,69656565-5f70-4636-925f-776f726b7368,rev?*
G04 #@! TF.SameCoordinates,Original*
G04 #@! TF.FileFunction,Copper,L2,Bot*
G04 #@! TF.FilePolarity,Positive*
%FSLAX46Y46*%
G04 Gerber Fmt 4.6, Leading zero omitted, Abs format (unit mm)*
G04 Created by KiCad (PCBNEW 8.0.1) date 2024-04-10 03:36:54*
%MOMM*%
%LPD*%
G01*
G04 APERTURE LIST*
G04 #@! TA.AperFunction,ComponentPad*
%ADD10R,1.700000X1.700000*%
G04 #@! TD*
G04 #@! TA.AperFunction,ComponentPad*
%ADD11O,1.700000X1.700000*%
G04 #@! TD*
G04 #@! TA.AperFunction,ComponentPad*
%ADD12O,1.900000X1.050000*%
G04 #@! TD*
G04 #@! TA.AperFunction,ViaPad*
%ADD13C,0.800000*%
G04 #@! TD*
G04 #@! TA.AperFunction,Conductor*
%ADD14C,0.500000*%
G04 #@! TD*
G04 #@! TA.AperFunction,Conductor*
%ADD15C,0.400000*%
G04 #@! TD*
G04 #@! TA.AperFunction,Conductor*
%ADD16C,0.250000*%
G04 #@! TD*
G04 APERTURE END LIST*
D10*
X59817000Y-153924000D03*
D11*
X59817000Y-156464000D03*
X57277000Y-153924000D03*
X57277000Y-156464000D03*
X54737000Y-153924000D03*
X54737000Y-156464000D03*
D10*
X50130000Y-128000000D03*
D11*
X52670000Y-128000000D03*
X55210000Y-128000000D03*
X57750000Y-128000000D03*
X60290000Y-128000000D03*
X62830000Y-128000000D03*
X65370000Y-128000000D03*
X67910000Y-128000000D03*
X70450000Y-128000000D03*
X72990000Y-128000000D03*
D10*
X50130000Y-162500000D03*
D11*
X52670000Y-162500000D03*
X55210000Y-162500000D03*
X57750000Y-162500000D03*
X60290000Y-162500000D03*
X62830000Y-162500000D03*
X65370000Y-162500000D03*
X67910000Y-162500000D03*
X70450000Y-162500000D03*
X72990000Y-162500000D03*
D12*
X49459000Y-137032000D03*
X49459000Y-144182000D03*
D13*
X145500000Y-156000000D03*
X88500000Y-155000000D03*
X135000000Y-142000000D03*
X128000000Y-135000000D03*
X143500000Y-152500000D03*
X143500000Y-137500000D03*
X60200000Y-143100000D03*
X96250000Y-145000000D03*
X91000000Y-152250000D03*
X108500000Y-137250000D03*
X104000000Y-156000000D03*
X105500000Y-147250000D03*
X135000000Y-137000000D03*
X128000000Y-146250000D03*
X143500000Y-147500000D03*
X119000000Y-147250000D03*
X119000000Y-137250000D03*
X82000000Y-135000000D03*
X107000000Y-142250000D03*
X119000000Y-152250000D03*
X83500000Y-140000000D03*
X86500000Y-150000000D03*
X71950000Y-134900000D03*
X103914569Y-152232914D03*
X99500000Y-150000000D03*
X143500000Y-142500000D03*
X119000000Y-142250000D03*
X121000000Y-156000000D03*
X60200000Y-139100000D03*
X85000000Y-145000000D03*
X58600000Y-133200000D03*
X60800000Y-148850000D03*
X67400000Y-156400000D03*
X59000000Y-145700000D03*
X54000000Y-142000000D03*
X67800000Y-142200000D03*
X72800000Y-152400000D03*
X56400000Y-129200000D03*
X72600000Y-131800000D03*
X50500000Y-158100000D03*
X68900000Y-146400000D03*
X54600000Y-149200000D03*
X71950000Y-146300000D03*
X60200000Y-144400000D03*
X51000000Y-149300000D03*
X64750000Y-146350000D03*
X64450000Y-150700000D03*
X117500000Y-154000000D03*
X112750000Y-137250000D03*
X52700000Y-159700000D03*
X68684500Y-149535871D03*
X69196991Y-150393982D03*
X55200000Y-159700000D03*
X60300000Y-159600000D03*
X70400000Y-149400000D03*
X71200000Y-150500000D03*
X57800000Y-159700000D03*
X63000000Y-148000000D03*
X62200000Y-154800000D03*
X129800000Y-148200000D03*
X142300000Y-154200000D03*
D14*
X60200000Y-139100000D02*
X60200000Y-143100000D01*
X67850000Y-139000000D02*
X60200000Y-139000000D01*
X71950000Y-134900000D02*
X81900000Y-134900000D01*
X71950000Y-134900000D02*
X67850000Y-139000000D01*
D15*
X81900000Y-134900000D02*
X82000000Y-135000000D01*
D16*
X62375000Y-145625000D02*
X71275000Y-145625000D01*
X71275000Y-145625000D02*
X71950000Y-146300000D01*
X54600000Y-149200000D02*
X58800000Y-149200000D01*
X58800000Y-149200000D02*
X62375000Y-145625000D01*
X55900000Y-144400000D02*
X51000000Y-149300000D01*
X60200000Y-144400000D02*
X55900000Y-144400000D01*
X64450000Y-150650000D02*
X64450000Y-150700000D01*
X54737000Y-153924000D02*
X55912000Y-152749000D01*
X55912000Y-152749000D02*
X58351000Y-152749000D01*
X61800000Y-146836396D02*
X61800000Y-148000000D01*
X61800000Y-148000000D02*
X62450000Y-148650000D01*
X58351000Y-152749000D02*
X62450000Y-148650000D01*
X62450000Y-148650000D02*
X64450000Y-150650000D01*
X64475000Y-146075000D02*
X62561396Y-146075000D01*
X64750000Y-146350000D02*
X64475000Y-146075000D01*
X62561396Y-146075000D02*
X61800000Y-146836396D01*
X117500000Y-154000000D02*
X112750000Y-149250000D01*
X112750000Y-149250000D02*
X112750000Y-137250000D01*
X52700000Y-159700000D02*
X54761000Y-157639000D01*
X60581371Y-157639000D02*
X68684500Y-149535871D01*
X54761000Y-157639000D02*
X60581371Y-157639000D01*
X55200000Y-159700000D02*
X56811000Y-158089000D01*
X61501973Y-158089000D02*
X69196991Y-150393982D01*
X56811000Y-158089000D02*
X61501973Y-158089000D01*
X60300000Y-159600000D02*
X61016278Y-159600000D01*
X70400000Y-150216278D02*
X70400000Y-149400000D01*
X61016278Y-159600000D02*
X70400000Y-150216278D01*
X61375000Y-160325000D02*
X71200000Y-150500000D01*
X58425000Y-160325000D02*
X61375000Y-160325000D01*
X57800000Y-159700000D02*
X58425000Y-160325000D01*
X66600000Y-149400000D02*
X66600000Y-150600000D01*
X66600000Y-150600000D02*
X62400000Y-154800000D01*
X62200000Y-154800000D02*
X62400000Y-154800000D01*
X63000000Y-148000000D02*
X65200000Y-148000000D01*
X65200000Y-148000000D02*
X66600000Y-149400000D01*
X135800000Y-154200000D02*
X142300000Y-154200000D01*
X129800000Y-148200000D02*
X135800000Y-154200000D01*
G04 #@! TA.AperFunction,Conductor*
G36*
X149787194Y-125510806D02*
G01*
X149805500Y-125555000D01*
X149805500Y-165029000D01*
X149787194Y-165073194D01*
X149743000Y-165091500D01*
X80312500Y-165091500D01*
X80268306Y-165073194D01*
X80250000Y-165029000D01*
X80250000Y-137250003D01*
X112090693Y-137250003D01*
X112109849Y-137407774D01*
X112109851Y-137407785D01*
X112166212Y-137556394D01*
X112256499Y-137687198D01*
X112256502Y-137687201D01*
X112349445Y-137769542D01*
X112370386Y-137812549D01*
X112370500Y-137816323D01*
X112370500Y-149196196D01*
X112370499Y-149196214D01*
X112370499Y-149299966D01*
X112390896Y-149376084D01*
X112390896Y-149376085D01*
X112396360Y-149396479D01*
X112396364Y-149396488D01*
X112446321Y-149483015D01*
X112446328Y-149483024D01*
X112520536Y-149557232D01*
X112520550Y-149557244D01*
X116832450Y-153869144D01*
X116850756Y-153913338D01*
X116850300Y-153920871D01*
X116840693Y-153999997D01*
X116840693Y-154000003D01*
X116859849Y-154157774D01*
X116859851Y-154157785D01*
X116916212Y-154306394D01*
X117006499Y-154437198D01*
X117006503Y-154437202D01*
X117125468Y-154542597D01*
X117125470Y-154542599D01*
X117266205Y-154616462D01*
X117266207Y-154616463D01*
X117420529Y-154654500D01*
X117579471Y-154654500D01*
X117733793Y-154616463D01*
X117874529Y-154542599D01*
X117993498Y-154437201D01*
X118083787Y-154306395D01*
X118140149Y-154157782D01*
X118154181Y-154042218D01*
X118159307Y-154000003D01*
X118159307Y-153999996D01*
X118140150Y-153842225D01*
X118140148Y-153842214D01*
X118083787Y-153693605D01*
X117993500Y-153562801D01*
X117993496Y-153562797D01*
X117874531Y-153457402D01*
X117874529Y-153457400D01*
X117733794Y-153383537D01*
X117579474Y-153345500D01*
X117579471Y-153345500D01*
X117420529Y-153345500D01*
X117420528Y-153345500D01*
X117416773Y-153345956D01*
X117416480Y-153343541D01*
X117376572Y-153337364D01*
X117364848Y-153328154D01*
X113147806Y-149111112D01*
X113129500Y-149066918D01*
X113129500Y-148200003D01*
X129140693Y-148200003D01*
X129159849Y-148357774D01*
X129159851Y-148357785D01*
X129216212Y-148506394D01*
X129306499Y-148637198D01*
X129306503Y-148637202D01*
X129425468Y-148742597D01*
X129425470Y-148742599D01*
X129566205Y-148816462D01*
X129566207Y-148816463D01*
X129720529Y-148854500D01*
X129879468Y-148854500D01*
X129879471Y-148854500D01*
X129879473Y-148854499D01*
X129883222Y-148854044D01*
X129883522Y-148856515D01*
X129923240Y-148862522D01*
X129935151Y-148871845D01*
X135494136Y-154430830D01*
X135494141Y-154430836D01*
X135496324Y-154433019D01*
X135566981Y-154503676D01*
X135566983Y-154503677D01*
X135566984Y-154503678D01*
X135634396Y-154542599D01*
X135634397Y-154542599D01*
X135653514Y-154553636D01*
X135653516Y-154553636D01*
X135653518Y-154553638D01*
X135653519Y-154553638D01*
X135653521Y-154553639D01*
X135712581Y-154569463D01*
X135750038Y-154579500D01*
X135849962Y-154579500D01*
X141733871Y-154579500D01*
X141778065Y-154597806D01*
X141785307Y-154606495D01*
X141806502Y-154637201D01*
X141806503Y-154637202D01*
X141925468Y-154742597D01*
X141925470Y-154742599D01*
X142066205Y-154816462D01*
X142066207Y-154816463D01*
X142220529Y-154854500D01*
X142379471Y-154854500D01*
X142533793Y-154816463D01*
X142674529Y-154742599D01*
X142793498Y-154637201D01*
X142883787Y-154506395D01*
X142940149Y-154357782D01*
X142940150Y-154357774D01*
X142959307Y-154200003D01*
X142959307Y-154199996D01*
X142940150Y-154042225D01*
X142940148Y-154042214D01*
X142883787Y-153893605D01*
X142793500Y-153762801D01*
X142793496Y-153762797D01*
X142674531Y-153657402D01*
X142674529Y-153657400D01*
X142533794Y-153583537D01*
X142379474Y-153545500D01*
X142379471Y-153545500D01*
X142220529Y-153545500D01*
X142220525Y-153545500D01*
X142066205Y-153583537D01*
X141925470Y-153657400D01*
X141925468Y-153657402D01*
X141806503Y-153762797D01*
X141806502Y-153762798D01*
X141785307Y-153793505D01*
X141745136Y-153819476D01*
X141733871Y-153820500D01*
X135983082Y-153820500D01*
X135938888Y-153802194D01*
X130467549Y-148330855D01*
X130449243Y-148286661D01*
X130449699Y-148279127D01*
X130459307Y-148200002D01*
X130459307Y-148199997D01*
X130440150Y-148042225D01*
X130440148Y-148042214D01*
X130383787Y-147893605D01*
X130293500Y-147762801D01*
X130293496Y-147762797D01*
X130174531Y-147657402D01*
X130174529Y-147657400D01*
X130033794Y-147583537D01*
X129879474Y-147545500D01*
X129879471Y-147545500D01*
X129720529Y-147545500D01*
X129720525Y-147545500D01*
X129566205Y-147583537D01*
X129425470Y-147657400D01*
X129425468Y-147657402D01*
X129306503Y-147762797D01*
X129306499Y-147762801D01*
X129216212Y-147893605D01*
X129159851Y-148042214D01*
X129159849Y-148042225D01*
X129140693Y-148199996D01*
X129140693Y-148200003D01*
X113129500Y-148200003D01*
X113129500Y-137816323D01*
X113147806Y-137772129D01*
X113150540Y-137769554D01*
X113243498Y-137687201D01*
X113333787Y-137556395D01*
X113390149Y-137407782D01*
X113409307Y-137250000D01*
X113390149Y-137092218D01*
X113390148Y-137092216D01*
X113390148Y-137092214D01*
X113333787Y-136943605D01*
X113243500Y-136812801D01*
X113243496Y-136812797D01*
X113124531Y-136707402D01*
X113124529Y-136707400D01*
X112983794Y-136633537D01*
X112829474Y-136595500D01*
X112829471Y-136595500D01*
X112670529Y-136595500D01*
X112670525Y-136595500D01*
X112516205Y-136633537D01*
X112375470Y-136707400D01*
X112375468Y-136707402D01*
X112256503Y-136812797D01*
X112256499Y-136812801D01*
X112166212Y-136943605D01*
X112109851Y-137092214D01*
X112109849Y-137092225D01*
X112090693Y-137249996D01*
X112090693Y-137250003D01*
X80250000Y-137250003D01*
X80250000Y-125555000D01*
X80268306Y-125510806D01*
X80312500Y-125492500D01*
X149743000Y-125492500D01*
X149787194Y-125510806D01*
G37*
G04 #@! TD.AperFunction*
G04 #@! TA.AperFunction,Conductor*
G36*
X74981694Y-125510806D02*
G01*
X75000000Y-125555000D01*
X75000000Y-134333000D01*
X74981694Y-134377194D01*
X74937500Y-134395500D01*
X72391237Y-134395500D01*
X72349792Y-134379782D01*
X72324528Y-134357400D01*
X72183794Y-134283537D01*
X72029474Y-134245500D01*
X72029471Y-134245500D01*
X71870529Y-134245500D01*
X71870525Y-134245500D01*
X71716205Y-134283537D01*
X71575470Y-134357400D01*
X71575468Y-134357402D01*
X71456503Y-134462797D01*
X71456499Y-134462801D01*
X71366212Y-134593605D01*
X71309851Y-134742214D01*
X71309849Y-134742224D01*
X71300777Y-134816940D01*
X71282927Y-134853600D01*
X67659335Y-138477194D01*
X67615141Y-138495500D01*
X60471991Y-138495500D01*
X60442946Y-138488341D01*
X60433793Y-138483537D01*
X60279474Y-138445500D01*
X60279471Y-138445500D01*
X60120529Y-138445500D01*
X60120525Y-138445500D01*
X59966205Y-138483537D01*
X59825470Y-138557400D01*
X59825468Y-138557402D01*
X59706503Y-138662797D01*
X59706499Y-138662801D01*
X59616212Y-138793605D01*
X59559851Y-138942214D01*
X59559849Y-138942225D01*
X59540693Y-139099996D01*
X59540693Y-139100003D01*
X59559849Y-139257774D01*
X59559851Y-139257785D01*
X59616211Y-139406392D01*
X59616212Y-139406394D01*
X59616213Y-139406395D01*
X59684436Y-139505233D01*
X59695500Y-139540736D01*
X59695500Y-142659262D01*
X59684436Y-142694766D01*
X59616212Y-142793605D01*
X59559851Y-142942214D01*
X59559849Y-142942225D01*
X59540693Y-143099996D01*
X59540693Y-143100003D01*
X59559849Y-143257774D01*
X59559851Y-143257785D01*
X59616212Y-143406394D01*
X59706499Y-143537198D01*
X59706503Y-143537202D01*
X59825468Y-143642597D01*
X59825470Y-143642599D01*
X59924662Y-143694659D01*
X59955287Y-143731406D01*
X59950958Y-143779045D01*
X59924662Y-143805341D01*
X59825470Y-143857400D01*
X59825468Y-143857402D01*
X59706503Y-143962797D01*
X59706502Y-143962798D01*
X59685307Y-143993505D01*
X59645136Y-144019476D01*
X59633871Y-144020500D01*
X55850038Y-144020500D01*
X55850037Y-144020500D01*
X55850031Y-144020501D01*
X55753521Y-144046360D01*
X55753518Y-144046361D01*
X55666979Y-144096325D01*
X55666976Y-144096328D01*
X55596324Y-144166981D01*
X55596322Y-144166983D01*
X51135150Y-148628154D01*
X51090956Y-148646460D01*
X51083278Y-148645528D01*
X51083227Y-148645956D01*
X51079471Y-148645500D01*
X50920529Y-148645500D01*
X50920525Y-148645500D01*
X50766205Y-148683537D01*
X50625470Y-148757400D01*
X50625468Y-148757402D01*
X50506503Y-148862797D01*
X50506499Y-148862801D01*
X50416212Y-148993605D01*
X50359851Y-149142214D01*
X50359849Y-149142225D01*
X50340693Y-149299996D01*
X50340693Y-149300003D01*
X50359849Y-149457774D01*
X50359851Y-149457785D01*
X50416212Y-149606394D01*
X50506499Y-149737198D01*
X50506503Y-149737202D01*
X50625468Y-149842597D01*
X50625470Y-149842599D01*
X50766205Y-149916462D01*
X50766207Y-149916463D01*
X50920529Y-149954500D01*
X51079471Y-149954500D01*
X51233793Y-149916463D01*
X51374529Y-149842599D01*
X51493498Y-149737201D01*
X51583787Y-149606395D01*
X51640149Y-149457782D01*
X51647165Y-149400000D01*
X51659307Y-149300003D01*
X51659307Y-149299997D01*
X51649699Y-149220871D01*
X51662544Y-149174792D01*
X51667541Y-149169151D01*
X56038888Y-144797806D01*
X56083082Y-144779500D01*
X59633871Y-144779500D01*
X59678065Y-144797806D01*
X59685307Y-144806495D01*
X59706502Y-144837201D01*
X59706503Y-144837202D01*
X59825468Y-144942597D01*
X59825470Y-144942599D01*
X59966205Y-145016462D01*
X59966207Y-145016463D01*
X60120529Y-145054500D01*
X60279471Y-145054500D01*
X60433793Y-145016463D01*
X60574529Y-144942599D01*
X60693498Y-144837201D01*
X60783787Y-144706395D01*
X60840149Y-144557782D01*
X60845773Y-144511461D01*
X60859307Y-144400003D01*
X60859307Y-144399996D01*
X60840150Y-144242225D01*
X60840148Y-144242214D01*
X60783787Y-144093605D01*
X60693500Y-143962801D01*
X60693496Y-143962797D01*
X60574531Y-143857402D01*
X60574529Y-143857401D01*
X60475337Y-143805341D01*
X60444712Y-143768594D01*
X60449041Y-143720955D01*
X60475337Y-143694659D01*
X60493554Y-143685098D01*
X60574529Y-143642599D01*
X60693498Y-143537201D01*
X60783787Y-143406395D01*
X60840149Y-143257782D01*
X60859307Y-143100000D01*
X60840149Y-142942218D01*
X60840148Y-142942216D01*
X60840148Y-142942214D01*
X60783787Y-142793605D01*
X60715564Y-142694766D01*
X60704500Y-142659262D01*
X60704500Y-139567000D01*
X60722806Y-139522806D01*
X60767000Y-139504500D01*
X67916418Y-139504500D01*
X67916419Y-139504500D01*
X68044730Y-139470119D01*
X68044732Y-139470117D01*
X68044734Y-139470117D01*
X68057242Y-139462894D01*
X68086837Y-139445808D01*
X68159770Y-139403701D01*
X71990887Y-135572583D01*
X72025840Y-135555565D01*
X72025801Y-135555405D01*
X72026549Y-135555220D01*
X72027551Y-135554733D01*
X72029466Y-135554500D01*
X72029471Y-135554500D01*
X72183793Y-135516463D01*
X72324529Y-135442599D01*
X72349792Y-135420218D01*
X72391237Y-135404500D01*
X74937500Y-135404500D01*
X74981694Y-135422806D01*
X75000000Y-135467000D01*
X75000000Y-165029000D01*
X74981694Y-165073194D01*
X74937500Y-165091500D01*
X48269000Y-165091500D01*
X48224806Y-165073194D01*
X48206500Y-165029000D01*
X48206500Y-162250000D01*
X49026000Y-162250000D01*
X49696988Y-162250000D01*
X49664075Y-162307007D01*
X49630000Y-162434174D01*
X49630000Y-162565826D01*
X49664075Y-162692993D01*
X49696988Y-162750000D01*
X49026001Y-162750000D01*
X49026001Y-163375018D01*
X49040736Y-163449104D01*
X49040738Y-163449108D01*
X49096876Y-163533123D01*
X49180891Y-163589261D01*
X49180895Y-163589263D01*
X49254982Y-163603999D01*
X49880000Y-163603999D01*
X49880000Y-162933012D01*
X49937007Y-162965925D01*
X50064174Y-163000000D01*
X50195826Y-163000000D01*
X50322993Y-162965925D01*
X50380000Y-162933012D01*
X50380000Y-163603999D01*
X51005015Y-163603999D01*
X51005018Y-163603998D01*
X51079104Y-163589263D01*
X51079108Y-163589261D01*
X51163123Y-163533123D01*
X51219261Y-163449108D01*
X51219263Y-163449104D01*
X51233999Y-163375017D01*
X51234000Y-163375017D01*
X51234000Y-162750000D01*
X50563012Y-162750000D01*
X50595925Y-162692993D01*
X50630000Y-162565826D01*
X50630000Y-162500004D01*
X51560768Y-162500004D01*
X51579653Y-162703813D01*
X51579655Y-162703825D01*
X51635501Y-162900099D01*
X51635672Y-162900701D01*
X51726912Y-163083935D01*
X51726913Y-163083936D01*
X51726915Y-163083940D01*
X51850259Y-163247275D01*
X51850264Y-163247280D01*
X51850268Y-163247285D01*
X51952870Y-163340819D01*
X52001533Y-163385182D01*
X52001534Y-163385183D01*
X52001538Y-163385186D01*
X52175573Y-163492944D01*
X52366444Y-163566888D01*
X52567653Y-163604500D01*
X52567656Y-163604500D01*
X52772344Y-163604500D01*
X52772347Y-163604500D01*
X52973556Y-163566888D01*
X53164427Y-163492944D01*
X53338462Y-163385186D01*
X53489732Y-163247285D01*
X53613088Y-163083935D01*
X53704328Y-162900701D01*
X53760345Y-162703821D01*
X53760346Y-162703813D01*
X53779232Y-162500004D01*
X54100768Y-162500004D01*
X54119653Y-162703813D01*
X54119655Y-162703825D01*
X54175501Y-162900099D01*
X54175672Y-162900701D01*
X54266912Y-163083935D01*
X54266913Y-163083936D01*
X54266915Y-163083940D01*
X54390259Y-163247275D01*
X54390264Y-163247280D01*
X54390268Y-163247285D01*
X54492870Y-163340819D01*
X54541533Y-163385182D01*
X54541534Y-163385183D01*
X54541538Y-163385186D01*
X54715573Y-163492944D01*
X54906444Y-163566888D01*
X55107653Y-163604500D01*
X55107656Y-163604500D01*
X55312344Y-163604500D01*
X55312347Y-163604500D01*
X55513556Y-163566888D01*
X55704427Y-163492944D01*
X55878462Y-163385186D01*
X56029732Y-163247285D01*
X56153088Y-163083935D01*
X56244328Y-162900701D01*
X56300345Y-162703821D01*
X56300346Y-162703813D01*
X56319232Y-162500004D01*
X56640768Y-162500004D01*
X56659653Y-162703813D01*
X56659655Y-162703825D01*
X56715501Y-162900099D01*
X56715672Y-162900701D01*
X56806912Y-163083935D01*
X56806913Y-163083936D01*
X56806915Y-163083940D01*
X56930259Y-163247275D01*
X56930264Y-163247280D01*
X56930268Y-163247285D01*
X57032870Y-163340819D01*
X57081533Y-163385182D01*
X57081534Y-163385183D01*
X57081538Y-163385186D01*
X57255573Y-163492944D01*
X57446444Y-163566888D01*
X57647653Y-163604500D01*
X57647656Y-163604500D01*
X57852344Y-163604500D01*
X57852347Y-163604500D01*
X58053556Y-163566888D01*
X58244427Y-163492944D01*
X58418462Y-163385186D01*
X58569732Y-163247285D01*
X58693088Y-163083935D01*
X58784328Y-162900701D01*
X58840345Y-162703821D01*
X58840346Y-162703813D01*
X58859232Y-162500004D01*
X59180768Y-162500004D01*
X59199653Y-162703813D01*
X59199655Y-162703825D01*
X59255501Y-162900099D01*
X59255672Y-162900701D01*
X59346912Y-163083935D01*
X59346913Y-163083936D01*
X59346915Y-163083940D01*
X59470259Y-163247275D01*
X59470264Y-163247280D01*
X59470268Y-163247285D01*
X59572870Y-163340819D01*
X59621533Y-163385182D01*
X59621534Y-163385183D01*
X59621538Y-163385186D01*
X59795573Y-163492944D01*
X59986444Y-163566888D01*
X60187653Y-163604500D01*
X60187656Y-163604500D01*
X60392344Y-163604500D01*
X60392347Y-163604500D01*
X60593556Y-163566888D01*
X60784427Y-163492944D01*
X60958462Y-163385186D01*
X61109732Y-163247285D01*
X61233088Y-163083935D01*
X61324328Y-162900701D01*
X61380345Y-162703821D01*
X61380346Y-162703813D01*
X61399232Y-162500004D01*
X61720768Y-162500004D01*
X61739653Y-162703813D01*
X61739655Y-162703825D01*
X61795501Y-162900099D01*
X61795672Y-162900701D01*
X61886912Y-163083935D01*
X61886913Y-163083936D01*
X61886915Y-163083940D01*
X62010259Y-163247275D01*
X62010264Y-163247280D01*
X62010268Y-163247285D01*
X62112870Y-163340819D01*
X62161533Y-163385182D01*
X62161534Y-163385183D01*
X62161538Y-163385186D01*
X62335573Y-163492944D01*
X62526444Y-163566888D01*
X62727653Y-163604500D01*
X62727656Y-163604500D01*
X62932344Y-163604500D01*
X62932347Y-163604500D01*
X63133556Y-163566888D01*
X63324427Y-163492944D01*
X63498462Y-163385186D01*
X63649732Y-163247285D01*
X63773088Y-163083935D01*
X63864328Y-162900701D01*
X63920345Y-162703821D01*
X63920346Y-162703813D01*
X63939232Y-162500004D01*
X64260768Y-162500004D01*
X64279653Y-162703813D01*
X64279655Y-162703825D01*
X64335501Y-162900099D01*
X64335672Y-162900701D01*
X64426912Y-163083935D01*
X64426913Y-163083936D01*
X64426915Y-163083940D01*
X64550259Y-163247275D01*
X64550264Y-163247280D01*
X64550268Y-163247285D01*
X64652870Y-163340819D01*
X64701533Y-163385182D01*
X64701534Y-163385183D01*
X64701538Y-163385186D01*
X64875573Y-163492944D01*
X65066444Y-163566888D01*
X65267653Y-163604500D01*
X65267656Y-163604500D01*
X65472344Y-163604500D01*
X65472347Y-163604500D01*
X65673556Y-163566888D01*
X65864427Y-163492944D01*
X66038462Y-163385186D01*
X66189732Y-163247285D01*
X66313088Y-163083935D01*
X66404328Y-162900701D01*
X66460345Y-162703821D01*
X66460346Y-162703813D01*
X66479232Y-162500004D01*
X66800768Y-162500004D01*
X66819653Y-162703813D01*
X66819655Y-162703825D01*
X66875501Y-162900099D01*
X66875672Y-162900701D01*
X66966912Y-163083935D01*
X66966913Y-163083936D01*
X66966915Y-163083940D01*
X67090259Y-163247275D01*
X67090264Y-163247280D01*
X67090268Y-163247285D01*
X67192870Y-163340819D01*
X67241533Y-163385182D01*
X67241534Y-163385183D01*
X67241538Y-163385186D01*
X67415573Y-163492944D01*
X67606444Y-163566888D01*
X67807653Y-163604500D01*
X67807656Y-163604500D01*
X68012344Y-163604500D01*
X68012347Y-163604500D01*
X68213556Y-163566888D01*
X68404427Y-163492944D01*
X68578462Y-163385186D01*
X68729732Y-163247285D01*
X68853088Y-163083935D01*
X68944328Y-162900701D01*
X69000345Y-162703821D01*
X69000346Y-162703813D01*
X69019232Y-162500004D01*
X69340768Y-162500004D01*
X69359653Y-162703813D01*
X69359655Y-162703825D01*
X69415501Y-162900099D01*
X69415672Y-162900701D01*
X69506912Y-163083935D01*
X69506913Y-163083936D01*
X69506915Y-163083940D01*
X69630259Y-163247275D01*
X69630264Y-163247280D01*
X69630268Y-163247285D01*
X69732870Y-163340819D01*
X69781533Y-163385182D01*
X69781534Y-163385183D01*
X69781538Y-163385186D01*
X69955573Y-163492944D01*
X70146444Y-163566888D01*
X70347653Y-163604500D01*
X70347656Y-163604500D01*
X70552344Y-163604500D01*
X70552347Y-163604500D01*
X70753556Y-163566888D01*
X70944427Y-163492944D01*
X71118462Y-163385186D01*
X71269732Y-163247285D01*
X71393088Y-163083935D01*
X71484328Y-162900701D01*
X71540345Y-162703821D01*
X71540346Y-162703813D01*
X71559232Y-162500004D01*
X71880768Y-162500004D01*
X71899653Y-162703813D01*
X71899655Y-162703825D01*
X71955501Y-162900099D01*
X71955672Y-162900701D01*
X72046912Y-163083935D01*
X72046913Y-163083936D01*
X72046915Y-163083940D01*
X72170259Y-163247275D01*
X72170264Y-163247280D01*
X72170268Y-163247285D01*
X72272870Y-163340819D01*
X72321533Y-163385182D01*
X72321534Y-163385183D01*
X72321538Y-163385186D01*
X72495573Y-163492944D01*
X72686444Y-163566888D01*
X72887653Y-163604500D01*
X72887656Y-163604500D01*
X73092344Y-163604500D01*
X73092347Y-163604500D01*
X73293556Y-163566888D01*
X73484427Y-163492944D01*
X73658462Y-163385186D01*
X73809732Y-163247285D01*
X73933088Y-163083935D01*
X74024328Y-162900701D01*
X74080345Y-162703821D01*
X74080346Y-162703813D01*
X74099232Y-162500004D01*
X74099232Y-162499995D01*
X74080346Y-162296186D01*
X74080344Y-162296174D01*
X74024499Y-162099901D01*
X74024328Y-162099299D01*
X73933088Y-161916065D01*
X73933085Y-161916061D01*
X73933084Y-161916059D01*
X73809740Y-161752724D01*
X73809735Y-161752719D01*
X73809732Y-161752715D01*
X73714834Y-161666204D01*
X73658466Y-161614817D01*
X73658463Y-161614815D01*
X73658462Y-161614814D01*
X73484427Y-161507056D01*
X73484425Y-161507055D01*
X73428948Y-161485563D01*
X73293556Y-161433112D01*
X73293553Y-161433111D01*
X73293552Y-161433111D01*
X73092351Y-161395500D01*
X73092347Y-161395500D01*
X72887653Y-161395500D01*
X72887648Y-161395500D01*
X72686447Y-161433111D01*
X72495574Y-161507055D01*
X72321533Y-161614817D01*
X72170266Y-161752717D01*
X72170259Y-161752724D01*
X72046915Y-161916059D01*
X72046912Y-161916065D01*
X71955672Y-162099298D01*
X71899655Y-162296174D01*
X71899653Y-162296186D01*
X71880768Y-162499995D01*
X71880768Y-162500004D01*
X71559232Y-162500004D01*
X71559232Y-162499995D01*
X71540346Y-162296186D01*
X71540344Y-162296174D01*
X71484499Y-162099901D01*
X71484328Y-162099299D01*
X71393088Y-161916065D01*
X71393085Y-161916061D01*
X71393084Y-161916059D01*
X71269740Y-161752724D01*
X71269735Y-161752719D01*
X71269732Y-161752715D01*
X71174834Y-161666204D01*
X71118466Y-161614817D01*
X71118463Y-161614815D01*
X71118462Y-161614814D01*
X70944427Y-161507056D01*
X70944425Y-161507055D01*
X70888948Y-161485563D01*
X70753556Y-161433112D01*
X70753553Y-161433111D01*
X70753552Y-161433111D01*
X70552351Y-161395500D01*
X70552347Y-161395500D01*
X70347653Y-161395500D01*
X70347648Y-161395500D01*
X70146447Y-161433111D01*
X69955574Y-161507055D01*
X69781533Y-161614817D01*
X69630266Y-161752717D01*
X69630259Y-161752724D01*
X69506915Y-161916059D01*
X69506912Y-161916065D01*
X69415672Y-162099298D01*
X69359655Y-162296174D01*
X69359653Y-162296186D01*
X69340768Y-162499995D01*
X69340768Y-162500004D01*
X69019232Y-162500004D01*
X69019232Y-162499995D01*
X69000346Y-162296186D01*
X69000344Y-162296174D01*
X68944499Y-162099901D01*
X68944328Y-162099299D01*
X68853088Y-161916065D01*
X68853085Y-161916061D01*
X68853084Y-161916059D01*
X68729740Y-161752724D01*
X68729735Y-161752719D01*
X68729732Y-161752715D01*
X68634834Y-161666204D01*
X68578466Y-161614817D01*
X68578463Y-161614815D01*
X68578462Y-161614814D01*
X68404427Y-161507056D01*
X68404425Y-161507055D01*
X68348948Y-161485563D01*
X68213556Y-161433112D01*
X68213553Y-161433111D01*
X68213552Y-161433111D01*
X68012351Y-161395500D01*
X68012347Y-161395500D01*
X67807653Y-161395500D01*
X67807648Y-161395500D01*
X67606447Y-161433111D01*
X67415574Y-161507055D01*
X67241533Y-161614817D01*
X67090266Y-161752717D01*
X67090259Y-161752724D01*
X66966915Y-161916059D01*
X66966912Y-161916065D01*
X66875672Y-162099298D01*
X66819655Y-162296174D01*
X66819653Y-162296186D01*
X66800768Y-162499995D01*
X66800768Y-162500004D01*
X66479232Y-162500004D01*
X66479232Y-162499995D01*
X66460346Y-162296186D01*
X66460344Y-162296174D01*
X66404499Y-162099901D01*
X66404328Y-162099299D01*
X66313088Y-161916065D01*
X66313085Y-161916061D01*
X66313084Y-161916059D01*
X66189740Y-161752724D01*
X66189735Y-161752719D01*
X66189732Y-161752715D01*
X66094834Y-161666204D01*
X66038466Y-161614817D01*
X66038463Y-161614815D01*
X66038462Y-161614814D01*
X65864427Y-161507056D01*
X65864425Y-161507055D01*
X65808948Y-161485563D01*
X65673556Y-161433112D01*
X65673553Y-161433111D01*
X65673552Y-161433111D01*
X65472351Y-161395500D01*
X65472347Y-161395500D01*
X65267653Y-161395500D01*
X65267648Y-161395500D01*
X65066447Y-161433111D01*
X64875574Y-161507055D01*
X64701533Y-161614817D01*
X64550266Y-161752717D01*
X64550259Y-161752724D01*
X64426915Y-161916059D01*
X64426912Y-161916065D01*
X64335672Y-162099298D01*
X64279655Y-162296174D01*
X64279653Y-162296186D01*
X64260768Y-162499995D01*
X64260768Y-162500004D01*
X63939232Y-162500004D01*
X63939232Y-162499995D01*
X63920346Y-162296186D01*
X63920344Y-162296174D01*
X63864499Y-162099901D01*
X63864328Y-162099299D01*
X63773088Y-161916065D01*
X63773085Y-161916061D01*
X63773084Y-161916059D01*
X63649740Y-161752724D01*
X63649735Y-161752719D01*
X63649732Y-161752715D01*
X63554834Y-161666204D01*
X63498466Y-161614817D01*
X63498463Y-161614815D01*
X63498462Y-161614814D01*
X63324427Y-161507056D01*
X63324425Y-161507055D01*
X63268948Y-161485563D01*
X63133556Y-161433112D01*
X63133553Y-161433111D01*
X63133552Y-161433111D01*
X62932351Y-161395500D01*
X62932347Y-161395500D01*
X62727653Y-161395500D01*
X62727648Y-161395500D01*
X62526447Y-161433111D01*
X62335574Y-161507055D01*
X62161533Y-161614817D01*
X62010266Y-161752717D01*
X62010259Y-161752724D01*
X61886915Y-161916059D01*
X61886912Y-161916065D01*
X61795672Y-162099298D01*
X61739655Y-162296174D01*
X61739653Y-162296186D01*
X61720768Y-162499995D01*
X61720768Y-162500004D01*
X61399232Y-162500004D01*
X61399232Y-162499995D01*
X61380346Y-162296186D01*
X61380344Y-162296174D01*
X61324499Y-162099901D01*
X61324328Y-162099299D01*
X61233088Y-161916065D01*
X61233085Y-161916061D01*
X61233084Y-161916059D01*
X61109740Y-161752724D01*
X61109735Y-161752719D01*
X61109732Y-161752715D01*
X61014834Y-161666204D01*
X60958466Y-161614817D01*
X60958463Y-161614815D01*
X60958462Y-161614814D01*
X60784427Y-161507056D01*
X60784425Y-161507055D01*
X60728948Y-161485563D01*
X60593556Y-161433112D01*
X60593553Y-161433111D01*
X60593552Y-161433111D01*
X60392351Y-161395500D01*
X60392347Y-161395500D01*
X60187653Y-161395500D01*
X60187648Y-161395500D01*
X59986447Y-161433111D01*
X59795574Y-161507055D01*
X59621533Y-161614817D01*
X59470266Y-161752717D01*
X59470259Y-161752724D01*
X59346915Y-161916059D01*
X59346912Y-161916065D01*
X59255672Y-162099298D01*
X59199655Y-162296174D01*
X59199653Y-162296186D01*
X59180768Y-162499995D01*
X59180768Y-162500004D01*
X58859232Y-162500004D01*
X58859232Y-162499995D01*
X58840346Y-162296186D01*
X58840344Y-162296174D01*
X58784499Y-162099901D01*
X58784328Y-162099299D01*
X58693088Y-161916065D01*
X58693085Y-161916061D01*
X58693084Y-161916059D01*
X58569740Y-161752724D01*
X58569735Y-161752719D01*
X58569732Y-161752715D01*
X58474834Y-161666204D01*
X58418466Y-161614817D01*
X58418463Y-161614815D01*
X58418462Y-161614814D01*
X58244427Y-161507056D01*
X58244425Y-161507055D01*
X58188948Y-161485563D01*
X58053556Y-161433112D01*
X58053553Y-161433111D01*
X58053552Y-161433111D01*
X57852351Y-161395500D01*
X57852347Y-161395500D01*
X57647653Y-161395500D01*
X57647648Y-161395500D01*
X57446447Y-161433111D01*
X57255574Y-161507055D01*
X57081533Y-161614817D01*
X56930266Y-161752717D01*
X56930259Y-161752724D01*
X56806915Y-161916059D01*
X56806912Y-161916065D01*
X56715672Y-162099298D01*
X56659655Y-162296174D01*
X56659653Y-162296186D01*
X56640768Y-162499995D01*
X56640768Y-162500004D01*
X56319232Y-162500004D01*
X56319232Y-162499995D01*
X56300346Y-162296186D01*
X56300344Y-162296174D01*
X56244499Y-162099901D01*
X56244328Y-162099299D01*
X56153088Y-161916065D01*
X56153085Y-161916061D01*
X56153084Y-161916059D01*
X56029740Y-161752724D01*
X56029735Y-161752719D01*
X56029732Y-161752715D01*
X55934834Y-161666204D01*
X55878466Y-161614817D01*
X55878463Y-161614815D01*
X55878462Y-161614814D01*
X55704427Y-161507056D01*
X55704425Y-161507055D01*
X55648948Y-161485563D01*
X55513556Y-161433112D01*
X55513553Y-161433111D01*
X55513552Y-161433111D01*
X55312351Y-161395500D01*
X55312347Y-161395500D01*
X55107653Y-161395500D01*
X55107648Y-161395500D01*
X54906447Y-161433111D01*
X54715574Y-161507055D01*
X54541533Y-161614817D01*
X54390266Y-161752717D01*
X54390259Y-161752724D01*
X54266915Y-161916059D01*
X54266912Y-161916065D01*
X54175672Y-162099298D01*
X54119655Y-162296174D01*
X54119653Y-162296186D01*
X54100768Y-162499995D01*
X54100768Y-162500004D01*
X53779232Y-162500004D01*
X53779232Y-162499995D01*
X53760346Y-162296186D01*
X53760344Y-162296174D01*
X53704499Y-162099901D01*
X53704328Y-162099299D01*
X53613088Y-161916065D01*
X53613085Y-161916061D01*
X53613084Y-161916059D01*
X53489740Y-161752724D01*
X53489735Y-161752719D01*
X53489732Y-161752715D01*
X53394834Y-161666204D01*
X53338466Y-161614817D01*
X53338463Y-161614815D01*
X53338462Y-161614814D01*
X53164427Y-161507056D01*
X53164425Y-161507055D01*
X53108948Y-161485563D01*
X52973556Y-161433112D01*
X52973553Y-161433111D01*
X52973552Y-161433111D01*
X52772351Y-161395500D01*
X52772347Y-161395500D01*
X52567653Y-161395500D01*
X52567648Y-161395500D01*
X52366447Y-161433111D01*
X52175574Y-161507055D01*
X52001533Y-161614817D01*
X51850266Y-161752717D01*
X51850259Y-161752724D01*
X51726915Y-161916059D01*
X51726912Y-161916065D01*
X51635672Y-162099298D01*
X51579655Y-162296174D01*
X51579653Y-162296186D01*
X51560768Y-162499995D01*
X51560768Y-162500004D01*
X50630000Y-162500004D01*
X50630000Y-162434174D01*
X50595925Y-162307007D01*
X50563012Y-162250000D01*
X51233999Y-162250000D01*
X51233999Y-161624985D01*
X51233998Y-161624981D01*
X51219263Y-161550895D01*
X51219261Y-161550891D01*
X51163123Y-161466876D01*
X51079108Y-161410738D01*
X51079104Y-161410736D01*
X51005017Y-161396000D01*
X50380000Y-161396000D01*
X50380000Y-162066988D01*
X50322993Y-162034075D01*
X50195826Y-162000000D01*
X50064174Y-162000000D01*
X49937007Y-162034075D01*
X49880000Y-162066988D01*
X49880000Y-161396000D01*
X49254985Y-161396000D01*
X49254981Y-161396001D01*
X49180895Y-161410736D01*
X49180891Y-161410738D01*
X49096876Y-161466876D01*
X49040738Y-161550891D01*
X49040736Y-161550895D01*
X49026000Y-161624982D01*
X49026000Y-162250000D01*
X48206500Y-162250000D01*
X48206500Y-159700003D01*
X52040693Y-159700003D01*
X52059849Y-159857774D01*
X52059851Y-159857785D01*
X52116212Y-160006394D01*
X52206499Y-160137198D01*
X52206503Y-160137202D01*
X52325468Y-160242597D01*
X52325470Y-160242599D01*
X52466205Y-160316462D01*
X52466207Y-160316463D01*
X52620529Y-160354500D01*
X52779471Y-160354500D01*
X52933793Y-160316463D01*
X53074529Y-160242599D01*
X53193498Y-160137201D01*
X53283787Y-160006395D01*
X53325130Y-159897382D01*
X53340148Y-159857785D01*
X53340150Y-159857774D01*
X53359307Y-159700003D01*
X53359307Y-159699997D01*
X53349699Y-159620871D01*
X53362544Y-159574792D01*
X53367541Y-159569151D01*
X54899888Y-158036806D01*
X54944082Y-158018500D01*
X56193918Y-158018500D01*
X56238112Y-158036806D01*
X56256418Y-158081000D01*
X56238112Y-158125194D01*
X55335150Y-159028154D01*
X55290956Y-159046460D01*
X55283278Y-159045528D01*
X55283227Y-159045956D01*
X55279471Y-159045500D01*
X55120529Y-159045500D01*
X55120525Y-159045500D01*
X54966205Y-159083537D01*
X54825470Y-159157400D01*
X54825468Y-159157402D01*
X54706503Y-159262797D01*
X54706499Y-159262801D01*
X54616212Y-159393605D01*
X54559851Y-159542214D01*
X54559849Y-159542225D01*
X54540693Y-159699996D01*
X54540693Y-159700003D01*
X54559849Y-159857774D01*
X54559851Y-159857785D01*
X54616212Y-160006394D01*
X54706499Y-160137198D01*
X54706503Y-160137202D01*
X54825468Y-160242597D01*
X54825470Y-160242599D01*
X54966205Y-160316462D01*
X54966207Y-160316463D01*
X55120529Y-160354500D01*
X55279471Y-160354500D01*
X55433793Y-160316463D01*
X55574529Y-160242599D01*
X55693498Y-160137201D01*
X55783787Y-160006395D01*
X55825130Y-159897382D01*
X55840148Y-159857785D01*
X55840150Y-159857774D01*
X55859307Y-159700003D01*
X55859307Y-159699997D01*
X55849699Y-159620871D01*
X55862544Y-159574792D01*
X55867541Y-159569151D01*
X56949888Y-158486806D01*
X56994082Y-158468500D01*
X61448170Y-158468500D01*
X61448186Y-158468501D01*
X61460194Y-158468501D01*
X61504388Y-158486807D01*
X61522694Y-158531001D01*
X61504388Y-158575195D01*
X60896873Y-159182710D01*
X60852679Y-159201016D01*
X60808485Y-159182710D01*
X60801246Y-159174024D01*
X60793498Y-159162799D01*
X60787404Y-159157400D01*
X60674531Y-159057402D01*
X60674529Y-159057400D01*
X60533794Y-158983537D01*
X60379474Y-158945500D01*
X60379471Y-158945500D01*
X60220529Y-158945500D01*
X60220525Y-158945500D01*
X60066205Y-158983537D01*
X59925470Y-159057400D01*
X59925468Y-159057402D01*
X59806503Y-159162797D01*
X59806499Y-159162801D01*
X59716212Y-159293605D01*
X59659851Y-159442214D01*
X59659849Y-159442225D01*
X59640693Y-159599996D01*
X59640693Y-159600003D01*
X59659849Y-159757774D01*
X59659850Y-159757778D01*
X59659850Y-159757779D01*
X59659851Y-159757782D01*
X59698935Y-159860837D01*
X59697490Y-159908651D01*
X59662659Y-159941439D01*
X59640496Y-159945500D01*
X58608082Y-159945500D01*
X58563888Y-159927194D01*
X58467549Y-159830855D01*
X58449243Y-159786661D01*
X58449699Y-159779127D01*
X58459307Y-159700002D01*
X58459307Y-159699997D01*
X58440150Y-159542225D01*
X58440148Y-159542214D01*
X58383787Y-159393605D01*
X58293500Y-159262801D01*
X58293496Y-159262797D01*
X58174531Y-159157402D01*
X58174529Y-159157400D01*
X58033794Y-159083537D01*
X57879474Y-159045500D01*
X57879471Y-159045500D01*
X57720529Y-159045500D01*
X57720525Y-159045500D01*
X57566205Y-159083537D01*
X57425470Y-159157400D01*
X57425468Y-159157402D01*
X57306503Y-159262797D01*
X57306499Y-159262801D01*
X57216212Y-159393605D01*
X57159851Y-159542214D01*
X57159849Y-159542225D01*
X57140693Y-159699996D01*
X57140693Y-159700003D01*
X57159849Y-159857774D01*
X57159851Y-159857785D01*
X57216212Y-160006394D01*
X57306499Y-160137198D01*
X57306503Y-160137202D01*
X57425468Y-160242597D01*
X57425470Y-160242599D01*
X57566205Y-160316462D01*
X57566207Y-160316463D01*
X57720529Y-160354500D01*
X57879468Y-160354500D01*
X57879471Y-160354500D01*
X57879473Y-160354499D01*
X57883222Y-160354044D01*
X57883522Y-160356515D01*
X57923240Y-160362522D01*
X57935151Y-160371845D01*
X58119136Y-160555830D01*
X58119141Y-160555836D01*
X58121324Y-160558019D01*
X58191981Y-160628676D01*
X58278518Y-160678638D01*
X58278521Y-160678639D01*
X58298914Y-160684103D01*
X58375038Y-160704500D01*
X58474962Y-160704500D01*
X61321197Y-160704500D01*
X61321213Y-160704501D01*
X61325038Y-160704501D01*
X61424959Y-160704501D01*
X61424962Y-160704501D01*
X61501084Y-160684103D01*
X61501085Y-160684103D01*
X61521478Y-160678639D01*
X61521477Y-160678639D01*
X61521482Y-160678638D01*
X61608019Y-160628676D01*
X61678676Y-160558019D01*
X61678676Y-160558017D01*
X61683817Y-160552877D01*
X61683821Y-160552872D01*
X71064849Y-151171843D01*
X71109042Y-151153538D01*
X71116726Y-151154483D01*
X71116780Y-151154044D01*
X71120525Y-151154499D01*
X71120529Y-151154500D01*
X71120533Y-151154500D01*
X71279471Y-151154500D01*
X71433793Y-151116463D01*
X71574529Y-151042599D01*
X71693498Y-150937201D01*
X71783787Y-150806395D01*
X71840149Y-150657782D01*
X71847471Y-150597480D01*
X71859307Y-150500003D01*
X71859307Y-150499996D01*
X71840150Y-150342225D01*
X71840148Y-150342214D01*
X71783787Y-150193605D01*
X71693500Y-150062801D01*
X71693496Y-150062797D01*
X71574531Y-149957402D01*
X71574529Y-149957400D01*
X71433794Y-149883537D01*
X71279474Y-149845500D01*
X71279471Y-149845500D01*
X71120529Y-149845500D01*
X71120525Y-149845500D01*
X71000061Y-149875192D01*
X70952770Y-149867994D01*
X70924420Y-149829465D01*
X70931618Y-149782174D01*
X70933649Y-149779031D01*
X70983787Y-149706395D01*
X71040149Y-149557782D01*
X71042809Y-149535873D01*
X71059307Y-149400003D01*
X71059307Y-149399996D01*
X71040150Y-149242225D01*
X71040148Y-149242214D01*
X70983787Y-149093605D01*
X70893500Y-148962801D01*
X70893496Y-148962797D01*
X70774531Y-148857402D01*
X70774529Y-148857400D01*
X70633794Y-148783537D01*
X70479474Y-148745500D01*
X70479471Y-148745500D01*
X70320529Y-148745500D01*
X70320525Y-148745500D01*
X70166205Y-148783537D01*
X70025470Y-148857400D01*
X70025468Y-148857402D01*
X69906503Y-148962797D01*
X69906499Y-148962801D01*
X69816212Y-149093605D01*
X69759851Y-149242214D01*
X69759849Y-149242225D01*
X69740693Y-149399996D01*
X69740693Y-149400003D01*
X69759849Y-149557774D01*
X69759851Y-149557782D01*
X69816212Y-149706394D01*
X69906499Y-149837198D01*
X69906502Y-149837201D01*
X69999445Y-149919542D01*
X70020386Y-149962549D01*
X70020500Y-149966323D01*
X70020500Y-150033195D01*
X70002194Y-150077389D01*
X69907210Y-150172372D01*
X69863016Y-150190678D01*
X69818822Y-150172372D01*
X69804578Y-150150343D01*
X69780778Y-150087587D01*
X69780776Y-150087585D01*
X69780776Y-150087583D01*
X69690491Y-149956783D01*
X69690487Y-149956779D01*
X69571522Y-149851384D01*
X69571520Y-149851382D01*
X69430786Y-149777519D01*
X69371606Y-149762932D01*
X69333077Y-149734581D01*
X69324520Y-149694714D01*
X69343807Y-149535873D01*
X69343807Y-149535867D01*
X69324650Y-149378096D01*
X69324648Y-149378085D01*
X69268287Y-149229476D01*
X69178000Y-149098672D01*
X69177996Y-149098668D01*
X69059031Y-148993273D01*
X69059029Y-148993271D01*
X68918294Y-148919408D01*
X68763974Y-148881371D01*
X68763971Y-148881371D01*
X68605029Y-148881371D01*
X68605025Y-148881371D01*
X68450705Y-148919408D01*
X68309970Y-148993271D01*
X68309968Y-148993273D01*
X68191003Y-149098668D01*
X68190999Y-149098672D01*
X68100712Y-149229476D01*
X68044351Y-149378085D01*
X68044349Y-149378096D01*
X68025193Y-149535867D01*
X68025193Y-149535873D01*
X68034800Y-149614997D01*
X68021955Y-149661075D01*
X68016950Y-149666724D01*
X67086195Y-150597480D01*
X67042001Y-150615786D01*
X66997807Y-150597480D01*
X66979501Y-150553286D01*
X66979501Y-150546214D01*
X66979500Y-150546196D01*
X66979500Y-149455006D01*
X66979501Y-149454993D01*
X66979501Y-149350038D01*
X66979500Y-149350032D01*
X66953638Y-149253519D01*
X66953637Y-149253516D01*
X66915057Y-149186694D01*
X66903676Y-149166981D01*
X66833019Y-149096324D01*
X66833018Y-149096323D01*
X65507243Y-147770549D01*
X65507232Y-147770536D01*
X65433024Y-147696328D01*
X65433015Y-147696321D01*
X65346488Y-147646364D01*
X65346479Y-147646360D01*
X65326085Y-147640896D01*
X65326084Y-147640896D01*
X65249966Y-147620499D01*
X65249962Y-147620499D01*
X65150038Y-147620499D01*
X65146213Y-147620499D01*
X65146197Y-147620500D01*
X63566129Y-147620500D01*
X63521935Y-147602194D01*
X63514693Y-147593505D01*
X63493497Y-147562798D01*
X63493496Y-147562797D01*
X63374531Y-147457402D01*
X63374529Y-147457400D01*
X63233794Y-147383537D01*
X63079474Y-147345500D01*
X63079471Y-147345500D01*
X62920529Y-147345500D01*
X62920525Y-147345500D01*
X62766205Y-147383537D01*
X62625470Y-147457400D01*
X62625468Y-147457402D01*
X62506503Y-147562797D01*
X62506499Y-147562801D01*
X62416212Y-147693605D01*
X62359851Y-147842214D01*
X62359849Y-147842224D01*
X62355731Y-147876139D01*
X62332231Y-147917805D01*
X62286153Y-147930649D01*
X62249493Y-147912799D01*
X62197806Y-147861112D01*
X62179500Y-147816918D01*
X62179500Y-147019478D01*
X62197806Y-146975284D01*
X62700284Y-146472806D01*
X62744478Y-146454500D01*
X64048011Y-146454500D01*
X64092205Y-146472806D01*
X64107604Y-146504437D01*
X64108945Y-146504107D01*
X64109851Y-146507785D01*
X64166212Y-146656394D01*
X64256499Y-146787198D01*
X64256503Y-146787202D01*
X64375468Y-146892597D01*
X64375470Y-146892599D01*
X64493413Y-146954500D01*
X64516207Y-146966463D01*
X64670529Y-147004500D01*
X64829471Y-147004500D01*
X64983793Y-146966463D01*
X65124529Y-146892599D01*
X65243498Y-146787201D01*
X65333787Y-146656395D01*
X65390149Y-146507782D01*
X65409307Y-146350000D01*
X65403236Y-146300003D01*
X65390150Y-146192225D01*
X65390149Y-146192221D01*
X65390149Y-146192218D01*
X65351065Y-146089162D01*
X65352510Y-146041349D01*
X65387341Y-146008561D01*
X65409504Y-146004500D01*
X71091918Y-146004500D01*
X71136112Y-146022806D01*
X71282450Y-146169144D01*
X71300756Y-146213338D01*
X71300300Y-146220871D01*
X71290693Y-146299997D01*
X71290693Y-146300003D01*
X71309849Y-146457774D01*
X71309851Y-146457785D01*
X71366212Y-146606394D01*
X71456499Y-146737198D01*
X71456503Y-146737202D01*
X71575468Y-146842597D01*
X71575470Y-146842599D01*
X71670734Y-146892597D01*
X71716207Y-146916463D01*
X71870529Y-146954500D01*
X72029471Y-146954500D01*
X72183793Y-146916463D01*
X72324529Y-146842599D01*
X72443498Y-146737201D01*
X72533787Y-146606395D01*
X72590149Y-146457782D01*
X72603236Y-146350000D01*
X72609307Y-146300003D01*
X72609307Y-146299996D01*
X72590150Y-146142225D01*
X72590148Y-146142214D01*
X72533787Y-145993605D01*
X72443500Y-145862801D01*
X72443496Y-145862797D01*
X72324531Y-145757402D01*
X72324529Y-145757400D01*
X72183794Y-145683537D01*
X72029474Y-145645500D01*
X72029471Y-145645500D01*
X71870529Y-145645500D01*
X71870528Y-145645500D01*
X71866773Y-145645956D01*
X71866480Y-145643541D01*
X71826572Y-145637364D01*
X71814848Y-145628154D01*
X71582244Y-145395550D01*
X71582232Y-145395536D01*
X71508024Y-145321328D01*
X71508015Y-145321321D01*
X71421488Y-145271364D01*
X71421479Y-145271360D01*
X71401085Y-145265896D01*
X71401084Y-145265896D01*
X71324966Y-145245499D01*
X71324962Y-145245499D01*
X71225038Y-145245499D01*
X71221213Y-145245499D01*
X71221197Y-145245500D01*
X62325038Y-145245500D01*
X62325037Y-145245500D01*
X62325031Y-145245501D01*
X62228521Y-145271360D01*
X62228518Y-145271361D01*
X62141979Y-145321325D01*
X62141976Y-145321328D01*
X62071324Y-145391981D01*
X62071322Y-145391983D01*
X58661112Y-148802194D01*
X58616918Y-148820500D01*
X55166129Y-148820500D01*
X55121935Y-148802194D01*
X55114693Y-148793505D01*
X55093497Y-148762798D01*
X55093496Y-148762797D01*
X54974531Y-148657402D01*
X54974529Y-148657400D01*
X54833794Y-148583537D01*
X54679474Y-148545500D01*
X54679471Y-148545500D01*
X54520529Y-148545500D01*
X54520525Y-148545500D01*
X54366205Y-148583537D01*
X54225470Y-148657400D01*
X54225468Y-148657402D01*
X54106503Y-148762797D01*
X54106499Y-148762801D01*
X54016212Y-148893605D01*
X53959851Y-149042214D01*
X53959849Y-149042225D01*
X53940693Y-149199996D01*
X53940693Y-149200003D01*
X53959849Y-149357774D01*
X53959851Y-149357785D01*
X54016212Y-149506394D01*
X54106499Y-149637198D01*
X54106503Y-149637202D01*
X54225468Y-149742597D01*
X54225470Y-149742599D01*
X54366205Y-149816462D01*
X54366207Y-149816463D01*
X54520529Y-149854500D01*
X54679471Y-149854500D01*
X54833793Y-149816463D01*
X54974529Y-149742599D01*
X55093498Y-149637201D01*
X55114693Y-149606495D01*
X55154864Y-149580524D01*
X55166129Y-149579500D01*
X58746197Y-149579500D01*
X58746213Y-149579501D01*
X58750038Y-149579501D01*
X58849962Y-149579501D01*
X58849967Y-149579500D01*
X58931016Y-149557782D01*
X58946482Y-149553638D01*
X59033019Y-149503676D01*
X59103676Y-149433019D01*
X59103676Y-149433017D01*
X59108817Y-149427877D01*
X59108820Y-149427872D01*
X61313807Y-147222886D01*
X61358000Y-147204581D01*
X61402194Y-147222887D01*
X61420500Y-147267081D01*
X61420500Y-147946196D01*
X61420499Y-147946214D01*
X61420499Y-148049966D01*
X61440896Y-148126084D01*
X61440896Y-148126085D01*
X61446360Y-148146479D01*
X61446364Y-148146488D01*
X61496321Y-148233015D01*
X61496328Y-148233024D01*
X61570536Y-148307232D01*
X61570550Y-148307244D01*
X61869112Y-148605806D01*
X61887418Y-148650000D01*
X61869112Y-148694194D01*
X58212112Y-152351194D01*
X58167918Y-152369500D01*
X55965803Y-152369500D01*
X55965787Y-152369499D01*
X55961962Y-152369499D01*
X55862038Y-152369499D01*
X55862037Y-152369499D01*
X55862031Y-152369500D01*
X55785914Y-152389895D01*
X55785915Y-152389896D01*
X55765519Y-152395361D01*
X55765511Y-152395364D01*
X55678982Y-152445322D01*
X55678981Y-152445323D01*
X55232706Y-152891597D01*
X55188512Y-152909903D01*
X55165935Y-152905683D01*
X55089393Y-152876031D01*
X55040556Y-152857112D01*
X55040553Y-152857111D01*
X55040552Y-152857111D01*
X54839351Y-152819500D01*
X54839347Y-152819500D01*
X54634653Y-152819500D01*
X54634648Y-152819500D01*
X54433447Y-152857111D01*
X54242574Y-152931055D01*
X54068533Y-153038817D01*
X53917266Y-153176717D01*
X53917259Y-153176724D01*
X53793915Y-153340059D01*
X53793912Y-153340065D01*
X53702672Y-153523298D01*
X53646655Y-153720174D01*
X53646653Y-153720186D01*
X53627768Y-153923995D01*
X53627768Y-153924004D01*
X53646653Y-154127813D01*
X53646655Y-154127825D01*
X53702672Y-154324701D01*
X53793912Y-154507935D01*
X53793913Y-154507936D01*
X53793915Y-154507940D01*
X53917259Y-154671275D01*
X53917264Y-154671280D01*
X53917268Y-154671285D01*
X54019870Y-154764819D01*
X54068533Y-154809182D01*
X54068534Y-154809183D01*
X54068538Y-154809186D01*
X54242573Y-154916944D01*
X54433444Y-154990888D01*
X54634653Y-155028500D01*
X54634656Y-155028500D01*
X54839344Y-155028500D01*
X54839347Y-155028500D01*
X55040556Y-154990888D01*
X55231427Y-154916944D01*
X55405462Y-154809186D01*
X55556732Y-154671285D01*
X55578683Y-154642218D01*
X55680084Y-154507940D01*
X55680083Y-154507940D01*
X55680088Y-154507935D01*
X55771328Y-154324701D01*
X55827345Y-154127821D01*
X55846232Y-153924000D01*
X55827345Y-153720179D01*
X55771328Y-153523299D01*
X55759149Y-153498842D01*
X55755837Y-153451122D01*
X55770901Y-153426792D01*
X56050889Y-153146806D01*
X56095083Y-153128500D01*
X56368161Y-153128500D01*
X56412355Y-153146806D01*
X56430661Y-153191000D01*
X56418037Y-153228664D01*
X56333915Y-153340059D01*
X56333912Y-153340065D01*
X56242672Y-153523298D01*
X56186655Y-153720174D01*
X56186653Y-153720186D01*
X56167768Y-153923995D01*
X56167768Y-153924004D01*
X56186653Y-154127813D01*
X56186655Y-154127825D01*
X56242672Y-154324701D01*
X56333912Y-154507935D01*
X56333913Y-154507936D01*
X56333915Y-154507940D01*
X56457259Y-154671275D01*
X56457264Y-154671280D01*
X56457268Y-154671285D01*
X56559870Y-154764819D01*
X56608533Y-154809182D01*
X56608534Y-154809183D01*
X56608538Y-154809186D01*
X56782573Y-154916944D01*
X56973444Y-154990888D01*
X57174653Y-155028500D01*
X57174656Y-155028500D01*
X57379344Y-155028500D01*
X57379347Y-155028500D01*
X57580556Y-154990888D01*
X57771427Y-154916944D01*
X57945462Y-154809186D01*
X58096732Y-154671285D01*
X58118683Y-154642218D01*
X58220084Y-154507940D01*
X58220083Y-154507940D01*
X58220088Y-154507935D01*
X58311328Y-154324701D01*
X58367345Y-154127821D01*
X58386232Y-153924000D01*
X58367345Y-153720179D01*
X58311328Y-153523299D01*
X58220088Y-153340065D01*
X58220085Y-153340061D01*
X58220084Y-153340059D01*
X58135963Y-153228664D01*
X58123938Y-153182365D01*
X58148175Y-153141124D01*
X58185839Y-153128500D01*
X58297197Y-153128500D01*
X58297213Y-153128501D01*
X58301038Y-153128501D01*
X58400959Y-153128501D01*
X58400962Y-153128501D01*
X58477084Y-153108103D01*
X58477085Y-153108103D01*
X58497478Y-153102639D01*
X58497477Y-153102639D01*
X58497482Y-153102638D01*
X58584019Y-153052676D01*
X58605805Y-153030890D01*
X58649999Y-153012583D01*
X58694193Y-153030888D01*
X58712500Y-153075082D01*
X58712500Y-154799064D01*
X58712501Y-154799068D01*
X58727265Y-154873299D01*
X58727267Y-154873303D01*
X58783515Y-154957484D01*
X58867697Y-155013733D01*
X58867699Y-155013734D01*
X58941933Y-155028500D01*
X60692066Y-155028499D01*
X60766301Y-155013734D01*
X60850484Y-154957484D01*
X60906734Y-154873301D01*
X60921500Y-154799067D01*
X60921499Y-153048934D01*
X60906734Y-152974699D01*
X60906732Y-152974696D01*
X60850484Y-152890515D01*
X60766302Y-152834266D01*
X60766300Y-152834265D01*
X60692067Y-152819500D01*
X58968080Y-152819500D01*
X58923886Y-152801194D01*
X58905580Y-152757000D01*
X58923885Y-152712807D01*
X62405808Y-149230885D01*
X62449999Y-149212581D01*
X62494193Y-149230887D01*
X63787864Y-150524558D01*
X63806170Y-150568752D01*
X63805714Y-150576285D01*
X63790693Y-150699997D01*
X63790693Y-150700003D01*
X63809849Y-150857774D01*
X63809851Y-150857785D01*
X63866212Y-151006394D01*
X63956499Y-151137198D01*
X63956503Y-151137202D01*
X64075468Y-151242597D01*
X64075470Y-151242599D01*
X64216205Y-151316462D01*
X64216207Y-151316463D01*
X64370529Y-151354500D01*
X64529471Y-151354500D01*
X64683793Y-151316463D01*
X64824529Y-151242599D01*
X64943498Y-151137201D01*
X65033787Y-151006395D01*
X65090149Y-150857782D01*
X65090150Y-150857774D01*
X65109307Y-150700003D01*
X65109307Y-150699996D01*
X65090150Y-150542225D01*
X65090148Y-150542214D01*
X65033787Y-150393605D01*
X64943500Y-150262801D01*
X64943496Y-150262797D01*
X64824531Y-150157402D01*
X64824529Y-150157400D01*
X64683794Y-150083537D01*
X64529474Y-150045500D01*
X64529471Y-150045500D01*
X64408082Y-150045500D01*
X64363888Y-150027194D01*
X63087008Y-148750314D01*
X63068702Y-148706120D01*
X63087008Y-148661926D01*
X63116245Y-148645436D01*
X63233793Y-148616463D01*
X63374529Y-148542599D01*
X63493498Y-148437201D01*
X63514693Y-148406495D01*
X63554864Y-148380524D01*
X63566129Y-148379500D01*
X65016918Y-148379500D01*
X65061112Y-148397806D01*
X66202194Y-149538888D01*
X66220500Y-149583082D01*
X66220500Y-150416917D01*
X66202194Y-150461111D01*
X62495602Y-154167702D01*
X62451408Y-154186008D01*
X62436451Y-154184192D01*
X62279474Y-154145500D01*
X62279471Y-154145500D01*
X62120529Y-154145500D01*
X62120525Y-154145500D01*
X61966205Y-154183537D01*
X61825470Y-154257400D01*
X61825468Y-154257402D01*
X61706503Y-154362797D01*
X61706499Y-154362801D01*
X61616212Y-154493605D01*
X61559851Y-154642214D01*
X61559849Y-154642225D01*
X61540693Y-154799996D01*
X61540693Y-154800003D01*
X61559849Y-154957774D01*
X61559851Y-154957785D01*
X61616212Y-155106394D01*
X61706499Y-155237198D01*
X61706503Y-155237202D01*
X61825468Y-155342597D01*
X61825470Y-155342599D01*
X61930255Y-155397594D01*
X61966207Y-155416463D01*
X62089985Y-155446971D01*
X62100097Y-155449464D01*
X62138626Y-155477814D01*
X62145824Y-155525105D01*
X62129334Y-155554342D01*
X61018662Y-156665013D01*
X60974468Y-156683319D01*
X60930274Y-156665013D01*
X60911968Y-156620819D01*
X60912235Y-156615052D01*
X60926232Y-156464004D01*
X60926232Y-156463995D01*
X60907346Y-156260186D01*
X60907344Y-156260174D01*
X60851379Y-156063480D01*
X60851328Y-156063299D01*
X60760088Y-155880065D01*
X60760085Y-155880061D01*
X60760084Y-155880059D01*
X60636740Y-155716724D01*
X60636735Y-155716719D01*
X60636732Y-155716715D01*
X60485901Y-155579214D01*
X60485466Y-155578817D01*
X60485463Y-155578815D01*
X60485462Y-155578814D01*
X60311427Y-155471056D01*
X60311425Y-155471055D01*
X60255692Y-155449464D01*
X60120556Y-155397112D01*
X60120553Y-155397111D01*
X60120552Y-155397111D01*
X59919351Y-155359500D01*
X59919347Y-155359500D01*
X59714653Y-155359500D01*
X59714648Y-155359500D01*
X59513447Y-155397111D01*
X59322574Y-155471055D01*
X59148533Y-155578817D01*
X58997266Y-155716717D01*
X58997259Y-155716724D01*
X58873915Y-155880059D01*
X58873912Y-155880065D01*
X58782672Y-156063298D01*
X58726655Y-156260174D01*
X58726653Y-156260186D01*
X58707768Y-156463995D01*
X58707768Y-156464004D01*
X58726653Y-156667813D01*
X58726655Y-156667825D01*
X58769806Y-156819483D01*
X58782672Y-156864701D01*
X58873912Y-157047935D01*
X58873913Y-157047936D01*
X58873915Y-157047940D01*
X58958037Y-157159336D01*
X58970062Y-157205635D01*
X58945825Y-157246876D01*
X58908161Y-157259500D01*
X58185839Y-157259500D01*
X58141645Y-157241194D01*
X58123339Y-157197000D01*
X58135963Y-157159336D01*
X58220084Y-157047940D01*
X58220083Y-157047940D01*
X58220088Y-157047935D01*
X58311328Y-156864701D01*
X58360547Y-156691713D01*
X58367344Y-156667825D01*
X58367346Y-156667813D01*
X58386232Y-156464004D01*
X58386232Y-156463995D01*
X58367346Y-156260186D01*
X58367344Y-156260174D01*
X58311379Y-156063480D01*
X58311328Y-156063299D01*
X58220088Y-155880065D01*
X58220085Y-155880061D01*
X58220084Y-155880059D01*
X58096740Y-155716724D01*
X58096735Y-155716719D01*
X58096732Y-155716715D01*
X57945901Y-155579214D01*
X57945466Y-155578817D01*
X57945463Y-155578815D01*
X57945462Y-155578814D01*
X57771427Y-155471056D01*
X57771425Y-155471055D01*
X57715692Y-155449464D01*
X57580556Y-155397112D01*
X57580553Y-155397111D01*
X57580552Y-155397111D01*
X57379351Y-155359500D01*
X57379347Y-155359500D01*
X57174653Y-155359500D01*
X57174648Y-155359500D01*
X56973447Y-155397111D01*
X56782574Y-155471055D01*
X56608533Y-155578817D01*
X56457266Y-155716717D01*
X56457259Y-155716724D01*
X56333915Y-155880059D01*
X56333912Y-155880065D01*
X56242672Y-156063298D01*
X56186655Y-156260174D01*
X56186653Y-156260186D01*
X56167768Y-156463995D01*
X56167768Y-156464004D01*
X56186653Y-156667813D01*
X56186655Y-156667825D01*
X56229806Y-156819483D01*
X56242672Y-156864701D01*
X56333912Y-157047935D01*
X56333913Y-157047936D01*
X56333915Y-157047940D01*
X56418037Y-157159336D01*
X56430062Y-157205635D01*
X56405825Y-157246876D01*
X56368161Y-157259500D01*
X55645213Y-157259500D01*
X55601019Y-157241194D01*
X55582713Y-157197000D01*
X55595337Y-157159336D01*
X55679657Y-157047676D01*
X55679660Y-157047670D01*
X55770859Y-156864519D01*
X55813687Y-156714000D01*
X55170012Y-156714000D01*
X55202925Y-156656993D01*
X55237000Y-156529826D01*
X55237000Y-156398174D01*
X55202925Y-156271007D01*
X55170012Y-156214000D01*
X55813687Y-156214000D01*
X55813686Y-156213999D01*
X55770859Y-156063480D01*
X55679660Y-155880329D01*
X55679657Y-155880323D01*
X55556369Y-155717062D01*
X55556362Y-155717055D01*
X55405160Y-155579214D01*
X55231203Y-155471506D01*
X55040413Y-155397594D01*
X54987000Y-155387609D01*
X54987000Y-156030988D01*
X54929993Y-155998075D01*
X54802826Y-155964000D01*
X54671174Y-155964000D01*
X54544007Y-155998075D01*
X54487000Y-156030988D01*
X54487000Y-155387609D01*
X54433586Y-155397594D01*
X54242796Y-155471506D01*
X54068839Y-155579214D01*
X53917637Y-155717055D01*
X53917630Y-155717062D01*
X53794342Y-155880323D01*
X53794339Y-155880329D01*
X53703140Y-156063480D01*
X53660313Y-156213999D01*
X53660313Y-156214000D01*
X54303988Y-156214000D01*
X54271075Y-156271007D01*
X54237000Y-156398174D01*
X54237000Y-156529826D01*
X54271075Y-156656993D01*
X54303988Y-156714000D01*
X53660313Y-156714000D01*
X53703140Y-156864519D01*
X53794339Y-157047670D01*
X53794342Y-157047676D01*
X53917630Y-157210937D01*
X53917637Y-157210944D01*
X54068839Y-157348785D01*
X54242798Y-157456494D01*
X54271571Y-157467641D01*
X54306169Y-157500676D01*
X54307274Y-157548498D01*
X54293188Y-157570115D01*
X52835150Y-159028154D01*
X52790956Y-159046460D01*
X52783278Y-159045528D01*
X52783227Y-159045956D01*
X52779471Y-159045500D01*
X52620529Y-159045500D01*
X52620525Y-159045500D01*
X52466205Y-159083537D01*
X52325470Y-159157400D01*
X52325468Y-159157402D01*
X52206503Y-159262797D01*
X52206499Y-159262801D01*
X52116212Y-159393605D01*
X52059851Y-159542214D01*
X52059849Y-159542225D01*
X52040693Y-159699996D01*
X52040693Y-159700003D01*
X48206500Y-159700003D01*
X48206500Y-144535378D01*
X48224806Y-144491184D01*
X48269000Y-144472878D01*
X48313194Y-144491184D01*
X48326740Y-144511457D01*
X48336649Y-144535378D01*
X48343217Y-144551234D01*
X48428522Y-144678901D01*
X48428523Y-144678902D01*
X48537098Y-144787477D01*
X48664768Y-144872784D01*
X48806628Y-144931545D01*
X48957226Y-144961500D01*
X48957227Y-144961500D01*
X49960773Y-144961500D01*
X49960774Y-144961500D01*
X50111372Y-144931545D01*
X50253232Y-144872784D01*
X50380902Y-144787477D01*
X50489477Y-144678902D01*
X50574784Y-144551232D01*
X50633545Y-144409372D01*
X50663500Y-144258774D01*
X50663500Y-144105226D01*
X50633545Y-143954628D01*
X50591258Y-143852539D01*
X50574785Y-143812770D01*
X50574784Y-143812769D01*
X50574784Y-143812768D01*
X50489477Y-143685098D01*
X50380902Y-143576523D01*
X50253232Y-143491216D01*
X50253231Y-143491215D01*
X50253229Y-143491214D01*
X50111373Y-143432455D01*
X50111370Y-143432454D01*
X49960774Y-143402500D01*
X48957226Y-143402500D01*
X48957225Y-143402500D01*
X48806629Y-143432454D01*
X48806626Y-143432455D01*
X48664770Y-143491214D01*
X48664766Y-143491217D01*
X48537098Y-143576522D01*
X48428522Y-143685098D01*
X48343217Y-143812766D01*
X48343214Y-143812770D01*
X48326742Y-143852539D01*
X48292917Y-143886364D01*
X48245082Y-143886363D01*
X48211257Y-143852538D01*
X48206500Y-143828621D01*
X48206500Y-137385378D01*
X48224806Y-137341184D01*
X48269000Y-137322878D01*
X48313194Y-137341184D01*
X48326740Y-137361457D01*
X48343216Y-137401232D01*
X48428523Y-137528902D01*
X48537098Y-137637477D01*
X48664768Y-137722784D01*
X48806628Y-137781545D01*
X48957226Y-137811500D01*
X48957227Y-137811500D01*
X49960773Y-137811500D01*
X49960774Y-137811500D01*
X50111372Y-137781545D01*
X50253232Y-137722784D01*
X50380902Y-137637477D01*
X50489477Y-137528902D01*
X50574784Y-137401232D01*
X50633545Y-137259372D01*
X50663500Y-137108774D01*
X50663500Y-136955226D01*
X50633545Y-136804628D01*
X50591258Y-136702539D01*
X50574785Y-136662770D01*
X50574784Y-136662769D01*
X50574784Y-136662768D01*
X50489477Y-136535098D01*
X50380902Y-136426523D01*
X50253232Y-136341216D01*
X50253231Y-136341215D01*
X50253229Y-136341214D01*
X50111373Y-136282455D01*
X50111370Y-136282454D01*
X49960774Y-136252500D01*
X48957226Y-136252500D01*
X48957225Y-136252500D01*
X48806629Y-136282454D01*
X48806626Y-136282455D01*
X48664770Y-136341214D01*
X48664766Y-136341217D01*
X48537098Y-136426522D01*
X48428522Y-136535098D01*
X48343217Y-136662766D01*
X48343214Y-136662770D01*
X48326742Y-136702539D01*
X48292917Y-136736364D01*
X48245082Y-136736363D01*
X48211257Y-136702538D01*
X48206500Y-136678621D01*
X48206500Y-128875064D01*
X49025500Y-128875064D01*
X49025501Y-128875068D01*
X49040265Y-128949299D01*
X49040267Y-128949303D01*
X49096515Y-129033484D01*
X49180697Y-129089733D01*
X49180699Y-129089734D01*
X49254933Y-129104500D01*
X51005066Y-129104499D01*
X51079301Y-129089734D01*
X51163484Y-129033484D01*
X51219734Y-128949301D01*
X51234500Y-128875067D01*
X51234500Y-128000004D01*
X51560768Y-128000004D01*
X51579653Y-128203813D01*
X51579655Y-128203825D01*
X51635501Y-128400099D01*
X51635672Y-128400701D01*
X51726912Y-128583935D01*
X51726913Y-128583936D01*
X51726915Y-128583940D01*
X51850259Y-128747275D01*
X51850264Y-128747280D01*
X51850268Y-128747285D01*
X51952870Y-128840819D01*
X52001533Y-128885182D01*
X52001534Y-128885183D01*
X52001538Y-128885186D01*
X52175573Y-128992944D01*
X52366444Y-129066888D01*
X52567653Y-129104500D01*
X52567656Y-129104500D01*
X52772344Y-129104500D01*
X52772347Y-129104500D01*
X52973556Y-129066888D01*
X53164427Y-128992944D01*
X53338462Y-128885186D01*
X53489732Y-128747285D01*
X53613088Y-128583935D01*
X53704328Y-128400701D01*
X53747206Y-128250000D01*
X54133313Y-128250000D01*
X54176140Y-128400519D01*
X54267339Y-128583670D01*
X54267342Y-128583676D01*
X54390630Y-128746937D01*
X54390637Y-128746944D01*
X54541839Y-128884785D01*
X54715796Y-128992493D01*
X54906586Y-129066405D01*
X54960000Y-129076390D01*
X54960000Y-128433012D01*
X55017007Y-128465925D01*
X55144174Y-128500000D01*
X55275826Y-128500000D01*
X55402993Y-128465925D01*
X55460000Y-128433012D01*
X55460000Y-129076389D01*
X55513413Y-129066405D01*
X55704203Y-128992493D01*
X55878160Y-128884785D01*
X56029362Y-128746944D01*
X56029369Y-128746937D01*
X56152657Y-128583676D01*
X56152660Y-128583670D01*
X56243859Y-128400519D01*
X56286687Y-128250000D01*
X55643012Y-128250000D01*
X55675925Y-128192993D01*
X55710000Y-128065826D01*
X55710000Y-128000004D01*
X56640768Y-128000004D01*
X56659653Y-128203813D01*
X56659655Y-128203825D01*
X56715501Y-128400099D01*
X56715672Y-128400701D01*
X56806912Y-128583935D01*
X56806913Y-128583936D01*
X56806915Y-128583940D01*
X56930259Y-128747275D01*
X56930264Y-128747280D01*
X56930268Y-128747285D01*
X57032870Y-128840819D01*
X57081533Y-128885182D01*
X57081534Y-128885183D01*
X57081538Y-128885186D01*
X57255573Y-128992944D01*
X57446444Y-129066888D01*
X57647653Y-129104500D01*
X57647656Y-129104500D01*
X57852344Y-129104500D01*
X57852347Y-129104500D01*
X58053556Y-129066888D01*
X58244427Y-128992944D01*
X58418462Y-128885186D01*
X58569732Y-128747285D01*
X58693088Y-128583935D01*
X58784328Y-128400701D01*
X58840345Y-128203821D01*
X58840346Y-128203813D01*
X58859232Y-128000004D01*
X59180768Y-128000004D01*
X59199653Y-128203813D01*
X59199655Y-128203825D01*
X59255501Y-128400099D01*
X59255672Y-128400701D01*
X59346912Y-128583935D01*
X59346913Y-128583936D01*
X59346915Y-128583940D01*
X59470259Y-128747275D01*
X59470264Y-128747280D01*
X59470268Y-128747285D01*
X59572870Y-128840819D01*
X59621533Y-128885182D01*
X59621534Y-128885183D01*
X59621538Y-128885186D01*
X59795573Y-128992944D01*
X59986444Y-129066888D01*
X60187653Y-129104500D01*
X60187656Y-129104500D01*
X60392344Y-129104500D01*
X60392347Y-129104500D01*
X60593556Y-129066888D01*
X60784427Y-128992944D01*
X60958462Y-128885186D01*
X61109732Y-128747285D01*
X61233088Y-128583935D01*
X61324328Y-128400701D01*
X61380345Y-128203821D01*
X61380346Y-128203813D01*
X61399232Y-128000004D01*
X61720768Y-128000004D01*
X61739653Y-128203813D01*
X61739655Y-128203825D01*
X61795501Y-128400099D01*
X61795672Y-128400701D01*
X61886912Y-128583935D01*
X61886913Y-128583936D01*
X61886915Y-128583940D01*
X62010259Y-128747275D01*
X62010264Y-128747280D01*
X62010268Y-128747285D01*
X62112870Y-128840819D01*
X62161533Y-128885182D01*
X62161534Y-128885183D01*
X62161538Y-128885186D01*
X62335573Y-128992944D01*
X62526444Y-129066888D01*
X62727653Y-129104500D01*
X62727656Y-129104500D01*
X62932344Y-129104500D01*
X62932347Y-129104500D01*
X63133556Y-129066888D01*
X63324427Y-128992944D01*
X63498462Y-128885186D01*
X63649732Y-128747285D01*
X63773088Y-128583935D01*
X63864328Y-128400701D01*
X63920345Y-128203821D01*
X63920346Y-128203813D01*
X63939232Y-128000004D01*
X64260768Y-128000004D01*
X64279653Y-128203813D01*
X64279655Y-128203825D01*
X64335501Y-128400099D01*
X64335672Y-128400701D01*
X64426912Y-128583935D01*
X64426913Y-128583936D01*
X64426915Y-128583940D01*
X64550259Y-128747275D01*
X64550264Y-128747280D01*
X64550268Y-128747285D01*
X64652870Y-128840819D01*
X64701533Y-128885182D01*
X64701534Y-128885183D01*
X64701538Y-128885186D01*
X64875573Y-128992944D01*
X65066444Y-129066888D01*
X65267653Y-129104500D01*
X65267656Y-129104500D01*
X65472344Y-129104500D01*
X65472347Y-129104500D01*
X65673556Y-129066888D01*
X65864427Y-128992944D01*
X66038462Y-128885186D01*
X66189732Y-128747285D01*
X66313088Y-128583935D01*
X66404328Y-128400701D01*
X66460345Y-128203821D01*
X66460346Y-128203813D01*
X66479232Y-128000004D01*
X66800768Y-128000004D01*
X66819653Y-128203813D01*
X66819655Y-128203825D01*
X66875501Y-128400099D01*
X66875672Y-128400701D01*
X66966912Y-128583935D01*
X66966913Y-128583936D01*
X66966915Y-128583940D01*
X67090259Y-128747275D01*
X67090264Y-128747280D01*
X67090268Y-128747285D01*
X67192870Y-128840819D01*
X67241533Y-128885182D01*
X67241534Y-128885183D01*
X67241538Y-128885186D01*
X67415573Y-128992944D01*
X67606444Y-129066888D01*
X67807653Y-129104500D01*
X67807656Y-129104500D01*
X68012344Y-129104500D01*
X68012347Y-129104500D01*
X68213556Y-129066888D01*
X68404427Y-128992944D01*
X68578462Y-128885186D01*
X68729732Y-128747285D01*
X68853088Y-128583935D01*
X68944328Y-128400701D01*
X69000345Y-128203821D01*
X69000346Y-128203813D01*
X69019232Y-128000004D01*
X69340768Y-128000004D01*
X69359653Y-128203813D01*
X69359655Y-128203825D01*
X69415501Y-128400099D01*
X69415672Y-128400701D01*
X69506912Y-128583935D01*
X69506913Y-128583936D01*
X69506915Y-128583940D01*
X69630259Y-128747275D01*
X69630264Y-128747280D01*
X69630268Y-128747285D01*
X69732870Y-128840819D01*
X69781533Y-128885182D01*
X69781534Y-128885183D01*
X69781538Y-128885186D01*
X69955573Y-128992944D01*
X70146444Y-129066888D01*
X70347653Y-129104500D01*
X70347656Y-129104500D01*
X70552344Y-129104500D01*
X70552347Y-129104500D01*
X70753556Y-129066888D01*
X70944427Y-128992944D01*
X71118462Y-128885186D01*
X71269732Y-128747285D01*
X71393088Y-128583935D01*
X71484328Y-128400701D01*
X71540345Y-128203821D01*
X71540346Y-128203813D01*
X71559232Y-128000004D01*
X71880768Y-128000004D01*
X71899653Y-128203813D01*
X71899655Y-128203825D01*
X71955501Y-128400099D01*
X71955672Y-128400701D01*
X72046912Y-128583935D01*
X72046913Y-128583936D01*
X72046915Y-128583940D01*
X72170259Y-128747275D01*
X72170264Y-128747280D01*
X72170268Y-128747285D01*
X72272870Y-128840819D01*
X72321533Y-128885182D01*
X72321534Y-128885183D01*
X72321538Y-128885186D01*
X72495573Y-128992944D01*
X72686444Y-129066888D01*
X72887653Y-129104500D01*
X72887656Y-129104500D01*
X73092344Y-129104500D01*
X73092347Y-129104500D01*
X73293556Y-129066888D01*
X73484427Y-128992944D01*
X73658462Y-128885186D01*
X73809732Y-128747285D01*
X73933088Y-128583935D01*
X74024328Y-128400701D01*
X74080345Y-128203821D01*
X74080346Y-128203813D01*
X74099232Y-128000004D01*
X74099232Y-127999995D01*
X74080346Y-127796186D01*
X74080344Y-127796174D01*
X74024379Y-127599480D01*
X74024328Y-127599299D01*
X73933088Y-127416065D01*
X73933085Y-127416061D01*
X73933084Y-127416059D01*
X73809740Y-127252724D01*
X73809735Y-127252719D01*
X73809732Y-127252715D01*
X73714834Y-127166204D01*
X73658466Y-127114817D01*
X73658463Y-127114815D01*
X73658462Y-127114814D01*
X73484427Y-127007056D01*
X73484425Y-127007055D01*
X73379781Y-126966516D01*
X73293556Y-126933112D01*
X73293553Y-126933111D01*
X73293552Y-126933111D01*
X73092351Y-126895500D01*
X73092347Y-126895500D01*
X72887653Y-126895500D01*
X72887648Y-126895500D01*
X72686447Y-126933111D01*
X72495574Y-127007055D01*
X72321533Y-127114817D01*
X72170266Y-127252717D01*
X72170259Y-127252724D01*
X72046915Y-127416059D01*
X72046912Y-127416065D01*
X71955672Y-127599298D01*
X71899655Y-127796174D01*
X71899653Y-127796186D01*
X71880768Y-127999995D01*
X71880768Y-128000004D01*
X71559232Y-128000004D01*
X71559232Y-127999995D01*
X71540346Y-127796186D01*
X71540344Y-127796174D01*
X71484379Y-127599480D01*
X71484328Y-127599299D01*
X71393088Y-127416065D01*
X71393085Y-127416061D01*
X71393084Y-127416059D01*
X71269740Y-127252724D01*
X71269735Y-127252719D01*
X71269732Y-127252715D01*
X71174834Y-127166204D01*
X71118466Y-127114817D01*
X71118463Y-127114815D01*
X71118462Y-127114814D01*
X70944427Y-127007056D01*
X70944425Y-127007055D01*
X70839781Y-126966516D01*
X70753556Y-126933112D01*
X70753553Y-126933111D01*
X70753552Y-126933111D01*
X70552351Y-126895500D01*
X70552347Y-126895500D01*
X70347653Y-126895500D01*
X70347648Y-126895500D01*
X70146447Y-126933111D01*
X69955574Y-127007055D01*
X69781533Y-127114817D01*
X69630266Y-127252717D01*
X69630259Y-127252724D01*
X69506915Y-127416059D01*
X69506912Y-127416065D01*
X69415672Y-127599298D01*
X69359655Y-127796174D01*
X69359653Y-127796186D01*
X69340768Y-127999995D01*
X69340768Y-128000004D01*
X69019232Y-128000004D01*
X69019232Y-127999995D01*
X69000346Y-127796186D01*
X69000344Y-127796174D01*
X68944379Y-127599480D01*
X68944328Y-127599299D01*
X68853088Y-127416065D01*
X68853085Y-127416061D01*
X68853084Y-127416059D01*
X68729740Y-127252724D01*
X68729735Y-127252719D01*
X68729732Y-127252715D01*
X68634834Y-127166204D01*
X68578466Y-127114817D01*
X68578463Y-127114815D01*
X68578462Y-127114814D01*
X68404427Y-127007056D01*
X68404425Y-127007055D01*
X68299781Y-126966516D01*
X68213556Y-126933112D01*
X68213553Y-126933111D01*
X68213552Y-126933111D01*
X68012351Y-126895500D01*
X68012347Y-126895500D01*
X67807653Y-126895500D01*
X67807648Y-126895500D01*
X67606447Y-126933111D01*
X67415574Y-127007055D01*
X67241533Y-127114817D01*
X67090266Y-127252717D01*
X67090259Y-127252724D01*
X66966915Y-127416059D01*
X66966912Y-127416065D01*
X66875672Y-127599298D01*
X66819655Y-127796174D01*
X66819653Y-127796186D01*
X66800768Y-127999995D01*
X66800768Y-128000004D01*
X66479232Y-128000004D01*
X66479232Y-127999995D01*
X66460346Y-127796186D01*
X66460344Y-127796174D01*
X66404379Y-127599480D01*
X66404328Y-127599299D01*
X66313088Y-127416065D01*
X66313085Y-127416061D01*
X66313084Y-127416059D01*
X66189740Y-127252724D01*
X66189735Y-127252719D01*
X66189732Y-127252715D01*
X66094834Y-127166204D01*
X66038466Y-127114817D01*
X66038463Y-127114815D01*
X66038462Y-127114814D01*
X65864427Y-127007056D01*
X65864425Y-127007055D01*
X65759781Y-126966516D01*
X65673556Y-126933112D01*
X65673553Y-126933111D01*
X65673552Y-126933111D01*
X65472351Y-126895500D01*
X65472347Y-126895500D01*
X65267653Y-126895500D01*
X65267648Y-126895500D01*
X65066447Y-126933111D01*
X64875574Y-127007055D01*
X64701533Y-127114817D01*
X64550266Y-127252717D01*
X64550259Y-127252724D01*
X64426915Y-127416059D01*
X64426912Y-127416065D01*
X64335672Y-127599298D01*
X64279655Y-127796174D01*
X64279653Y-127796186D01*
X64260768Y-127999995D01*
X64260768Y-128000004D01*
X63939232Y-128000004D01*
X63939232Y-127999995D01*
X63920346Y-127796186D01*
X63920344Y-127796174D01*
X63864379Y-127599480D01*
X63864328Y-127599299D01*
X63773088Y-127416065D01*
X63773085Y-127416061D01*
X63773084Y-127416059D01*
X63649740Y-127252724D01*
X63649735Y-127252719D01*
X63649732Y-127252715D01*
X63554834Y-127166204D01*
X63498466Y-127114817D01*
X63498463Y-127114815D01*
X63498462Y-127114814D01*
X63324427Y-127007056D01*
X63324425Y-127007055D01*
X63219781Y-126966516D01*
X63133556Y-126933112D01*
X63133553Y-126933111D01*
X63133552Y-126933111D01*
X62932351Y-126895500D01*
X62932347Y-126895500D01*
X62727653Y-126895500D01*
X62727648Y-126895500D01*
X62526447Y-126933111D01*
X62335574Y-127007055D01*
X62161533Y-127114817D01*
X62010266Y-127252717D01*
X62010259Y-127252724D01*
X61886915Y-127416059D01*
X61886912Y-127416065D01*
X61795672Y-127599298D01*
X61739655Y-127796174D01*
X61739653Y-127796186D01*
X61720768Y-127999995D01*
X61720768Y-128000004D01*
X61399232Y-128000004D01*
X61399232Y-127999995D01*
X61380346Y-127796186D01*
X61380344Y-127796174D01*
X61324379Y-127599480D01*
X61324328Y-127599299D01*
X61233088Y-127416065D01*
X61233085Y-127416061D01*
X61233084Y-127416059D01*
X61109740Y-127252724D01*
X61109735Y-127252719D01*
X61109732Y-127252715D01*
X61014834Y-127166204D01*
X60958466Y-127114817D01*
X60958463Y-127114815D01*
X60958462Y-127114814D01*
X60784427Y-127007056D01*
X60784425Y-127007055D01*
X60679781Y-126966516D01*
X60593556Y-126933112D01*
X60593553Y-126933111D01*
X60593552Y-126933111D01*
X60392351Y-126895500D01*
X60392347Y-126895500D01*
X60187653Y-126895500D01*
X60187648Y-126895500D01*
X59986447Y-126933111D01*
X59795574Y-127007055D01*
X59621533Y-127114817D01*
X59470266Y-127252717D01*
X59470259Y-127252724D01*
X59346915Y-127416059D01*
X59346912Y-127416065D01*
X59255672Y-127599298D01*
X59199655Y-127796174D01*
X59199653Y-127796186D01*
X59180768Y-127999995D01*
X59180768Y-128000004D01*
X58859232Y-128000004D01*
X58859232Y-127999995D01*
X58840346Y-127796186D01*
X58840344Y-127796174D01*
X58784379Y-127599480D01*
X58784328Y-127599299D01*
X58693088Y-127416065D01*
X58693085Y-127416061D01*
X58693084Y-127416059D01*
X58569740Y-127252724D01*
X58569735Y-127252719D01*
X58569732Y-127252715D01*
X58474834Y-127166204D01*
X58418466Y-127114817D01*
X58418463Y-127114815D01*
X58418462Y-127114814D01*
X58244427Y-127007056D01*
X58244425Y-127007055D01*
X58139781Y-126966516D01*
X58053556Y-126933112D01*
X58053553Y-126933111D01*
X58053552Y-126933111D01*
X57852351Y-126895500D01*
X57852347Y-126895500D01*
X57647653Y-126895500D01*
X57647648Y-126895500D01*
X57446447Y-126933111D01*
X57255574Y-127007055D01*
X57081533Y-127114817D01*
X56930266Y-127252717D01*
X56930259Y-127252724D01*
X56806915Y-127416059D01*
X56806912Y-127416065D01*
X56715672Y-127599298D01*
X56659655Y-127796174D01*
X56659653Y-127796186D01*
X56640768Y-127999995D01*
X56640768Y-128000004D01*
X55710000Y-128000004D01*
X55710000Y-127934174D01*
X55675925Y-127807007D01*
X55643012Y-127750000D01*
X56286687Y-127750000D01*
X56286686Y-127749999D01*
X56243859Y-127599480D01*
X56152660Y-127416329D01*
X56152657Y-127416323D01*
X56029369Y-127253062D01*
X56029362Y-127253055D01*
X55878160Y-127115214D01*
X55704203Y-127007506D01*
X55513413Y-126933594D01*
X55460000Y-126923609D01*
X55460000Y-127566988D01*
X55402993Y-127534075D01*
X55275826Y-127500000D01*
X55144174Y-127500000D01*
X55017007Y-127534075D01*
X54960000Y-127566988D01*
X54960000Y-126923609D01*
X54906586Y-126933594D01*
X54715796Y-127007506D01*
X54541839Y-127115214D01*
X54390637Y-127253055D01*
X54390630Y-127253062D01*
X54267342Y-127416323D01*
X54267339Y-127416329D01*
X54176140Y-127599480D01*
X54133313Y-127749999D01*
X54133313Y-127750000D01*
X54776988Y-127750000D01*
X54744075Y-127807007D01*
X54710000Y-127934174D01*
X54710000Y-128065826D01*
X54744075Y-128192993D01*
X54776988Y-128250000D01*
X54133313Y-128250000D01*
X53747206Y-128250000D01*
X53760345Y-128203821D01*
X53760346Y-128203813D01*
X53779232Y-128000004D01*
X53779232Y-127999995D01*
X53760346Y-127796186D01*
X53760344Y-127796174D01*
X53704379Y-127599480D01*
X53704328Y-127599299D01*
X53613088Y-127416065D01*
X53613085Y-127416061D01*
X53613084Y-127416059D01*
X53489740Y-127252724D01*
X53489735Y-127252719D01*
X53489732Y-127252715D01*
X53394834Y-127166204D01*
X53338466Y-127114817D01*
X53338463Y-127114815D01*
X53338462Y-127114814D01*
X53164427Y-127007056D01*
X53164425Y-127007055D01*
X53059781Y-126966516D01*
X52973556Y-126933112D01*
X52973553Y-126933111D01*
X52973552Y-126933111D01*
X52772351Y-126895500D01*
X52772347Y-126895500D01*
X52567653Y-126895500D01*
X52567648Y-126895500D01*
X52366447Y-126933111D01*
X52175574Y-127007055D01*
X52001533Y-127114817D01*
X51850266Y-127252717D01*
X51850259Y-127252724D01*
X51726915Y-127416059D01*
X51726912Y-127416065D01*
X51635672Y-127599298D01*
X51579655Y-127796174D01*
X51579653Y-127796186D01*
X51560768Y-127999995D01*
X51560768Y-128000004D01*
X51234500Y-128000004D01*
X51234499Y-127124934D01*
X51219734Y-127050699D01*
X51190873Y-127007506D01*
X51163484Y-126966515D01*
X51079302Y-126910266D01*
X51079300Y-126910265D01*
X51005067Y-126895500D01*
X49254935Y-126895500D01*
X49254931Y-126895501D01*
X49180700Y-126910265D01*
X49180696Y-126910267D01*
X49096515Y-126966515D01*
X49040266Y-127050697D01*
X49040265Y-127050699D01*
X49025500Y-127124932D01*
X49025500Y-128875064D01*
X48206500Y-128875064D01*
X48206500Y-125555000D01*
X48224806Y-125510806D01*
X48269000Y-125492500D01*
X74937500Y-125492500D01*
X74981694Y-125510806D01*
G37*
G04 #@! TD.AperFunction*
M02*
