G04 #@! TF.GenerationSoftware,KiCad,Pcbnew,8.0.1*
G04 #@! TF.CreationDate,2024-04-10T03:36:54-04:00*
G04 #@! TF.ProjectId,ieee_pcb_workshop,69656565-5f70-4636-925f-776f726b7368,rev?*
G04 #@! TF.SameCoordinates,Original*
G04 #@! TF.FileFunction,Legend,Top*
G04 #@! TF.FilePolarity,Positive*
%FSLAX46Y46*%
G04 Gerber Fmt 4.6, Leading zero omitted, Abs format (unit mm)*
G04 Created by KiCad (PCBNEW 8.0.1) date 2024-04-10 03:36:54*
%MOMM*%
%LPD*%
G01*
G04 APERTURE LIST*
G04 Aperture macros list*
%AMRoundRect*
0 Rectangle with rounded corners*
0 $1 Rounding radius*
0 $2 $3 $4 $5 $6 $7 $8 $9 X,Y pos of 4 corners*
0 Add a 4 corners polygon primitive as box body*
4,1,4,$2,$3,$4,$5,$6,$7,$8,$9,$2,$3,0*
0 Add four circle primitives for the rounded corners*
1,1,$1+$1,$2,$3*
1,1,$1+$1,$4,$5*
1,1,$1+$1,$6,$7*
1,1,$1+$1,$8,$9*
0 Add four rect primitives between the rounded corners*
20,1,$1+$1,$2,$3,$4,$5,0*
20,1,$1+$1,$4,$5,$6,$7,0*
20,1,$1+$1,$6,$7,$8,$9,0*
20,1,$1+$1,$8,$9,$2,$3,0*%
%AMFreePoly0*
4,1,6,1.000000,0.000000,0.500000,-0.750000,-0.500000,-0.750000,-0.500000,0.750000,0.500000,0.750000,1.000000,0.000000,1.000000,0.000000,$1*%
%AMFreePoly1*
4,1,6,0.500000,-0.750000,-0.650000,-0.750000,-0.150000,0.000000,-0.650000,0.750000,0.500000,0.750000,0.500000,-0.750000,0.500000,-0.750000,$1*%
G04 Aperture macros list end*
%ADD10C,0.150000*%
%ADD11C,0.375000*%
%ADD12C,0.120000*%
%ADD13C,0.000000*%
%ADD14R,1.600000X0.850000*%
%ADD15RoundRect,0.250000X-0.325000X-0.450000X0.325000X-0.450000X0.325000X0.450000X-0.325000X0.450000X0*%
%ADD16RoundRect,0.250000X-0.475000X0.337500X-0.475000X-0.337500X0.475000X-0.337500X0.475000X0.337500X0*%
%ADD17R,1.700000X1.700000*%
%ADD18O,1.700000X1.700000*%
%ADD19FreePoly0,0.000000*%
%ADD20FreePoly1,0.000000*%
%ADD21R,2.000000X2.400000*%
%ADD22RoundRect,0.250000X0.337500X0.475000X-0.337500X0.475000X-0.337500X-0.475000X0.337500X-0.475000X0*%
%ADD23RoundRect,0.250000X-0.350000X-0.450000X0.350000X-0.450000X0.350000X0.450000X-0.350000X0.450000X0*%
%ADD24R,1.400000X0.400000*%
%ADD25O,1.900000X1.050000*%
%ADD26R,1.450000X1.150000*%
%ADD27R,1.900000X1.750000*%
%ADD28RoundRect,0.250000X1.250000X0.550000X-1.250000X0.550000X-1.250000X-0.550000X1.250000X-0.550000X0*%
%ADD29RoundRect,0.250000X0.450000X-0.350000X0.450000X0.350000X-0.450000X0.350000X-0.450000X-0.350000X0*%
%ADD30RoundRect,0.250000X0.350000X0.450000X-0.350000X0.450000X-0.350000X-0.450000X0.350000X-0.450000X0*%
%ADD31R,1.500000X0.550000*%
%ADD32R,0.550000X1.500000*%
G04 APERTURE END LIST*
D10*
X123167731Y-163744295D02*
X123167731Y-164315723D01*
X123167731Y-164315723D02*
X123129636Y-164430009D01*
X123129636Y-164430009D02*
X123053445Y-164506200D01*
X123053445Y-164506200D02*
X122939160Y-164544295D01*
X122939160Y-164544295D02*
X122862969Y-164544295D01*
X123929636Y-164544295D02*
X123548684Y-164544295D01*
X123548684Y-164544295D02*
X123548684Y-163744295D01*
X124653446Y-164468104D02*
X124615350Y-164506200D01*
X124615350Y-164506200D02*
X124501065Y-164544295D01*
X124501065Y-164544295D02*
X124424874Y-164544295D01*
X124424874Y-164544295D02*
X124310588Y-164506200D01*
X124310588Y-164506200D02*
X124234398Y-164430009D01*
X124234398Y-164430009D02*
X124196303Y-164353819D01*
X124196303Y-164353819D02*
X124158207Y-164201438D01*
X124158207Y-164201438D02*
X124158207Y-164087152D01*
X124158207Y-164087152D02*
X124196303Y-163934771D01*
X124196303Y-163934771D02*
X124234398Y-163858580D01*
X124234398Y-163858580D02*
X124310588Y-163782390D01*
X124310588Y-163782390D02*
X124424874Y-163744295D01*
X124424874Y-163744295D02*
X124501065Y-163744295D01*
X124501065Y-163744295D02*
X124615350Y-163782390D01*
X124615350Y-163782390D02*
X124653446Y-163820485D01*
X125224874Y-163744295D02*
X125224874Y-164315723D01*
X125224874Y-164315723D02*
X125186779Y-164430009D01*
X125186779Y-164430009D02*
X125110588Y-164506200D01*
X125110588Y-164506200D02*
X124996303Y-164544295D01*
X124996303Y-164544295D02*
X124920112Y-164544295D01*
X125986779Y-164544295D02*
X125605827Y-164544295D01*
X125605827Y-164544295D02*
X125605827Y-163744295D01*
X126710589Y-164468104D02*
X126672493Y-164506200D01*
X126672493Y-164506200D02*
X126558208Y-164544295D01*
X126558208Y-164544295D02*
X126482017Y-164544295D01*
X126482017Y-164544295D02*
X126367731Y-164506200D01*
X126367731Y-164506200D02*
X126291541Y-164430009D01*
X126291541Y-164430009D02*
X126253446Y-164353819D01*
X126253446Y-164353819D02*
X126215350Y-164201438D01*
X126215350Y-164201438D02*
X126215350Y-164087152D01*
X126215350Y-164087152D02*
X126253446Y-163934771D01*
X126253446Y-163934771D02*
X126291541Y-163858580D01*
X126291541Y-163858580D02*
X126367731Y-163782390D01*
X126367731Y-163782390D02*
X126482017Y-163744295D01*
X126482017Y-163744295D02*
X126558208Y-163744295D01*
X126558208Y-163744295D02*
X126672493Y-163782390D01*
X126672493Y-163782390D02*
X126710589Y-163820485D01*
X127282017Y-163744295D02*
X127282017Y-164315723D01*
X127282017Y-164315723D02*
X127243922Y-164430009D01*
X127243922Y-164430009D02*
X127167731Y-164506200D01*
X127167731Y-164506200D02*
X127053446Y-164544295D01*
X127053446Y-164544295D02*
X126977255Y-164544295D01*
X128043922Y-164544295D02*
X127662970Y-164544295D01*
X127662970Y-164544295D02*
X127662970Y-163744295D01*
X128767732Y-164468104D02*
X128729636Y-164506200D01*
X128729636Y-164506200D02*
X128615351Y-164544295D01*
X128615351Y-164544295D02*
X128539160Y-164544295D01*
X128539160Y-164544295D02*
X128424874Y-164506200D01*
X128424874Y-164506200D02*
X128348684Y-164430009D01*
X128348684Y-164430009D02*
X128310589Y-164353819D01*
X128310589Y-164353819D02*
X128272493Y-164201438D01*
X128272493Y-164201438D02*
X128272493Y-164087152D01*
X128272493Y-164087152D02*
X128310589Y-163934771D01*
X128310589Y-163934771D02*
X128348684Y-163858580D01*
X128348684Y-163858580D02*
X128424874Y-163782390D01*
X128424874Y-163782390D02*
X128539160Y-163744295D01*
X128539160Y-163744295D02*
X128615351Y-163744295D01*
X128615351Y-163744295D02*
X128729636Y-163782390D01*
X128729636Y-163782390D02*
X128767732Y-163820485D01*
X129339160Y-163744295D02*
X129339160Y-164315723D01*
X129339160Y-164315723D02*
X129301065Y-164430009D01*
X129301065Y-164430009D02*
X129224874Y-164506200D01*
X129224874Y-164506200D02*
X129110589Y-164544295D01*
X129110589Y-164544295D02*
X129034398Y-164544295D01*
X130101065Y-164544295D02*
X129720113Y-164544295D01*
X129720113Y-164544295D02*
X129720113Y-163744295D01*
X130824875Y-164468104D02*
X130786779Y-164506200D01*
X130786779Y-164506200D02*
X130672494Y-164544295D01*
X130672494Y-164544295D02*
X130596303Y-164544295D01*
X130596303Y-164544295D02*
X130482017Y-164506200D01*
X130482017Y-164506200D02*
X130405827Y-164430009D01*
X130405827Y-164430009D02*
X130367732Y-164353819D01*
X130367732Y-164353819D02*
X130329636Y-164201438D01*
X130329636Y-164201438D02*
X130329636Y-164087152D01*
X130329636Y-164087152D02*
X130367732Y-163934771D01*
X130367732Y-163934771D02*
X130405827Y-163858580D01*
X130405827Y-163858580D02*
X130482017Y-163782390D01*
X130482017Y-163782390D02*
X130596303Y-163744295D01*
X130596303Y-163744295D02*
X130672494Y-163744295D01*
X130672494Y-163744295D02*
X130786779Y-163782390D01*
X130786779Y-163782390D02*
X130824875Y-163820485D01*
D11*
X60053852Y-151904071D02*
X60125281Y-151975500D01*
X60125281Y-151975500D02*
X60053852Y-152046928D01*
X60053852Y-152046928D02*
X59982424Y-151975500D01*
X59982424Y-151975500D02*
X60053852Y-151904071D01*
X60053852Y-151904071D02*
X60053852Y-152046928D01*
D10*
X67941541Y-164617771D02*
X67855826Y-164574914D01*
X67855826Y-164574914D02*
X67812969Y-164532057D01*
X67812969Y-164532057D02*
X67770112Y-164446342D01*
X67770112Y-164446342D02*
X67770112Y-164403485D01*
X67770112Y-164403485D02*
X67812969Y-164317771D01*
X67812969Y-164317771D02*
X67855826Y-164274914D01*
X67855826Y-164274914D02*
X67941541Y-164232057D01*
X67941541Y-164232057D02*
X68112969Y-164232057D01*
X68112969Y-164232057D02*
X68198684Y-164274914D01*
X68198684Y-164274914D02*
X68241541Y-164317771D01*
X68241541Y-164317771D02*
X68284398Y-164403485D01*
X68284398Y-164403485D02*
X68284398Y-164446342D01*
X68284398Y-164446342D02*
X68241541Y-164532057D01*
X68241541Y-164532057D02*
X68198684Y-164574914D01*
X68198684Y-164574914D02*
X68112969Y-164617771D01*
X68112969Y-164617771D02*
X67941541Y-164617771D01*
X67941541Y-164617771D02*
X67855826Y-164660628D01*
X67855826Y-164660628D02*
X67812969Y-164703485D01*
X67812969Y-164703485D02*
X67770112Y-164789200D01*
X67770112Y-164789200D02*
X67770112Y-164960628D01*
X67770112Y-164960628D02*
X67812969Y-165046342D01*
X67812969Y-165046342D02*
X67855826Y-165089200D01*
X67855826Y-165089200D02*
X67941541Y-165132057D01*
X67941541Y-165132057D02*
X68112969Y-165132057D01*
X68112969Y-165132057D02*
X68198684Y-165089200D01*
X68198684Y-165089200D02*
X68241541Y-165046342D01*
X68241541Y-165046342D02*
X68284398Y-164960628D01*
X68284398Y-164960628D02*
X68284398Y-164789200D01*
X68284398Y-164789200D02*
X68241541Y-164703485D01*
X68241541Y-164703485D02*
X68198684Y-164660628D01*
X68198684Y-164660628D02*
X68112969Y-164617771D01*
X58184398Y-165132057D02*
X57670112Y-165132057D01*
X57927255Y-165132057D02*
X57927255Y-164232057D01*
X57927255Y-164232057D02*
X57841541Y-164360628D01*
X57841541Y-164360628D02*
X57755826Y-164446342D01*
X57755826Y-164446342D02*
X57670112Y-164489200D01*
X72934398Y-126482057D02*
X72420112Y-126482057D01*
X72677255Y-126482057D02*
X72677255Y-125582057D01*
X72677255Y-125582057D02*
X72591541Y-125710628D01*
X72591541Y-125710628D02*
X72505826Y-125796342D01*
X72505826Y-125796342D02*
X72420112Y-125839200D01*
X73234398Y-125582057D02*
X73791541Y-125582057D01*
X73791541Y-125582057D02*
X73491541Y-125924914D01*
X73491541Y-125924914D02*
X73620112Y-125924914D01*
X73620112Y-125924914D02*
X73705827Y-125967771D01*
X73705827Y-125967771D02*
X73748684Y-126010628D01*
X73748684Y-126010628D02*
X73791541Y-126096342D01*
X73791541Y-126096342D02*
X73791541Y-126310628D01*
X73791541Y-126310628D02*
X73748684Y-126396342D01*
X73748684Y-126396342D02*
X73705827Y-126439200D01*
X73705827Y-126439200D02*
X73620112Y-126482057D01*
X73620112Y-126482057D02*
X73362969Y-126482057D01*
X73362969Y-126482057D02*
X73277255Y-126439200D01*
X73277255Y-126439200D02*
X73234398Y-126396342D01*
X50236779Y-155769819D02*
X50236779Y-154769819D01*
X51284397Y-155674580D02*
X51236778Y-155722200D01*
X51236778Y-155722200D02*
X51093921Y-155769819D01*
X51093921Y-155769819D02*
X50998683Y-155769819D01*
X50998683Y-155769819D02*
X50855826Y-155722200D01*
X50855826Y-155722200D02*
X50760588Y-155626961D01*
X50760588Y-155626961D02*
X50712969Y-155531723D01*
X50712969Y-155531723D02*
X50665350Y-155341247D01*
X50665350Y-155341247D02*
X50665350Y-155198390D01*
X50665350Y-155198390D02*
X50712969Y-155007914D01*
X50712969Y-155007914D02*
X50760588Y-154912676D01*
X50760588Y-154912676D02*
X50855826Y-154817438D01*
X50855826Y-154817438D02*
X50998683Y-154769819D01*
X50998683Y-154769819D02*
X51093921Y-154769819D01*
X51093921Y-154769819D02*
X51236778Y-154817438D01*
X51236778Y-154817438D02*
X51284397Y-154865057D01*
X51665350Y-155722200D02*
X51808207Y-155769819D01*
X51808207Y-155769819D02*
X52046302Y-155769819D01*
X52046302Y-155769819D02*
X52141540Y-155722200D01*
X52141540Y-155722200D02*
X52189159Y-155674580D01*
X52189159Y-155674580D02*
X52236778Y-155579342D01*
X52236778Y-155579342D02*
X52236778Y-155484104D01*
X52236778Y-155484104D02*
X52189159Y-155388866D01*
X52189159Y-155388866D02*
X52141540Y-155341247D01*
X52141540Y-155341247D02*
X52046302Y-155293628D01*
X52046302Y-155293628D02*
X51855826Y-155246009D01*
X51855826Y-155246009D02*
X51760588Y-155198390D01*
X51760588Y-155198390D02*
X51712969Y-155150771D01*
X51712969Y-155150771D02*
X51665350Y-155055533D01*
X51665350Y-155055533D02*
X51665350Y-154960295D01*
X51665350Y-154960295D02*
X51712969Y-154865057D01*
X51712969Y-154865057D02*
X51760588Y-154817438D01*
X51760588Y-154817438D02*
X51855826Y-154769819D01*
X51855826Y-154769819D02*
X52093921Y-154769819D01*
X52093921Y-154769819D02*
X52236778Y-154817438D01*
X52665350Y-155769819D02*
X52665350Y-154769819D01*
X52665350Y-154769819D02*
X53046302Y-154769819D01*
X53046302Y-154769819D02*
X53141540Y-154817438D01*
X53141540Y-154817438D02*
X53189159Y-154865057D01*
X53189159Y-154865057D02*
X53236778Y-154960295D01*
X53236778Y-154960295D02*
X53236778Y-155103152D01*
X53236778Y-155103152D02*
X53189159Y-155198390D01*
X53189159Y-155198390D02*
X53141540Y-155246009D01*
X53141540Y-155246009D02*
X53046302Y-155293628D01*
X53046302Y-155293628D02*
X52665350Y-155293628D01*
X62270112Y-126224914D02*
X62698684Y-126224914D01*
X62184398Y-126482057D02*
X62484398Y-125582057D01*
X62484398Y-125582057D02*
X62784398Y-126482057D01*
X62998684Y-125582057D02*
X63555827Y-125582057D01*
X63555827Y-125582057D02*
X63255827Y-125924914D01*
X63255827Y-125924914D02*
X63384398Y-125924914D01*
X63384398Y-125924914D02*
X63470113Y-125967771D01*
X63470113Y-125967771D02*
X63512970Y-126010628D01*
X63512970Y-126010628D02*
X63555827Y-126096342D01*
X63555827Y-126096342D02*
X63555827Y-126310628D01*
X63555827Y-126310628D02*
X63512970Y-126396342D01*
X63512970Y-126396342D02*
X63470113Y-126439200D01*
X63470113Y-126439200D02*
X63384398Y-126482057D01*
X63384398Y-126482057D02*
X63127255Y-126482057D01*
X63127255Y-126482057D02*
X63041541Y-126439200D01*
X63041541Y-126439200D02*
X62998684Y-126396342D01*
X64870112Y-126224914D02*
X65298684Y-126224914D01*
X64784398Y-126482057D02*
X65084398Y-125582057D01*
X65084398Y-125582057D02*
X65384398Y-126482057D01*
X65641541Y-125667771D02*
X65684398Y-125624914D01*
X65684398Y-125624914D02*
X65770113Y-125582057D01*
X65770113Y-125582057D02*
X65984398Y-125582057D01*
X65984398Y-125582057D02*
X66070113Y-125624914D01*
X66070113Y-125624914D02*
X66112970Y-125667771D01*
X66112970Y-125667771D02*
X66155827Y-125753485D01*
X66155827Y-125753485D02*
X66155827Y-125839200D01*
X66155827Y-125839200D02*
X66112970Y-125967771D01*
X66112970Y-125967771D02*
X65598684Y-126482057D01*
X65598684Y-126482057D02*
X66155827Y-126482057D01*
X70355826Y-165132057D02*
X70527255Y-165132057D01*
X70527255Y-165132057D02*
X70612969Y-165089200D01*
X70612969Y-165089200D02*
X70655826Y-165046342D01*
X70655826Y-165046342D02*
X70741541Y-164917771D01*
X70741541Y-164917771D02*
X70784398Y-164746342D01*
X70784398Y-164746342D02*
X70784398Y-164403485D01*
X70784398Y-164403485D02*
X70741541Y-164317771D01*
X70741541Y-164317771D02*
X70698684Y-164274914D01*
X70698684Y-164274914D02*
X70612969Y-164232057D01*
X70612969Y-164232057D02*
X70441541Y-164232057D01*
X70441541Y-164232057D02*
X70355826Y-164274914D01*
X70355826Y-164274914D02*
X70312969Y-164317771D01*
X70312969Y-164317771D02*
X70270112Y-164403485D01*
X70270112Y-164403485D02*
X70270112Y-164617771D01*
X70270112Y-164617771D02*
X70312969Y-164703485D01*
X70312969Y-164703485D02*
X70355826Y-164746342D01*
X70355826Y-164746342D02*
X70441541Y-164789200D01*
X70441541Y-164789200D02*
X70612969Y-164789200D01*
X70612969Y-164789200D02*
X70698684Y-164746342D01*
X70698684Y-164746342D02*
X70741541Y-164703485D01*
X70741541Y-164703485D02*
X70784398Y-164617771D01*
X57220112Y-126224914D02*
X57648684Y-126224914D01*
X57134398Y-126482057D02*
X57434398Y-125582057D01*
X57434398Y-125582057D02*
X57734398Y-126482057D01*
X58462970Y-125582057D02*
X58034398Y-125582057D01*
X58034398Y-125582057D02*
X57991541Y-126010628D01*
X57991541Y-126010628D02*
X58034398Y-125967771D01*
X58034398Y-125967771D02*
X58120113Y-125924914D01*
X58120113Y-125924914D02*
X58334398Y-125924914D01*
X58334398Y-125924914D02*
X58420113Y-125967771D01*
X58420113Y-125967771D02*
X58462970Y-126010628D01*
X58462970Y-126010628D02*
X58505827Y-126096342D01*
X58505827Y-126096342D02*
X58505827Y-126310628D01*
X58505827Y-126310628D02*
X58462970Y-126396342D01*
X58462970Y-126396342D02*
X58420113Y-126439200D01*
X58420113Y-126439200D02*
X58334398Y-126482057D01*
X58334398Y-126482057D02*
X58120113Y-126482057D01*
X58120113Y-126482057D02*
X58034398Y-126439200D01*
X58034398Y-126439200D02*
X57991541Y-126396342D01*
X52170112Y-126224914D02*
X52598684Y-126224914D01*
X52084398Y-126482057D02*
X52384398Y-125582057D01*
X52384398Y-125582057D02*
X52684398Y-126482057D01*
X53498684Y-126482057D02*
X53198684Y-126053485D01*
X52984398Y-126482057D02*
X52984398Y-125582057D01*
X52984398Y-125582057D02*
X53327255Y-125582057D01*
X53327255Y-125582057D02*
X53412970Y-125624914D01*
X53412970Y-125624914D02*
X53455827Y-125667771D01*
X53455827Y-125667771D02*
X53498684Y-125753485D01*
X53498684Y-125753485D02*
X53498684Y-125882057D01*
X53498684Y-125882057D02*
X53455827Y-125967771D01*
X53455827Y-125967771D02*
X53412970Y-126010628D01*
X53412970Y-126010628D02*
X53327255Y-126053485D01*
X53327255Y-126053485D02*
X52984398Y-126053485D01*
X52427255Y-164232057D02*
X52984398Y-164232057D01*
X52984398Y-164232057D02*
X52684398Y-164574914D01*
X52684398Y-164574914D02*
X52812969Y-164574914D01*
X52812969Y-164574914D02*
X52898684Y-164617771D01*
X52898684Y-164617771D02*
X52941541Y-164660628D01*
X52941541Y-164660628D02*
X52984398Y-164746342D01*
X52984398Y-164746342D02*
X52984398Y-164960628D01*
X52984398Y-164960628D02*
X52941541Y-165046342D01*
X52941541Y-165046342D02*
X52898684Y-165089200D01*
X52898684Y-165089200D02*
X52812969Y-165132057D01*
X52812969Y-165132057D02*
X52555826Y-165132057D01*
X52555826Y-165132057D02*
X52470112Y-165089200D01*
X52470112Y-165089200D02*
X52427255Y-165046342D01*
X65598684Y-164532057D02*
X65598684Y-165132057D01*
X65384398Y-164189200D02*
X65170112Y-164832057D01*
X65170112Y-164832057D02*
X65727255Y-164832057D01*
X49941541Y-125582057D02*
X49512969Y-125582057D01*
X49512969Y-125582057D02*
X49470112Y-126010628D01*
X49470112Y-126010628D02*
X49512969Y-125967771D01*
X49512969Y-125967771D02*
X49598684Y-125924914D01*
X49598684Y-125924914D02*
X49812969Y-125924914D01*
X49812969Y-125924914D02*
X49898684Y-125967771D01*
X49898684Y-125967771D02*
X49941541Y-126010628D01*
X49941541Y-126010628D02*
X49984398Y-126096342D01*
X49984398Y-126096342D02*
X49984398Y-126310628D01*
X49984398Y-126310628D02*
X49941541Y-126396342D01*
X49941541Y-126396342D02*
X49898684Y-126439200D01*
X49898684Y-126439200D02*
X49812969Y-126482057D01*
X49812969Y-126482057D02*
X49598684Y-126482057D01*
X49598684Y-126482057D02*
X49512969Y-126439200D01*
X49512969Y-126439200D02*
X49470112Y-126396342D01*
X50241541Y-125582057D02*
X50541541Y-126482057D01*
X50541541Y-126482057D02*
X50841541Y-125582057D01*
X69970112Y-126224914D02*
X70398684Y-126224914D01*
X69884398Y-126482057D02*
X70184398Y-125582057D01*
X70184398Y-125582057D02*
X70484398Y-126482057D01*
X70955827Y-125582057D02*
X71041541Y-125582057D01*
X71041541Y-125582057D02*
X71127255Y-125624914D01*
X71127255Y-125624914D02*
X71170113Y-125667771D01*
X71170113Y-125667771D02*
X71212970Y-125753485D01*
X71212970Y-125753485D02*
X71255827Y-125924914D01*
X71255827Y-125924914D02*
X71255827Y-126139200D01*
X71255827Y-126139200D02*
X71212970Y-126310628D01*
X71212970Y-126310628D02*
X71170113Y-126396342D01*
X71170113Y-126396342D02*
X71127255Y-126439200D01*
X71127255Y-126439200D02*
X71041541Y-126482057D01*
X71041541Y-126482057D02*
X70955827Y-126482057D01*
X70955827Y-126482057D02*
X70870113Y-126439200D01*
X70870113Y-126439200D02*
X70827255Y-126396342D01*
X70827255Y-126396342D02*
X70784398Y-126310628D01*
X70784398Y-126310628D02*
X70741541Y-126139200D01*
X70741541Y-126139200D02*
X70741541Y-125924914D01*
X70741541Y-125924914D02*
X70784398Y-125753485D01*
X70784398Y-125753485D02*
X70827255Y-125667771D01*
X70827255Y-125667771D02*
X70870113Y-125624914D01*
X70870113Y-125624914D02*
X70955827Y-125582057D01*
X55534398Y-125624914D02*
X55448684Y-125582057D01*
X55448684Y-125582057D02*
X55320112Y-125582057D01*
X55320112Y-125582057D02*
X55191541Y-125624914D01*
X55191541Y-125624914D02*
X55105826Y-125710628D01*
X55105826Y-125710628D02*
X55062969Y-125796342D01*
X55062969Y-125796342D02*
X55020112Y-125967771D01*
X55020112Y-125967771D02*
X55020112Y-126096342D01*
X55020112Y-126096342D02*
X55062969Y-126267771D01*
X55062969Y-126267771D02*
X55105826Y-126353485D01*
X55105826Y-126353485D02*
X55191541Y-126439200D01*
X55191541Y-126439200D02*
X55320112Y-126482057D01*
X55320112Y-126482057D02*
X55405826Y-126482057D01*
X55405826Y-126482057D02*
X55534398Y-126439200D01*
X55534398Y-126439200D02*
X55577255Y-126396342D01*
X55577255Y-126396342D02*
X55577255Y-126096342D01*
X55577255Y-126096342D02*
X55405826Y-126096342D01*
X59720112Y-126224914D02*
X60148684Y-126224914D01*
X59634398Y-126482057D02*
X59934398Y-125582057D01*
X59934398Y-125582057D02*
X60234398Y-126482057D01*
X60920113Y-125882057D02*
X60920113Y-126482057D01*
X60705827Y-125539200D02*
X60491541Y-126182057D01*
X60491541Y-126182057D02*
X61048684Y-126182057D01*
X67470112Y-126224914D02*
X67898684Y-126224914D01*
X67384398Y-126482057D02*
X67684398Y-125582057D01*
X67684398Y-125582057D02*
X67984398Y-126482057D01*
X68755827Y-126482057D02*
X68241541Y-126482057D01*
X68498684Y-126482057D02*
X68498684Y-125582057D01*
X68498684Y-125582057D02*
X68412970Y-125710628D01*
X68412970Y-125710628D02*
X68327255Y-125796342D01*
X68327255Y-125796342D02*
X68241541Y-125839200D01*
X50384398Y-164274914D02*
X50298684Y-164232057D01*
X50298684Y-164232057D02*
X50170112Y-164232057D01*
X50170112Y-164232057D02*
X50041541Y-164274914D01*
X50041541Y-164274914D02*
X49955826Y-164360628D01*
X49955826Y-164360628D02*
X49912969Y-164446342D01*
X49912969Y-164446342D02*
X49870112Y-164617771D01*
X49870112Y-164617771D02*
X49870112Y-164746342D01*
X49870112Y-164746342D02*
X49912969Y-164917771D01*
X49912969Y-164917771D02*
X49955826Y-165003485D01*
X49955826Y-165003485D02*
X50041541Y-165089200D01*
X50041541Y-165089200D02*
X50170112Y-165132057D01*
X50170112Y-165132057D02*
X50255826Y-165132057D01*
X50255826Y-165132057D02*
X50384398Y-165089200D01*
X50384398Y-165089200D02*
X50427255Y-165046342D01*
X50427255Y-165046342D02*
X50427255Y-164746342D01*
X50427255Y-164746342D02*
X50255826Y-164746342D01*
X72984398Y-165132057D02*
X72470112Y-165132057D01*
X72727255Y-165132057D02*
X72727255Y-164232057D01*
X72727255Y-164232057D02*
X72641541Y-164360628D01*
X72641541Y-164360628D02*
X72555826Y-164446342D01*
X72555826Y-164446342D02*
X72470112Y-164489200D01*
X73541541Y-164232057D02*
X73627255Y-164232057D01*
X73627255Y-164232057D02*
X73712969Y-164274914D01*
X73712969Y-164274914D02*
X73755827Y-164317771D01*
X73755827Y-164317771D02*
X73798684Y-164403485D01*
X73798684Y-164403485D02*
X73841541Y-164574914D01*
X73841541Y-164574914D02*
X73841541Y-164789200D01*
X73841541Y-164789200D02*
X73798684Y-164960628D01*
X73798684Y-164960628D02*
X73755827Y-165046342D01*
X73755827Y-165046342D02*
X73712969Y-165089200D01*
X73712969Y-165089200D02*
X73627255Y-165132057D01*
X73627255Y-165132057D02*
X73541541Y-165132057D01*
X73541541Y-165132057D02*
X73455827Y-165089200D01*
X73455827Y-165089200D02*
X73412969Y-165046342D01*
X73412969Y-165046342D02*
X73370112Y-164960628D01*
X73370112Y-164960628D02*
X73327255Y-164789200D01*
X73327255Y-164789200D02*
X73327255Y-164574914D01*
X73327255Y-164574914D02*
X73370112Y-164403485D01*
X73370112Y-164403485D02*
X73412969Y-164317771D01*
X73412969Y-164317771D02*
X73455827Y-164274914D01*
X73455827Y-164274914D02*
X73541541Y-164232057D01*
X49008207Y-151369819D02*
X48674874Y-150893628D01*
X48436779Y-151369819D02*
X48436779Y-150369819D01*
X48436779Y-150369819D02*
X48817731Y-150369819D01*
X48817731Y-150369819D02*
X48912969Y-150417438D01*
X48912969Y-150417438D02*
X48960588Y-150465057D01*
X48960588Y-150465057D02*
X49008207Y-150560295D01*
X49008207Y-150560295D02*
X49008207Y-150703152D01*
X49008207Y-150703152D02*
X48960588Y-150798390D01*
X48960588Y-150798390D02*
X48912969Y-150846009D01*
X48912969Y-150846009D02*
X48817731Y-150893628D01*
X48817731Y-150893628D02*
X48436779Y-150893628D01*
X49341541Y-150369819D02*
X50008207Y-151369819D01*
X50008207Y-150369819D02*
X49341541Y-151369819D01*
X48493922Y-147469819D02*
X49065350Y-147469819D01*
X48779636Y-148469819D02*
X48779636Y-147469819D01*
X49303446Y-147469819D02*
X49970112Y-148469819D01*
X49970112Y-147469819D02*
X49303446Y-148469819D01*
X60384398Y-164232057D02*
X60470112Y-164232057D01*
X60470112Y-164232057D02*
X60555826Y-164274914D01*
X60555826Y-164274914D02*
X60598684Y-164317771D01*
X60598684Y-164317771D02*
X60641541Y-164403485D01*
X60641541Y-164403485D02*
X60684398Y-164574914D01*
X60684398Y-164574914D02*
X60684398Y-164789200D01*
X60684398Y-164789200D02*
X60641541Y-164960628D01*
X60641541Y-164960628D02*
X60598684Y-165046342D01*
X60598684Y-165046342D02*
X60555826Y-165089200D01*
X60555826Y-165089200D02*
X60470112Y-165132057D01*
X60470112Y-165132057D02*
X60384398Y-165132057D01*
X60384398Y-165132057D02*
X60298684Y-165089200D01*
X60298684Y-165089200D02*
X60255826Y-165046342D01*
X60255826Y-165046342D02*
X60212969Y-164960628D01*
X60212969Y-164960628D02*
X60170112Y-164789200D01*
X60170112Y-164789200D02*
X60170112Y-164574914D01*
X60170112Y-164574914D02*
X60212969Y-164403485D01*
X60212969Y-164403485D02*
X60255826Y-164317771D01*
X60255826Y-164317771D02*
X60298684Y-164274914D01*
X60298684Y-164274914D02*
X60384398Y-164232057D01*
X55070112Y-164317771D02*
X55112969Y-164274914D01*
X55112969Y-164274914D02*
X55198684Y-164232057D01*
X55198684Y-164232057D02*
X55412969Y-164232057D01*
X55412969Y-164232057D02*
X55498684Y-164274914D01*
X55498684Y-164274914D02*
X55541541Y-164317771D01*
X55541541Y-164317771D02*
X55584398Y-164403485D01*
X55584398Y-164403485D02*
X55584398Y-164489200D01*
X55584398Y-164489200D02*
X55541541Y-164617771D01*
X55541541Y-164617771D02*
X55027255Y-165132057D01*
X55027255Y-165132057D02*
X55584398Y-165132057D01*
X62834398Y-165132057D02*
X62320112Y-165132057D01*
X62577255Y-165132057D02*
X62577255Y-164232057D01*
X62577255Y-164232057D02*
X62491541Y-164360628D01*
X62491541Y-164360628D02*
X62405826Y-164446342D01*
X62405826Y-164446342D02*
X62320112Y-164489200D01*
X63691541Y-165132057D02*
X63177255Y-165132057D01*
X63434398Y-165132057D02*
X63434398Y-164232057D01*
X63434398Y-164232057D02*
X63348684Y-164360628D01*
X63348684Y-164360628D02*
X63262969Y-164446342D01*
X63262969Y-164446342D02*
X63177255Y-164489200D01*
X144285714Y-143329819D02*
X144285714Y-142329819D01*
X144285714Y-142329819D02*
X144523809Y-142329819D01*
X144523809Y-142329819D02*
X144666666Y-142377438D01*
X144666666Y-142377438D02*
X144761904Y-142472676D01*
X144761904Y-142472676D02*
X144809523Y-142567914D01*
X144809523Y-142567914D02*
X144857142Y-142758390D01*
X144857142Y-142758390D02*
X144857142Y-142901247D01*
X144857142Y-142901247D02*
X144809523Y-143091723D01*
X144809523Y-143091723D02*
X144761904Y-143186961D01*
X144761904Y-143186961D02*
X144666666Y-143282200D01*
X144666666Y-143282200D02*
X144523809Y-143329819D01*
X144523809Y-143329819D02*
X144285714Y-143329819D01*
X145238095Y-142425057D02*
X145285714Y-142377438D01*
X145285714Y-142377438D02*
X145380952Y-142329819D01*
X145380952Y-142329819D02*
X145619047Y-142329819D01*
X145619047Y-142329819D02*
X145714285Y-142377438D01*
X145714285Y-142377438D02*
X145761904Y-142425057D01*
X145761904Y-142425057D02*
X145809523Y-142520295D01*
X145809523Y-142520295D02*
X145809523Y-142615533D01*
X145809523Y-142615533D02*
X145761904Y-142758390D01*
X145761904Y-142758390D02*
X145190476Y-143329819D01*
X145190476Y-143329819D02*
X145809523Y-143329819D01*
X146380952Y-142758390D02*
X146285714Y-142710771D01*
X146285714Y-142710771D02*
X146238095Y-142663152D01*
X146238095Y-142663152D02*
X146190476Y-142567914D01*
X146190476Y-142567914D02*
X146190476Y-142520295D01*
X146190476Y-142520295D02*
X146238095Y-142425057D01*
X146238095Y-142425057D02*
X146285714Y-142377438D01*
X146285714Y-142377438D02*
X146380952Y-142329819D01*
X146380952Y-142329819D02*
X146571428Y-142329819D01*
X146571428Y-142329819D02*
X146666666Y-142377438D01*
X146666666Y-142377438D02*
X146714285Y-142425057D01*
X146714285Y-142425057D02*
X146761904Y-142520295D01*
X146761904Y-142520295D02*
X146761904Y-142567914D01*
X146761904Y-142567914D02*
X146714285Y-142663152D01*
X146714285Y-142663152D02*
X146666666Y-142710771D01*
X146666666Y-142710771D02*
X146571428Y-142758390D01*
X146571428Y-142758390D02*
X146380952Y-142758390D01*
X146380952Y-142758390D02*
X146285714Y-142806009D01*
X146285714Y-142806009D02*
X146238095Y-142853628D01*
X146238095Y-142853628D02*
X146190476Y-142948866D01*
X146190476Y-142948866D02*
X146190476Y-143139342D01*
X146190476Y-143139342D02*
X146238095Y-143234580D01*
X146238095Y-143234580D02*
X146285714Y-143282200D01*
X146285714Y-143282200D02*
X146380952Y-143329819D01*
X146380952Y-143329819D02*
X146571428Y-143329819D01*
X146571428Y-143329819D02*
X146666666Y-143282200D01*
X146666666Y-143282200D02*
X146714285Y-143234580D01*
X146714285Y-143234580D02*
X146761904Y-143139342D01*
X146761904Y-143139342D02*
X146761904Y-142948866D01*
X146761904Y-142948866D02*
X146714285Y-142853628D01*
X146714285Y-142853628D02*
X146666666Y-142806009D01*
X146666666Y-142806009D02*
X146571428Y-142758390D01*
X51361905Y-149854819D02*
X51361905Y-148854819D01*
X51361905Y-148854819D02*
X51600000Y-148854819D01*
X51600000Y-148854819D02*
X51742857Y-148902438D01*
X51742857Y-148902438D02*
X51838095Y-148997676D01*
X51838095Y-148997676D02*
X51885714Y-149092914D01*
X51885714Y-149092914D02*
X51933333Y-149283390D01*
X51933333Y-149283390D02*
X51933333Y-149426247D01*
X51933333Y-149426247D02*
X51885714Y-149616723D01*
X51885714Y-149616723D02*
X51838095Y-149711961D01*
X51838095Y-149711961D02*
X51742857Y-149807200D01*
X51742857Y-149807200D02*
X51600000Y-149854819D01*
X51600000Y-149854819D02*
X51361905Y-149854819D01*
X52314286Y-148950057D02*
X52361905Y-148902438D01*
X52361905Y-148902438D02*
X52457143Y-148854819D01*
X52457143Y-148854819D02*
X52695238Y-148854819D01*
X52695238Y-148854819D02*
X52790476Y-148902438D01*
X52790476Y-148902438D02*
X52838095Y-148950057D01*
X52838095Y-148950057D02*
X52885714Y-149045295D01*
X52885714Y-149045295D02*
X52885714Y-149140533D01*
X52885714Y-149140533D02*
X52838095Y-149283390D01*
X52838095Y-149283390D02*
X52266667Y-149854819D01*
X52266667Y-149854819D02*
X52885714Y-149854819D01*
X119785714Y-148204819D02*
X119785714Y-147204819D01*
X119785714Y-147204819D02*
X120023809Y-147204819D01*
X120023809Y-147204819D02*
X120166666Y-147252438D01*
X120166666Y-147252438D02*
X120261904Y-147347676D01*
X120261904Y-147347676D02*
X120309523Y-147442914D01*
X120309523Y-147442914D02*
X120357142Y-147633390D01*
X120357142Y-147633390D02*
X120357142Y-147776247D01*
X120357142Y-147776247D02*
X120309523Y-147966723D01*
X120309523Y-147966723D02*
X120261904Y-148061961D01*
X120261904Y-148061961D02*
X120166666Y-148157200D01*
X120166666Y-148157200D02*
X120023809Y-148204819D01*
X120023809Y-148204819D02*
X119785714Y-148204819D01*
X121309523Y-148204819D02*
X120738095Y-148204819D01*
X121023809Y-148204819D02*
X121023809Y-147204819D01*
X121023809Y-147204819D02*
X120928571Y-147347676D01*
X120928571Y-147347676D02*
X120833333Y-147442914D01*
X120833333Y-147442914D02*
X120738095Y-147490533D01*
X121880952Y-147633390D02*
X121785714Y-147585771D01*
X121785714Y-147585771D02*
X121738095Y-147538152D01*
X121738095Y-147538152D02*
X121690476Y-147442914D01*
X121690476Y-147442914D02*
X121690476Y-147395295D01*
X121690476Y-147395295D02*
X121738095Y-147300057D01*
X121738095Y-147300057D02*
X121785714Y-147252438D01*
X121785714Y-147252438D02*
X121880952Y-147204819D01*
X121880952Y-147204819D02*
X122071428Y-147204819D01*
X122071428Y-147204819D02*
X122166666Y-147252438D01*
X122166666Y-147252438D02*
X122214285Y-147300057D01*
X122214285Y-147300057D02*
X122261904Y-147395295D01*
X122261904Y-147395295D02*
X122261904Y-147442914D01*
X122261904Y-147442914D02*
X122214285Y-147538152D01*
X122214285Y-147538152D02*
X122166666Y-147585771D01*
X122166666Y-147585771D02*
X122071428Y-147633390D01*
X122071428Y-147633390D02*
X121880952Y-147633390D01*
X121880952Y-147633390D02*
X121785714Y-147681009D01*
X121785714Y-147681009D02*
X121738095Y-147728628D01*
X121738095Y-147728628D02*
X121690476Y-147823866D01*
X121690476Y-147823866D02*
X121690476Y-148014342D01*
X121690476Y-148014342D02*
X121738095Y-148109580D01*
X121738095Y-148109580D02*
X121785714Y-148157200D01*
X121785714Y-148157200D02*
X121880952Y-148204819D01*
X121880952Y-148204819D02*
X122071428Y-148204819D01*
X122071428Y-148204819D02*
X122166666Y-148157200D01*
X122166666Y-148157200D02*
X122214285Y-148109580D01*
X122214285Y-148109580D02*
X122261904Y-148014342D01*
X122261904Y-148014342D02*
X122261904Y-147823866D01*
X122261904Y-147823866D02*
X122214285Y-147728628D01*
X122214285Y-147728628D02*
X122166666Y-147681009D01*
X122166666Y-147681009D02*
X122071428Y-147633390D01*
X85761905Y-153204819D02*
X85761905Y-152204819D01*
X85761905Y-152204819D02*
X86000000Y-152204819D01*
X86000000Y-152204819D02*
X86142857Y-152252438D01*
X86142857Y-152252438D02*
X86238095Y-152347676D01*
X86238095Y-152347676D02*
X86285714Y-152442914D01*
X86285714Y-152442914D02*
X86333333Y-152633390D01*
X86333333Y-152633390D02*
X86333333Y-152776247D01*
X86333333Y-152776247D02*
X86285714Y-152966723D01*
X86285714Y-152966723D02*
X86238095Y-153061961D01*
X86238095Y-153061961D02*
X86142857Y-153157200D01*
X86142857Y-153157200D02*
X86000000Y-153204819D01*
X86000000Y-153204819D02*
X85761905Y-153204819D01*
X87190476Y-152204819D02*
X87000000Y-152204819D01*
X87000000Y-152204819D02*
X86904762Y-152252438D01*
X86904762Y-152252438D02*
X86857143Y-152300057D01*
X86857143Y-152300057D02*
X86761905Y-152442914D01*
X86761905Y-152442914D02*
X86714286Y-152633390D01*
X86714286Y-152633390D02*
X86714286Y-153014342D01*
X86714286Y-153014342D02*
X86761905Y-153109580D01*
X86761905Y-153109580D02*
X86809524Y-153157200D01*
X86809524Y-153157200D02*
X86904762Y-153204819D01*
X86904762Y-153204819D02*
X87095238Y-153204819D01*
X87095238Y-153204819D02*
X87190476Y-153157200D01*
X87190476Y-153157200D02*
X87238095Y-153109580D01*
X87238095Y-153109580D02*
X87285714Y-153014342D01*
X87285714Y-153014342D02*
X87285714Y-152776247D01*
X87285714Y-152776247D02*
X87238095Y-152681009D01*
X87238095Y-152681009D02*
X87190476Y-152633390D01*
X87190476Y-152633390D02*
X87095238Y-152585771D01*
X87095238Y-152585771D02*
X86904762Y-152585771D01*
X86904762Y-152585771D02*
X86809524Y-152633390D01*
X86809524Y-152633390D02*
X86761905Y-152681009D01*
X86761905Y-152681009D02*
X86714286Y-152776247D01*
X109285714Y-138204819D02*
X109285714Y-137204819D01*
X109285714Y-137204819D02*
X109523809Y-137204819D01*
X109523809Y-137204819D02*
X109666666Y-137252438D01*
X109666666Y-137252438D02*
X109761904Y-137347676D01*
X109761904Y-137347676D02*
X109809523Y-137442914D01*
X109809523Y-137442914D02*
X109857142Y-137633390D01*
X109857142Y-137633390D02*
X109857142Y-137776247D01*
X109857142Y-137776247D02*
X109809523Y-137966723D01*
X109809523Y-137966723D02*
X109761904Y-138061961D01*
X109761904Y-138061961D02*
X109666666Y-138157200D01*
X109666666Y-138157200D02*
X109523809Y-138204819D01*
X109523809Y-138204819D02*
X109285714Y-138204819D01*
X110809523Y-138204819D02*
X110238095Y-138204819D01*
X110523809Y-138204819D02*
X110523809Y-137204819D01*
X110523809Y-137204819D02*
X110428571Y-137347676D01*
X110428571Y-137347676D02*
X110333333Y-137442914D01*
X110333333Y-137442914D02*
X110238095Y-137490533D01*
X111714285Y-137204819D02*
X111238095Y-137204819D01*
X111238095Y-137204819D02*
X111190476Y-137681009D01*
X111190476Y-137681009D02*
X111238095Y-137633390D01*
X111238095Y-137633390D02*
X111333333Y-137585771D01*
X111333333Y-137585771D02*
X111571428Y-137585771D01*
X111571428Y-137585771D02*
X111666666Y-137633390D01*
X111666666Y-137633390D02*
X111714285Y-137681009D01*
X111714285Y-137681009D02*
X111761904Y-137776247D01*
X111761904Y-137776247D02*
X111761904Y-138014342D01*
X111761904Y-138014342D02*
X111714285Y-138109580D01*
X111714285Y-138109580D02*
X111666666Y-138157200D01*
X111666666Y-138157200D02*
X111571428Y-138204819D01*
X111571428Y-138204819D02*
X111333333Y-138204819D01*
X111333333Y-138204819D02*
X111238095Y-138157200D01*
X111238095Y-138157200D02*
X111190476Y-138109580D01*
X71133333Y-157509580D02*
X71085714Y-157557200D01*
X71085714Y-157557200D02*
X70942857Y-157604819D01*
X70942857Y-157604819D02*
X70847619Y-157604819D01*
X70847619Y-157604819D02*
X70704762Y-157557200D01*
X70704762Y-157557200D02*
X70609524Y-157461961D01*
X70609524Y-157461961D02*
X70561905Y-157366723D01*
X70561905Y-157366723D02*
X70514286Y-157176247D01*
X70514286Y-157176247D02*
X70514286Y-157033390D01*
X70514286Y-157033390D02*
X70561905Y-156842914D01*
X70561905Y-156842914D02*
X70609524Y-156747676D01*
X70609524Y-156747676D02*
X70704762Y-156652438D01*
X70704762Y-156652438D02*
X70847619Y-156604819D01*
X70847619Y-156604819D02*
X70942857Y-156604819D01*
X70942857Y-156604819D02*
X71085714Y-156652438D01*
X71085714Y-156652438D02*
X71133333Y-156700057D01*
X71466667Y-156604819D02*
X72085714Y-156604819D01*
X72085714Y-156604819D02*
X71752381Y-156985771D01*
X71752381Y-156985771D02*
X71895238Y-156985771D01*
X71895238Y-156985771D02*
X71990476Y-157033390D01*
X71990476Y-157033390D02*
X72038095Y-157081009D01*
X72038095Y-157081009D02*
X72085714Y-157176247D01*
X72085714Y-157176247D02*
X72085714Y-157414342D01*
X72085714Y-157414342D02*
X72038095Y-157509580D01*
X72038095Y-157509580D02*
X71990476Y-157557200D01*
X71990476Y-157557200D02*
X71895238Y-157604819D01*
X71895238Y-157604819D02*
X71609524Y-157604819D01*
X71609524Y-157604819D02*
X71514286Y-157557200D01*
X71514286Y-157557200D02*
X71466667Y-157509580D01*
X133785714Y-145204819D02*
X133785714Y-144204819D01*
X133785714Y-144204819D02*
X134023809Y-144204819D01*
X134023809Y-144204819D02*
X134166666Y-144252438D01*
X134166666Y-144252438D02*
X134261904Y-144347676D01*
X134261904Y-144347676D02*
X134309523Y-144442914D01*
X134309523Y-144442914D02*
X134357142Y-144633390D01*
X134357142Y-144633390D02*
X134357142Y-144776247D01*
X134357142Y-144776247D02*
X134309523Y-144966723D01*
X134309523Y-144966723D02*
X134261904Y-145061961D01*
X134261904Y-145061961D02*
X134166666Y-145157200D01*
X134166666Y-145157200D02*
X134023809Y-145204819D01*
X134023809Y-145204819D02*
X133785714Y-145204819D01*
X134738095Y-144300057D02*
X134785714Y-144252438D01*
X134785714Y-144252438D02*
X134880952Y-144204819D01*
X134880952Y-144204819D02*
X135119047Y-144204819D01*
X135119047Y-144204819D02*
X135214285Y-144252438D01*
X135214285Y-144252438D02*
X135261904Y-144300057D01*
X135261904Y-144300057D02*
X135309523Y-144395295D01*
X135309523Y-144395295D02*
X135309523Y-144490533D01*
X135309523Y-144490533D02*
X135261904Y-144633390D01*
X135261904Y-144633390D02*
X134690476Y-145204819D01*
X134690476Y-145204819D02*
X135309523Y-145204819D01*
X135642857Y-144204819D02*
X136261904Y-144204819D01*
X136261904Y-144204819D02*
X135928571Y-144585771D01*
X135928571Y-144585771D02*
X136071428Y-144585771D01*
X136071428Y-144585771D02*
X136166666Y-144633390D01*
X136166666Y-144633390D02*
X136214285Y-144681009D01*
X136214285Y-144681009D02*
X136261904Y-144776247D01*
X136261904Y-144776247D02*
X136261904Y-145014342D01*
X136261904Y-145014342D02*
X136214285Y-145109580D01*
X136214285Y-145109580D02*
X136166666Y-145157200D01*
X136166666Y-145157200D02*
X136071428Y-145204819D01*
X136071428Y-145204819D02*
X135785714Y-145204819D01*
X135785714Y-145204819D02*
X135690476Y-145157200D01*
X135690476Y-145157200D02*
X135642857Y-145109580D01*
X62266666Y-154654819D02*
X62266666Y-155369104D01*
X62266666Y-155369104D02*
X62219047Y-155511961D01*
X62219047Y-155511961D02*
X62123809Y-155607200D01*
X62123809Y-155607200D02*
X61980952Y-155654819D01*
X61980952Y-155654819D02*
X61885714Y-155654819D01*
X62647619Y-154654819D02*
X63266666Y-154654819D01*
X63266666Y-154654819D02*
X62933333Y-155035771D01*
X62933333Y-155035771D02*
X63076190Y-155035771D01*
X63076190Y-155035771D02*
X63171428Y-155083390D01*
X63171428Y-155083390D02*
X63219047Y-155131009D01*
X63219047Y-155131009D02*
X63266666Y-155226247D01*
X63266666Y-155226247D02*
X63266666Y-155464342D01*
X63266666Y-155464342D02*
X63219047Y-155559580D01*
X63219047Y-155559580D02*
X63171428Y-155607200D01*
X63171428Y-155607200D02*
X63076190Y-155654819D01*
X63076190Y-155654819D02*
X62790476Y-155654819D01*
X62790476Y-155654819D02*
X62695238Y-155607200D01*
X62695238Y-155607200D02*
X62647619Y-155559580D01*
X59316666Y-136104819D02*
X59316666Y-136819104D01*
X59316666Y-136819104D02*
X59269047Y-136961961D01*
X59269047Y-136961961D02*
X59173809Y-137057200D01*
X59173809Y-137057200D02*
X59030952Y-137104819D01*
X59030952Y-137104819D02*
X58935714Y-137104819D01*
X59792857Y-137104819D02*
X59792857Y-136104819D01*
X59792857Y-136104819D02*
X60173809Y-136104819D01*
X60173809Y-136104819D02*
X60269047Y-136152438D01*
X60269047Y-136152438D02*
X60316666Y-136200057D01*
X60316666Y-136200057D02*
X60364285Y-136295295D01*
X60364285Y-136295295D02*
X60364285Y-136438152D01*
X60364285Y-136438152D02*
X60316666Y-136533390D01*
X60316666Y-136533390D02*
X60269047Y-136581009D01*
X60269047Y-136581009D02*
X60173809Y-136628628D01*
X60173809Y-136628628D02*
X59792857Y-136628628D01*
X61316666Y-137104819D02*
X60745238Y-137104819D01*
X61030952Y-137104819D02*
X61030952Y-136104819D01*
X61030952Y-136104819D02*
X60935714Y-136247676D01*
X60935714Y-136247676D02*
X60840476Y-136342914D01*
X60840476Y-136342914D02*
X60745238Y-136390533D01*
X126785714Y-138204819D02*
X126785714Y-137204819D01*
X126785714Y-137204819D02*
X127023809Y-137204819D01*
X127023809Y-137204819D02*
X127166666Y-137252438D01*
X127166666Y-137252438D02*
X127261904Y-137347676D01*
X127261904Y-137347676D02*
X127309523Y-137442914D01*
X127309523Y-137442914D02*
X127357142Y-137633390D01*
X127357142Y-137633390D02*
X127357142Y-137776247D01*
X127357142Y-137776247D02*
X127309523Y-137966723D01*
X127309523Y-137966723D02*
X127261904Y-138061961D01*
X127261904Y-138061961D02*
X127166666Y-138157200D01*
X127166666Y-138157200D02*
X127023809Y-138204819D01*
X127023809Y-138204819D02*
X126785714Y-138204819D01*
X127738095Y-137300057D02*
X127785714Y-137252438D01*
X127785714Y-137252438D02*
X127880952Y-137204819D01*
X127880952Y-137204819D02*
X128119047Y-137204819D01*
X128119047Y-137204819D02*
X128214285Y-137252438D01*
X128214285Y-137252438D02*
X128261904Y-137300057D01*
X128261904Y-137300057D02*
X128309523Y-137395295D01*
X128309523Y-137395295D02*
X128309523Y-137490533D01*
X128309523Y-137490533D02*
X128261904Y-137633390D01*
X128261904Y-137633390D02*
X127690476Y-138204819D01*
X127690476Y-138204819D02*
X128309523Y-138204819D01*
X129261904Y-138204819D02*
X128690476Y-138204819D01*
X128976190Y-138204819D02*
X128976190Y-137204819D01*
X128976190Y-137204819D02*
X128880952Y-137347676D01*
X128880952Y-137347676D02*
X128785714Y-137442914D01*
X128785714Y-137442914D02*
X128690476Y-137490533D01*
X71223809Y-152778628D02*
X71223809Y-153254819D01*
X70890476Y-152254819D02*
X71223809Y-152778628D01*
X71223809Y-152778628D02*
X71557142Y-152254819D01*
X72414285Y-153254819D02*
X71842857Y-153254819D01*
X72128571Y-153254819D02*
X72128571Y-152254819D01*
X72128571Y-152254819D02*
X72033333Y-152397676D01*
X72033333Y-152397676D02*
X71938095Y-152492914D01*
X71938095Y-152492914D02*
X71842857Y-152540533D01*
X82761905Y-143204819D02*
X82761905Y-142204819D01*
X82761905Y-142204819D02*
X83000000Y-142204819D01*
X83000000Y-142204819D02*
X83142857Y-142252438D01*
X83142857Y-142252438D02*
X83238095Y-142347676D01*
X83238095Y-142347676D02*
X83285714Y-142442914D01*
X83285714Y-142442914D02*
X83333333Y-142633390D01*
X83333333Y-142633390D02*
X83333333Y-142776247D01*
X83333333Y-142776247D02*
X83285714Y-142966723D01*
X83285714Y-142966723D02*
X83238095Y-143061961D01*
X83238095Y-143061961D02*
X83142857Y-143157200D01*
X83142857Y-143157200D02*
X83000000Y-143204819D01*
X83000000Y-143204819D02*
X82761905Y-143204819D01*
X84190476Y-142538152D02*
X84190476Y-143204819D01*
X83952381Y-142157200D02*
X83714286Y-142871485D01*
X83714286Y-142871485D02*
X84333333Y-142871485D01*
X102785714Y-158204819D02*
X102785714Y-157204819D01*
X102785714Y-157204819D02*
X103023809Y-157204819D01*
X103023809Y-157204819D02*
X103166666Y-157252438D01*
X103166666Y-157252438D02*
X103261904Y-157347676D01*
X103261904Y-157347676D02*
X103309523Y-157442914D01*
X103309523Y-157442914D02*
X103357142Y-157633390D01*
X103357142Y-157633390D02*
X103357142Y-157776247D01*
X103357142Y-157776247D02*
X103309523Y-157966723D01*
X103309523Y-157966723D02*
X103261904Y-158061961D01*
X103261904Y-158061961D02*
X103166666Y-158157200D01*
X103166666Y-158157200D02*
X103023809Y-158204819D01*
X103023809Y-158204819D02*
X102785714Y-158204819D01*
X104309523Y-158204819D02*
X103738095Y-158204819D01*
X104023809Y-158204819D02*
X104023809Y-157204819D01*
X104023809Y-157204819D02*
X103928571Y-157347676D01*
X103928571Y-157347676D02*
X103833333Y-157442914D01*
X103833333Y-157442914D02*
X103738095Y-157490533D01*
X105261904Y-158204819D02*
X104690476Y-158204819D01*
X104976190Y-158204819D02*
X104976190Y-157204819D01*
X104976190Y-157204819D02*
X104880952Y-157347676D01*
X104880952Y-157347676D02*
X104785714Y-157442914D01*
X104785714Y-157442914D02*
X104690476Y-157490533D01*
X75166666Y-127454819D02*
X75166666Y-128169104D01*
X75166666Y-128169104D02*
X75119047Y-128311961D01*
X75119047Y-128311961D02*
X75023809Y-128407200D01*
X75023809Y-128407200D02*
X74880952Y-128454819D01*
X74880952Y-128454819D02*
X74785714Y-128454819D01*
X76166666Y-128454819D02*
X75595238Y-128454819D01*
X75880952Y-128454819D02*
X75880952Y-127454819D01*
X75880952Y-127454819D02*
X75785714Y-127597676D01*
X75785714Y-127597676D02*
X75690476Y-127692914D01*
X75690476Y-127692914D02*
X75595238Y-127740533D01*
X67283333Y-157509580D02*
X67235714Y-157557200D01*
X67235714Y-157557200D02*
X67092857Y-157604819D01*
X67092857Y-157604819D02*
X66997619Y-157604819D01*
X66997619Y-157604819D02*
X66854762Y-157557200D01*
X66854762Y-157557200D02*
X66759524Y-157461961D01*
X66759524Y-157461961D02*
X66711905Y-157366723D01*
X66711905Y-157366723D02*
X66664286Y-157176247D01*
X66664286Y-157176247D02*
X66664286Y-157033390D01*
X66664286Y-157033390D02*
X66711905Y-156842914D01*
X66711905Y-156842914D02*
X66759524Y-156747676D01*
X66759524Y-156747676D02*
X66854762Y-156652438D01*
X66854762Y-156652438D02*
X66997619Y-156604819D01*
X66997619Y-156604819D02*
X67092857Y-156604819D01*
X67092857Y-156604819D02*
X67235714Y-156652438D01*
X67235714Y-156652438D02*
X67283333Y-156700057D01*
X68140476Y-156938152D02*
X68140476Y-157604819D01*
X67902381Y-156557200D02*
X67664286Y-157271485D01*
X67664286Y-157271485D02*
X68283333Y-157271485D01*
X59833333Y-143559580D02*
X59785714Y-143607200D01*
X59785714Y-143607200D02*
X59642857Y-143654819D01*
X59642857Y-143654819D02*
X59547619Y-143654819D01*
X59547619Y-143654819D02*
X59404762Y-143607200D01*
X59404762Y-143607200D02*
X59309524Y-143511961D01*
X59309524Y-143511961D02*
X59261905Y-143416723D01*
X59261905Y-143416723D02*
X59214286Y-143226247D01*
X59214286Y-143226247D02*
X59214286Y-143083390D01*
X59214286Y-143083390D02*
X59261905Y-142892914D01*
X59261905Y-142892914D02*
X59309524Y-142797676D01*
X59309524Y-142797676D02*
X59404762Y-142702438D01*
X59404762Y-142702438D02*
X59547619Y-142654819D01*
X59547619Y-142654819D02*
X59642857Y-142654819D01*
X59642857Y-142654819D02*
X59785714Y-142702438D01*
X59785714Y-142702438D02*
X59833333Y-142750057D01*
X60690476Y-142654819D02*
X60500000Y-142654819D01*
X60500000Y-142654819D02*
X60404762Y-142702438D01*
X60404762Y-142702438D02*
X60357143Y-142750057D01*
X60357143Y-142750057D02*
X60261905Y-142892914D01*
X60261905Y-142892914D02*
X60214286Y-143083390D01*
X60214286Y-143083390D02*
X60214286Y-143464342D01*
X60214286Y-143464342D02*
X60261905Y-143559580D01*
X60261905Y-143559580D02*
X60309524Y-143607200D01*
X60309524Y-143607200D02*
X60404762Y-143654819D01*
X60404762Y-143654819D02*
X60595238Y-143654819D01*
X60595238Y-143654819D02*
X60690476Y-143607200D01*
X60690476Y-143607200D02*
X60738095Y-143559580D01*
X60738095Y-143559580D02*
X60785714Y-143464342D01*
X60785714Y-143464342D02*
X60785714Y-143226247D01*
X60785714Y-143226247D02*
X60738095Y-143131009D01*
X60738095Y-143131009D02*
X60690476Y-143083390D01*
X60690476Y-143083390D02*
X60595238Y-143035771D01*
X60595238Y-143035771D02*
X60404762Y-143035771D01*
X60404762Y-143035771D02*
X60309524Y-143083390D01*
X60309524Y-143083390D02*
X60261905Y-143131009D01*
X60261905Y-143131009D02*
X60214286Y-143226247D01*
X75166666Y-161954819D02*
X75166666Y-162669104D01*
X75166666Y-162669104D02*
X75119047Y-162811961D01*
X75119047Y-162811961D02*
X75023809Y-162907200D01*
X75023809Y-162907200D02*
X74880952Y-162954819D01*
X74880952Y-162954819D02*
X74785714Y-162954819D01*
X75595238Y-162050057D02*
X75642857Y-162002438D01*
X75642857Y-162002438D02*
X75738095Y-161954819D01*
X75738095Y-161954819D02*
X75976190Y-161954819D01*
X75976190Y-161954819D02*
X76071428Y-162002438D01*
X76071428Y-162002438D02*
X76119047Y-162050057D01*
X76119047Y-162050057D02*
X76166666Y-162145295D01*
X76166666Y-162145295D02*
X76166666Y-162240533D01*
X76166666Y-162240533D02*
X76119047Y-162383390D01*
X76119047Y-162383390D02*
X75547619Y-162954819D01*
X75547619Y-162954819D02*
X76166666Y-162954819D01*
X62733333Y-153004819D02*
X62400000Y-152528628D01*
X62161905Y-153004819D02*
X62161905Y-152004819D01*
X62161905Y-152004819D02*
X62542857Y-152004819D01*
X62542857Y-152004819D02*
X62638095Y-152052438D01*
X62638095Y-152052438D02*
X62685714Y-152100057D01*
X62685714Y-152100057D02*
X62733333Y-152195295D01*
X62733333Y-152195295D02*
X62733333Y-152338152D01*
X62733333Y-152338152D02*
X62685714Y-152433390D01*
X62685714Y-152433390D02*
X62638095Y-152481009D01*
X62638095Y-152481009D02*
X62542857Y-152528628D01*
X62542857Y-152528628D02*
X62161905Y-152528628D01*
X63638095Y-152004819D02*
X63161905Y-152004819D01*
X63161905Y-152004819D02*
X63114286Y-152481009D01*
X63114286Y-152481009D02*
X63161905Y-152433390D01*
X63161905Y-152433390D02*
X63257143Y-152385771D01*
X63257143Y-152385771D02*
X63495238Y-152385771D01*
X63495238Y-152385771D02*
X63590476Y-152433390D01*
X63590476Y-152433390D02*
X63638095Y-152481009D01*
X63638095Y-152481009D02*
X63685714Y-152576247D01*
X63685714Y-152576247D02*
X63685714Y-152814342D01*
X63685714Y-152814342D02*
X63638095Y-152909580D01*
X63638095Y-152909580D02*
X63590476Y-152957200D01*
X63590476Y-152957200D02*
X63495238Y-153004819D01*
X63495238Y-153004819D02*
X63257143Y-153004819D01*
X63257143Y-153004819D02*
X63161905Y-152957200D01*
X63161905Y-152957200D02*
X63114286Y-152909580D01*
X53866666Y-140054819D02*
X53866666Y-140769104D01*
X53866666Y-140769104D02*
X53819047Y-140911961D01*
X53819047Y-140911961D02*
X53723809Y-141007200D01*
X53723809Y-141007200D02*
X53580952Y-141054819D01*
X53580952Y-141054819D02*
X53485714Y-141054819D01*
X54771428Y-140388152D02*
X54771428Y-141054819D01*
X54533333Y-140007200D02*
X54295238Y-140721485D01*
X54295238Y-140721485D02*
X54914285Y-140721485D01*
X119785714Y-138204819D02*
X119785714Y-137204819D01*
X119785714Y-137204819D02*
X120023809Y-137204819D01*
X120023809Y-137204819D02*
X120166666Y-137252438D01*
X120166666Y-137252438D02*
X120261904Y-137347676D01*
X120261904Y-137347676D02*
X120309523Y-137442914D01*
X120309523Y-137442914D02*
X120357142Y-137633390D01*
X120357142Y-137633390D02*
X120357142Y-137776247D01*
X120357142Y-137776247D02*
X120309523Y-137966723D01*
X120309523Y-137966723D02*
X120261904Y-138061961D01*
X120261904Y-138061961D02*
X120166666Y-138157200D01*
X120166666Y-138157200D02*
X120023809Y-138204819D01*
X120023809Y-138204819D02*
X119785714Y-138204819D01*
X120738095Y-137300057D02*
X120785714Y-137252438D01*
X120785714Y-137252438D02*
X120880952Y-137204819D01*
X120880952Y-137204819D02*
X121119047Y-137204819D01*
X121119047Y-137204819D02*
X121214285Y-137252438D01*
X121214285Y-137252438D02*
X121261904Y-137300057D01*
X121261904Y-137300057D02*
X121309523Y-137395295D01*
X121309523Y-137395295D02*
X121309523Y-137490533D01*
X121309523Y-137490533D02*
X121261904Y-137633390D01*
X121261904Y-137633390D02*
X120690476Y-138204819D01*
X120690476Y-138204819D02*
X121309523Y-138204819D01*
X121928571Y-137204819D02*
X122023809Y-137204819D01*
X122023809Y-137204819D02*
X122119047Y-137252438D01*
X122119047Y-137252438D02*
X122166666Y-137300057D01*
X122166666Y-137300057D02*
X122214285Y-137395295D01*
X122214285Y-137395295D02*
X122261904Y-137585771D01*
X122261904Y-137585771D02*
X122261904Y-137823866D01*
X122261904Y-137823866D02*
X122214285Y-138014342D01*
X122214285Y-138014342D02*
X122166666Y-138109580D01*
X122166666Y-138109580D02*
X122119047Y-138157200D01*
X122119047Y-138157200D02*
X122023809Y-138204819D01*
X122023809Y-138204819D02*
X121928571Y-138204819D01*
X121928571Y-138204819D02*
X121833333Y-138157200D01*
X121833333Y-138157200D02*
X121785714Y-138109580D01*
X121785714Y-138109580D02*
X121738095Y-138014342D01*
X121738095Y-138014342D02*
X121690476Y-137823866D01*
X121690476Y-137823866D02*
X121690476Y-137585771D01*
X121690476Y-137585771D02*
X121738095Y-137395295D01*
X121738095Y-137395295D02*
X121785714Y-137300057D01*
X121785714Y-137300057D02*
X121833333Y-137252438D01*
X121833333Y-137252438D02*
X121928571Y-137204819D01*
X56933333Y-133209580D02*
X56885714Y-133257200D01*
X56885714Y-133257200D02*
X56742857Y-133304819D01*
X56742857Y-133304819D02*
X56647619Y-133304819D01*
X56647619Y-133304819D02*
X56504762Y-133257200D01*
X56504762Y-133257200D02*
X56409524Y-133161961D01*
X56409524Y-133161961D02*
X56361905Y-133066723D01*
X56361905Y-133066723D02*
X56314286Y-132876247D01*
X56314286Y-132876247D02*
X56314286Y-132733390D01*
X56314286Y-132733390D02*
X56361905Y-132542914D01*
X56361905Y-132542914D02*
X56409524Y-132447676D01*
X56409524Y-132447676D02*
X56504762Y-132352438D01*
X56504762Y-132352438D02*
X56647619Y-132304819D01*
X56647619Y-132304819D02*
X56742857Y-132304819D01*
X56742857Y-132304819D02*
X56885714Y-132352438D01*
X56885714Y-132352438D02*
X56933333Y-132400057D01*
X57885714Y-133304819D02*
X57314286Y-133304819D01*
X57600000Y-133304819D02*
X57600000Y-132304819D01*
X57600000Y-132304819D02*
X57504762Y-132447676D01*
X57504762Y-132447676D02*
X57409524Y-132542914D01*
X57409524Y-132542914D02*
X57314286Y-132590533D01*
X107785714Y-143204819D02*
X107785714Y-142204819D01*
X107785714Y-142204819D02*
X108023809Y-142204819D01*
X108023809Y-142204819D02*
X108166666Y-142252438D01*
X108166666Y-142252438D02*
X108261904Y-142347676D01*
X108261904Y-142347676D02*
X108309523Y-142442914D01*
X108309523Y-142442914D02*
X108357142Y-142633390D01*
X108357142Y-142633390D02*
X108357142Y-142776247D01*
X108357142Y-142776247D02*
X108309523Y-142966723D01*
X108309523Y-142966723D02*
X108261904Y-143061961D01*
X108261904Y-143061961D02*
X108166666Y-143157200D01*
X108166666Y-143157200D02*
X108023809Y-143204819D01*
X108023809Y-143204819D02*
X107785714Y-143204819D01*
X109309523Y-143204819D02*
X108738095Y-143204819D01*
X109023809Y-143204819D02*
X109023809Y-142204819D01*
X109023809Y-142204819D02*
X108928571Y-142347676D01*
X108928571Y-142347676D02*
X108833333Y-142442914D01*
X108833333Y-142442914D02*
X108738095Y-142490533D01*
X110166666Y-142538152D02*
X110166666Y-143204819D01*
X109928571Y-142157200D02*
X109690476Y-142871485D01*
X109690476Y-142871485D02*
X110309523Y-142871485D01*
X76533333Y-138604819D02*
X76200000Y-138128628D01*
X75961905Y-138604819D02*
X75961905Y-137604819D01*
X75961905Y-137604819D02*
X76342857Y-137604819D01*
X76342857Y-137604819D02*
X76438095Y-137652438D01*
X76438095Y-137652438D02*
X76485714Y-137700057D01*
X76485714Y-137700057D02*
X76533333Y-137795295D01*
X76533333Y-137795295D02*
X76533333Y-137938152D01*
X76533333Y-137938152D02*
X76485714Y-138033390D01*
X76485714Y-138033390D02*
X76438095Y-138081009D01*
X76438095Y-138081009D02*
X76342857Y-138128628D01*
X76342857Y-138128628D02*
X75961905Y-138128628D01*
X77390476Y-137604819D02*
X77200000Y-137604819D01*
X77200000Y-137604819D02*
X77104762Y-137652438D01*
X77104762Y-137652438D02*
X77057143Y-137700057D01*
X77057143Y-137700057D02*
X76961905Y-137842914D01*
X76961905Y-137842914D02*
X76914286Y-138033390D01*
X76914286Y-138033390D02*
X76914286Y-138414342D01*
X76914286Y-138414342D02*
X76961905Y-138509580D01*
X76961905Y-138509580D02*
X77009524Y-138557200D01*
X77009524Y-138557200D02*
X77104762Y-138604819D01*
X77104762Y-138604819D02*
X77295238Y-138604819D01*
X77295238Y-138604819D02*
X77390476Y-138557200D01*
X77390476Y-138557200D02*
X77438095Y-138509580D01*
X77438095Y-138509580D02*
X77485714Y-138414342D01*
X77485714Y-138414342D02*
X77485714Y-138176247D01*
X77485714Y-138176247D02*
X77438095Y-138081009D01*
X77438095Y-138081009D02*
X77390476Y-138033390D01*
X77390476Y-138033390D02*
X77295238Y-137985771D01*
X77295238Y-137985771D02*
X77104762Y-137985771D01*
X77104762Y-137985771D02*
X77009524Y-138033390D01*
X77009524Y-138033390D02*
X76961905Y-138081009D01*
X76961905Y-138081009D02*
X76914286Y-138176247D01*
X119785714Y-153204819D02*
X119785714Y-152204819D01*
X119785714Y-152204819D02*
X120023809Y-152204819D01*
X120023809Y-152204819D02*
X120166666Y-152252438D01*
X120166666Y-152252438D02*
X120261904Y-152347676D01*
X120261904Y-152347676D02*
X120309523Y-152442914D01*
X120309523Y-152442914D02*
X120357142Y-152633390D01*
X120357142Y-152633390D02*
X120357142Y-152776247D01*
X120357142Y-152776247D02*
X120309523Y-152966723D01*
X120309523Y-152966723D02*
X120261904Y-153061961D01*
X120261904Y-153061961D02*
X120166666Y-153157200D01*
X120166666Y-153157200D02*
X120023809Y-153204819D01*
X120023809Y-153204819D02*
X119785714Y-153204819D01*
X121309523Y-153204819D02*
X120738095Y-153204819D01*
X121023809Y-153204819D02*
X121023809Y-152204819D01*
X121023809Y-152204819D02*
X120928571Y-152347676D01*
X120928571Y-152347676D02*
X120833333Y-152442914D01*
X120833333Y-152442914D02*
X120738095Y-152490533D01*
X121642857Y-152204819D02*
X122309523Y-152204819D01*
X122309523Y-152204819D02*
X121880952Y-153204819D01*
X59833333Y-141754819D02*
X59500000Y-141278628D01*
X59261905Y-141754819D02*
X59261905Y-140754819D01*
X59261905Y-140754819D02*
X59642857Y-140754819D01*
X59642857Y-140754819D02*
X59738095Y-140802438D01*
X59738095Y-140802438D02*
X59785714Y-140850057D01*
X59785714Y-140850057D02*
X59833333Y-140945295D01*
X59833333Y-140945295D02*
X59833333Y-141088152D01*
X59833333Y-141088152D02*
X59785714Y-141183390D01*
X59785714Y-141183390D02*
X59738095Y-141231009D01*
X59738095Y-141231009D02*
X59642857Y-141278628D01*
X59642857Y-141278628D02*
X59261905Y-141278628D01*
X60166667Y-140754819D02*
X60785714Y-140754819D01*
X60785714Y-140754819D02*
X60452381Y-141135771D01*
X60452381Y-141135771D02*
X60595238Y-141135771D01*
X60595238Y-141135771D02*
X60690476Y-141183390D01*
X60690476Y-141183390D02*
X60738095Y-141231009D01*
X60738095Y-141231009D02*
X60785714Y-141326247D01*
X60785714Y-141326247D02*
X60785714Y-141564342D01*
X60785714Y-141564342D02*
X60738095Y-141659580D01*
X60738095Y-141659580D02*
X60690476Y-141707200D01*
X60690476Y-141707200D02*
X60595238Y-141754819D01*
X60595238Y-141754819D02*
X60309524Y-141754819D01*
X60309524Y-141754819D02*
X60214286Y-141707200D01*
X60214286Y-141707200D02*
X60166667Y-141659580D01*
X65433333Y-134459580D02*
X65385714Y-134507200D01*
X65385714Y-134507200D02*
X65242857Y-134554819D01*
X65242857Y-134554819D02*
X65147619Y-134554819D01*
X65147619Y-134554819D02*
X65004762Y-134507200D01*
X65004762Y-134507200D02*
X64909524Y-134411961D01*
X64909524Y-134411961D02*
X64861905Y-134316723D01*
X64861905Y-134316723D02*
X64814286Y-134126247D01*
X64814286Y-134126247D02*
X64814286Y-133983390D01*
X64814286Y-133983390D02*
X64861905Y-133792914D01*
X64861905Y-133792914D02*
X64909524Y-133697676D01*
X64909524Y-133697676D02*
X65004762Y-133602438D01*
X65004762Y-133602438D02*
X65147619Y-133554819D01*
X65147619Y-133554819D02*
X65242857Y-133554819D01*
X65242857Y-133554819D02*
X65385714Y-133602438D01*
X65385714Y-133602438D02*
X65433333Y-133650057D01*
X65814286Y-133650057D02*
X65861905Y-133602438D01*
X65861905Y-133602438D02*
X65957143Y-133554819D01*
X65957143Y-133554819D02*
X66195238Y-133554819D01*
X66195238Y-133554819D02*
X66290476Y-133602438D01*
X66290476Y-133602438D02*
X66338095Y-133650057D01*
X66338095Y-133650057D02*
X66385714Y-133745295D01*
X66385714Y-133745295D02*
X66385714Y-133840533D01*
X66385714Y-133840533D02*
X66338095Y-133983390D01*
X66338095Y-133983390D02*
X65766667Y-134554819D01*
X65766667Y-134554819D02*
X66385714Y-134554819D01*
X87761905Y-158204819D02*
X87761905Y-157204819D01*
X87761905Y-157204819D02*
X88000000Y-157204819D01*
X88000000Y-157204819D02*
X88142857Y-157252438D01*
X88142857Y-157252438D02*
X88238095Y-157347676D01*
X88238095Y-157347676D02*
X88285714Y-157442914D01*
X88285714Y-157442914D02*
X88333333Y-157633390D01*
X88333333Y-157633390D02*
X88333333Y-157776247D01*
X88333333Y-157776247D02*
X88285714Y-157966723D01*
X88285714Y-157966723D02*
X88238095Y-158061961D01*
X88238095Y-158061961D02*
X88142857Y-158157200D01*
X88142857Y-158157200D02*
X88000000Y-158204819D01*
X88000000Y-158204819D02*
X87761905Y-158204819D01*
X88666667Y-157204819D02*
X89333333Y-157204819D01*
X89333333Y-157204819D02*
X88904762Y-158204819D01*
X126785714Y-149329819D02*
X126785714Y-148329819D01*
X126785714Y-148329819D02*
X127023809Y-148329819D01*
X127023809Y-148329819D02*
X127166666Y-148377438D01*
X127166666Y-148377438D02*
X127261904Y-148472676D01*
X127261904Y-148472676D02*
X127309523Y-148567914D01*
X127309523Y-148567914D02*
X127357142Y-148758390D01*
X127357142Y-148758390D02*
X127357142Y-148901247D01*
X127357142Y-148901247D02*
X127309523Y-149091723D01*
X127309523Y-149091723D02*
X127261904Y-149186961D01*
X127261904Y-149186961D02*
X127166666Y-149282200D01*
X127166666Y-149282200D02*
X127023809Y-149329819D01*
X127023809Y-149329819D02*
X126785714Y-149329819D01*
X127738095Y-148425057D02*
X127785714Y-148377438D01*
X127785714Y-148377438D02*
X127880952Y-148329819D01*
X127880952Y-148329819D02*
X128119047Y-148329819D01*
X128119047Y-148329819D02*
X128214285Y-148377438D01*
X128214285Y-148377438D02*
X128261904Y-148425057D01*
X128261904Y-148425057D02*
X128309523Y-148520295D01*
X128309523Y-148520295D02*
X128309523Y-148615533D01*
X128309523Y-148615533D02*
X128261904Y-148758390D01*
X128261904Y-148758390D02*
X127690476Y-149329819D01*
X127690476Y-149329819D02*
X128309523Y-149329819D01*
X129166666Y-148663152D02*
X129166666Y-149329819D01*
X128928571Y-148282200D02*
X128690476Y-148996485D01*
X128690476Y-148996485D02*
X129309523Y-148996485D01*
X55833333Y-149854819D02*
X55500000Y-149378628D01*
X55261905Y-149854819D02*
X55261905Y-148854819D01*
X55261905Y-148854819D02*
X55642857Y-148854819D01*
X55642857Y-148854819D02*
X55738095Y-148902438D01*
X55738095Y-148902438D02*
X55785714Y-148950057D01*
X55785714Y-148950057D02*
X55833333Y-149045295D01*
X55833333Y-149045295D02*
X55833333Y-149188152D01*
X55833333Y-149188152D02*
X55785714Y-149283390D01*
X55785714Y-149283390D02*
X55738095Y-149331009D01*
X55738095Y-149331009D02*
X55642857Y-149378628D01*
X55642857Y-149378628D02*
X55261905Y-149378628D01*
X56214286Y-148950057D02*
X56261905Y-148902438D01*
X56261905Y-148902438D02*
X56357143Y-148854819D01*
X56357143Y-148854819D02*
X56595238Y-148854819D01*
X56595238Y-148854819D02*
X56690476Y-148902438D01*
X56690476Y-148902438D02*
X56738095Y-148950057D01*
X56738095Y-148950057D02*
X56785714Y-149045295D01*
X56785714Y-149045295D02*
X56785714Y-149140533D01*
X56785714Y-149140533D02*
X56738095Y-149283390D01*
X56738095Y-149283390D02*
X56166667Y-149854819D01*
X56166667Y-149854819D02*
X56785714Y-149854819D01*
X133785714Y-140204819D02*
X133785714Y-139204819D01*
X133785714Y-139204819D02*
X134023809Y-139204819D01*
X134023809Y-139204819D02*
X134166666Y-139252438D01*
X134166666Y-139252438D02*
X134261904Y-139347676D01*
X134261904Y-139347676D02*
X134309523Y-139442914D01*
X134309523Y-139442914D02*
X134357142Y-139633390D01*
X134357142Y-139633390D02*
X134357142Y-139776247D01*
X134357142Y-139776247D02*
X134309523Y-139966723D01*
X134309523Y-139966723D02*
X134261904Y-140061961D01*
X134261904Y-140061961D02*
X134166666Y-140157200D01*
X134166666Y-140157200D02*
X134023809Y-140204819D01*
X134023809Y-140204819D02*
X133785714Y-140204819D01*
X134738095Y-139300057D02*
X134785714Y-139252438D01*
X134785714Y-139252438D02*
X134880952Y-139204819D01*
X134880952Y-139204819D02*
X135119047Y-139204819D01*
X135119047Y-139204819D02*
X135214285Y-139252438D01*
X135214285Y-139252438D02*
X135261904Y-139300057D01*
X135261904Y-139300057D02*
X135309523Y-139395295D01*
X135309523Y-139395295D02*
X135309523Y-139490533D01*
X135309523Y-139490533D02*
X135261904Y-139633390D01*
X135261904Y-139633390D02*
X134690476Y-140204819D01*
X134690476Y-140204819D02*
X135309523Y-140204819D01*
X135690476Y-139300057D02*
X135738095Y-139252438D01*
X135738095Y-139252438D02*
X135833333Y-139204819D01*
X135833333Y-139204819D02*
X136071428Y-139204819D01*
X136071428Y-139204819D02*
X136166666Y-139252438D01*
X136166666Y-139252438D02*
X136214285Y-139300057D01*
X136214285Y-139300057D02*
X136261904Y-139395295D01*
X136261904Y-139395295D02*
X136261904Y-139490533D01*
X136261904Y-139490533D02*
X136214285Y-139633390D01*
X136214285Y-139633390D02*
X135642857Y-140204819D01*
X135642857Y-140204819D02*
X136261904Y-140204819D01*
X95511905Y-148204819D02*
X95511905Y-147204819D01*
X95511905Y-147204819D02*
X95750000Y-147204819D01*
X95750000Y-147204819D02*
X95892857Y-147252438D01*
X95892857Y-147252438D02*
X95988095Y-147347676D01*
X95988095Y-147347676D02*
X96035714Y-147442914D01*
X96035714Y-147442914D02*
X96083333Y-147633390D01*
X96083333Y-147633390D02*
X96083333Y-147776247D01*
X96083333Y-147776247D02*
X96035714Y-147966723D01*
X96035714Y-147966723D02*
X95988095Y-148061961D01*
X95988095Y-148061961D02*
X95892857Y-148157200D01*
X95892857Y-148157200D02*
X95750000Y-148204819D01*
X95750000Y-148204819D02*
X95511905Y-148204819D01*
X96559524Y-148204819D02*
X96750000Y-148204819D01*
X96750000Y-148204819D02*
X96845238Y-148157200D01*
X96845238Y-148157200D02*
X96892857Y-148109580D01*
X96892857Y-148109580D02*
X96988095Y-147966723D01*
X96988095Y-147966723D02*
X97035714Y-147776247D01*
X97035714Y-147776247D02*
X97035714Y-147395295D01*
X97035714Y-147395295D02*
X96988095Y-147300057D01*
X96988095Y-147300057D02*
X96940476Y-147252438D01*
X96940476Y-147252438D02*
X96845238Y-147204819D01*
X96845238Y-147204819D02*
X96654762Y-147204819D01*
X96654762Y-147204819D02*
X96559524Y-147252438D01*
X96559524Y-147252438D02*
X96511905Y-147300057D01*
X96511905Y-147300057D02*
X96464286Y-147395295D01*
X96464286Y-147395295D02*
X96464286Y-147633390D01*
X96464286Y-147633390D02*
X96511905Y-147728628D01*
X96511905Y-147728628D02*
X96559524Y-147776247D01*
X96559524Y-147776247D02*
X96654762Y-147823866D01*
X96654762Y-147823866D02*
X96845238Y-147823866D01*
X96845238Y-147823866D02*
X96940476Y-147776247D01*
X96940476Y-147776247D02*
X96988095Y-147728628D01*
X96988095Y-147728628D02*
X97035714Y-147633390D01*
X119785714Y-158204819D02*
X119785714Y-157204819D01*
X119785714Y-157204819D02*
X120023809Y-157204819D01*
X120023809Y-157204819D02*
X120166666Y-157252438D01*
X120166666Y-157252438D02*
X120261904Y-157347676D01*
X120261904Y-157347676D02*
X120309523Y-157442914D01*
X120309523Y-157442914D02*
X120357142Y-157633390D01*
X120357142Y-157633390D02*
X120357142Y-157776247D01*
X120357142Y-157776247D02*
X120309523Y-157966723D01*
X120309523Y-157966723D02*
X120261904Y-158061961D01*
X120261904Y-158061961D02*
X120166666Y-158157200D01*
X120166666Y-158157200D02*
X120023809Y-158204819D01*
X120023809Y-158204819D02*
X119785714Y-158204819D01*
X121309523Y-158204819D02*
X120738095Y-158204819D01*
X121023809Y-158204819D02*
X121023809Y-157204819D01*
X121023809Y-157204819D02*
X120928571Y-157347676D01*
X120928571Y-157347676D02*
X120833333Y-157442914D01*
X120833333Y-157442914D02*
X120738095Y-157490533D01*
X122166666Y-157204819D02*
X121976190Y-157204819D01*
X121976190Y-157204819D02*
X121880952Y-157252438D01*
X121880952Y-157252438D02*
X121833333Y-157300057D01*
X121833333Y-157300057D02*
X121738095Y-157442914D01*
X121738095Y-157442914D02*
X121690476Y-157633390D01*
X121690476Y-157633390D02*
X121690476Y-158014342D01*
X121690476Y-158014342D02*
X121738095Y-158109580D01*
X121738095Y-158109580D02*
X121785714Y-158157200D01*
X121785714Y-158157200D02*
X121880952Y-158204819D01*
X121880952Y-158204819D02*
X122071428Y-158204819D01*
X122071428Y-158204819D02*
X122166666Y-158157200D01*
X122166666Y-158157200D02*
X122214285Y-158109580D01*
X122214285Y-158109580D02*
X122261904Y-158014342D01*
X122261904Y-158014342D02*
X122261904Y-157776247D01*
X122261904Y-157776247D02*
X122214285Y-157681009D01*
X122214285Y-157681009D02*
X122166666Y-157633390D01*
X122166666Y-157633390D02*
X122071428Y-157585771D01*
X122071428Y-157585771D02*
X121880952Y-157585771D01*
X121880952Y-157585771D02*
X121785714Y-157633390D01*
X121785714Y-157633390D02*
X121738095Y-157681009D01*
X121738095Y-157681009D02*
X121690476Y-157776247D01*
X144285714Y-153329819D02*
X144285714Y-152329819D01*
X144285714Y-152329819D02*
X144523809Y-152329819D01*
X144523809Y-152329819D02*
X144666666Y-152377438D01*
X144666666Y-152377438D02*
X144761904Y-152472676D01*
X144761904Y-152472676D02*
X144809523Y-152567914D01*
X144809523Y-152567914D02*
X144857142Y-152758390D01*
X144857142Y-152758390D02*
X144857142Y-152901247D01*
X144857142Y-152901247D02*
X144809523Y-153091723D01*
X144809523Y-153091723D02*
X144761904Y-153186961D01*
X144761904Y-153186961D02*
X144666666Y-153282200D01*
X144666666Y-153282200D02*
X144523809Y-153329819D01*
X144523809Y-153329819D02*
X144285714Y-153329819D01*
X145238095Y-152425057D02*
X145285714Y-152377438D01*
X145285714Y-152377438D02*
X145380952Y-152329819D01*
X145380952Y-152329819D02*
X145619047Y-152329819D01*
X145619047Y-152329819D02*
X145714285Y-152377438D01*
X145714285Y-152377438D02*
X145761904Y-152425057D01*
X145761904Y-152425057D02*
X145809523Y-152520295D01*
X145809523Y-152520295D02*
X145809523Y-152615533D01*
X145809523Y-152615533D02*
X145761904Y-152758390D01*
X145761904Y-152758390D02*
X145190476Y-153329819D01*
X145190476Y-153329819D02*
X145809523Y-153329819D01*
X146666666Y-152329819D02*
X146476190Y-152329819D01*
X146476190Y-152329819D02*
X146380952Y-152377438D01*
X146380952Y-152377438D02*
X146333333Y-152425057D01*
X146333333Y-152425057D02*
X146238095Y-152567914D01*
X146238095Y-152567914D02*
X146190476Y-152758390D01*
X146190476Y-152758390D02*
X146190476Y-153139342D01*
X146190476Y-153139342D02*
X146238095Y-153234580D01*
X146238095Y-153234580D02*
X146285714Y-153282200D01*
X146285714Y-153282200D02*
X146380952Y-153329819D01*
X146380952Y-153329819D02*
X146571428Y-153329819D01*
X146571428Y-153329819D02*
X146666666Y-153282200D01*
X146666666Y-153282200D02*
X146714285Y-153234580D01*
X146714285Y-153234580D02*
X146761904Y-153139342D01*
X146761904Y-153139342D02*
X146761904Y-152901247D01*
X146761904Y-152901247D02*
X146714285Y-152806009D01*
X146714285Y-152806009D02*
X146666666Y-152758390D01*
X146666666Y-152758390D02*
X146571428Y-152710771D01*
X146571428Y-152710771D02*
X146380952Y-152710771D01*
X146380952Y-152710771D02*
X146285714Y-152758390D01*
X146285714Y-152758390D02*
X146238095Y-152806009D01*
X146238095Y-152806009D02*
X146190476Y-152901247D01*
X144285714Y-138329819D02*
X144285714Y-137329819D01*
X144285714Y-137329819D02*
X144523809Y-137329819D01*
X144523809Y-137329819D02*
X144666666Y-137377438D01*
X144666666Y-137377438D02*
X144761904Y-137472676D01*
X144761904Y-137472676D02*
X144809523Y-137567914D01*
X144809523Y-137567914D02*
X144857142Y-137758390D01*
X144857142Y-137758390D02*
X144857142Y-137901247D01*
X144857142Y-137901247D02*
X144809523Y-138091723D01*
X144809523Y-138091723D02*
X144761904Y-138186961D01*
X144761904Y-138186961D02*
X144666666Y-138282200D01*
X144666666Y-138282200D02*
X144523809Y-138329819D01*
X144523809Y-138329819D02*
X144285714Y-138329819D01*
X145238095Y-137425057D02*
X145285714Y-137377438D01*
X145285714Y-137377438D02*
X145380952Y-137329819D01*
X145380952Y-137329819D02*
X145619047Y-137329819D01*
X145619047Y-137329819D02*
X145714285Y-137377438D01*
X145714285Y-137377438D02*
X145761904Y-137425057D01*
X145761904Y-137425057D02*
X145809523Y-137520295D01*
X145809523Y-137520295D02*
X145809523Y-137615533D01*
X145809523Y-137615533D02*
X145761904Y-137758390D01*
X145761904Y-137758390D02*
X145190476Y-138329819D01*
X145190476Y-138329819D02*
X145809523Y-138329819D01*
X146285714Y-138329819D02*
X146476190Y-138329819D01*
X146476190Y-138329819D02*
X146571428Y-138282200D01*
X146571428Y-138282200D02*
X146619047Y-138234580D01*
X146619047Y-138234580D02*
X146714285Y-138091723D01*
X146714285Y-138091723D02*
X146761904Y-137901247D01*
X146761904Y-137901247D02*
X146761904Y-137520295D01*
X146761904Y-137520295D02*
X146714285Y-137425057D01*
X146714285Y-137425057D02*
X146666666Y-137377438D01*
X146666666Y-137377438D02*
X146571428Y-137329819D01*
X146571428Y-137329819D02*
X146380952Y-137329819D01*
X146380952Y-137329819D02*
X146285714Y-137377438D01*
X146285714Y-137377438D02*
X146238095Y-137425057D01*
X146238095Y-137425057D02*
X146190476Y-137520295D01*
X146190476Y-137520295D02*
X146190476Y-137758390D01*
X146190476Y-137758390D02*
X146238095Y-137853628D01*
X146238095Y-137853628D02*
X146285714Y-137901247D01*
X146285714Y-137901247D02*
X146380952Y-137948866D01*
X146380952Y-137948866D02*
X146571428Y-137948866D01*
X146571428Y-137948866D02*
X146666666Y-137901247D01*
X146666666Y-137901247D02*
X146714285Y-137853628D01*
X146714285Y-137853628D02*
X146761904Y-137758390D01*
X92261905Y-153204819D02*
X92261905Y-152204819D01*
X92261905Y-152204819D02*
X92500000Y-152204819D01*
X92500000Y-152204819D02*
X92642857Y-152252438D01*
X92642857Y-152252438D02*
X92738095Y-152347676D01*
X92738095Y-152347676D02*
X92785714Y-152442914D01*
X92785714Y-152442914D02*
X92833333Y-152633390D01*
X92833333Y-152633390D02*
X92833333Y-152776247D01*
X92833333Y-152776247D02*
X92785714Y-152966723D01*
X92785714Y-152966723D02*
X92738095Y-153061961D01*
X92738095Y-153061961D02*
X92642857Y-153157200D01*
X92642857Y-153157200D02*
X92500000Y-153204819D01*
X92500000Y-153204819D02*
X92261905Y-153204819D01*
X93404762Y-152633390D02*
X93309524Y-152585771D01*
X93309524Y-152585771D02*
X93261905Y-152538152D01*
X93261905Y-152538152D02*
X93214286Y-152442914D01*
X93214286Y-152442914D02*
X93214286Y-152395295D01*
X93214286Y-152395295D02*
X93261905Y-152300057D01*
X93261905Y-152300057D02*
X93309524Y-152252438D01*
X93309524Y-152252438D02*
X93404762Y-152204819D01*
X93404762Y-152204819D02*
X93595238Y-152204819D01*
X93595238Y-152204819D02*
X93690476Y-152252438D01*
X93690476Y-152252438D02*
X93738095Y-152300057D01*
X93738095Y-152300057D02*
X93785714Y-152395295D01*
X93785714Y-152395295D02*
X93785714Y-152442914D01*
X93785714Y-152442914D02*
X93738095Y-152538152D01*
X93738095Y-152538152D02*
X93690476Y-152585771D01*
X93690476Y-152585771D02*
X93595238Y-152633390D01*
X93595238Y-152633390D02*
X93404762Y-152633390D01*
X93404762Y-152633390D02*
X93309524Y-152681009D01*
X93309524Y-152681009D02*
X93261905Y-152728628D01*
X93261905Y-152728628D02*
X93214286Y-152823866D01*
X93214286Y-152823866D02*
X93214286Y-153014342D01*
X93214286Y-153014342D02*
X93261905Y-153109580D01*
X93261905Y-153109580D02*
X93309524Y-153157200D01*
X93309524Y-153157200D02*
X93404762Y-153204819D01*
X93404762Y-153204819D02*
X93595238Y-153204819D01*
X93595238Y-153204819D02*
X93690476Y-153157200D01*
X93690476Y-153157200D02*
X93738095Y-153109580D01*
X93738095Y-153109580D02*
X93785714Y-153014342D01*
X93785714Y-153014342D02*
X93785714Y-152823866D01*
X93785714Y-152823866D02*
X93738095Y-152728628D01*
X93738095Y-152728628D02*
X93690476Y-152681009D01*
X93690476Y-152681009D02*
X93595238Y-152633390D01*
X59833333Y-139754819D02*
X59500000Y-139278628D01*
X59261905Y-139754819D02*
X59261905Y-138754819D01*
X59261905Y-138754819D02*
X59642857Y-138754819D01*
X59642857Y-138754819D02*
X59738095Y-138802438D01*
X59738095Y-138802438D02*
X59785714Y-138850057D01*
X59785714Y-138850057D02*
X59833333Y-138945295D01*
X59833333Y-138945295D02*
X59833333Y-139088152D01*
X59833333Y-139088152D02*
X59785714Y-139183390D01*
X59785714Y-139183390D02*
X59738095Y-139231009D01*
X59738095Y-139231009D02*
X59642857Y-139278628D01*
X59642857Y-139278628D02*
X59261905Y-139278628D01*
X60690476Y-139088152D02*
X60690476Y-139754819D01*
X60452381Y-138707200D02*
X60214286Y-139421485D01*
X60214286Y-139421485D02*
X60833333Y-139421485D01*
X104785714Y-153204819D02*
X104785714Y-152204819D01*
X104785714Y-152204819D02*
X105023809Y-152204819D01*
X105023809Y-152204819D02*
X105166666Y-152252438D01*
X105166666Y-152252438D02*
X105261904Y-152347676D01*
X105261904Y-152347676D02*
X105309523Y-152442914D01*
X105309523Y-152442914D02*
X105357142Y-152633390D01*
X105357142Y-152633390D02*
X105357142Y-152776247D01*
X105357142Y-152776247D02*
X105309523Y-152966723D01*
X105309523Y-152966723D02*
X105261904Y-153061961D01*
X105261904Y-153061961D02*
X105166666Y-153157200D01*
X105166666Y-153157200D02*
X105023809Y-153204819D01*
X105023809Y-153204819D02*
X104785714Y-153204819D01*
X106309523Y-153204819D02*
X105738095Y-153204819D01*
X106023809Y-153204819D02*
X106023809Y-152204819D01*
X106023809Y-152204819D02*
X105928571Y-152347676D01*
X105928571Y-152347676D02*
X105833333Y-152442914D01*
X105833333Y-152442914D02*
X105738095Y-152490533D01*
X106690476Y-152300057D02*
X106738095Y-152252438D01*
X106738095Y-152252438D02*
X106833333Y-152204819D01*
X106833333Y-152204819D02*
X107071428Y-152204819D01*
X107071428Y-152204819D02*
X107166666Y-152252438D01*
X107166666Y-152252438D02*
X107214285Y-152300057D01*
X107214285Y-152300057D02*
X107261904Y-152395295D01*
X107261904Y-152395295D02*
X107261904Y-152490533D01*
X107261904Y-152490533D02*
X107214285Y-152633390D01*
X107214285Y-152633390D02*
X106642857Y-153204819D01*
X106642857Y-153204819D02*
X107261904Y-153204819D01*
X65433333Y-132159580D02*
X65385714Y-132207200D01*
X65385714Y-132207200D02*
X65242857Y-132254819D01*
X65242857Y-132254819D02*
X65147619Y-132254819D01*
X65147619Y-132254819D02*
X65004762Y-132207200D01*
X65004762Y-132207200D02*
X64909524Y-132111961D01*
X64909524Y-132111961D02*
X64861905Y-132016723D01*
X64861905Y-132016723D02*
X64814286Y-131826247D01*
X64814286Y-131826247D02*
X64814286Y-131683390D01*
X64814286Y-131683390D02*
X64861905Y-131492914D01*
X64861905Y-131492914D02*
X64909524Y-131397676D01*
X64909524Y-131397676D02*
X65004762Y-131302438D01*
X65004762Y-131302438D02*
X65147619Y-131254819D01*
X65147619Y-131254819D02*
X65242857Y-131254819D01*
X65242857Y-131254819D02*
X65385714Y-131302438D01*
X65385714Y-131302438D02*
X65433333Y-131350057D01*
X66338095Y-131254819D02*
X65861905Y-131254819D01*
X65861905Y-131254819D02*
X65814286Y-131731009D01*
X65814286Y-131731009D02*
X65861905Y-131683390D01*
X65861905Y-131683390D02*
X65957143Y-131635771D01*
X65957143Y-131635771D02*
X66195238Y-131635771D01*
X66195238Y-131635771D02*
X66290476Y-131683390D01*
X66290476Y-131683390D02*
X66338095Y-131731009D01*
X66338095Y-131731009D02*
X66385714Y-131826247D01*
X66385714Y-131826247D02*
X66385714Y-132064342D01*
X66385714Y-132064342D02*
X66338095Y-132159580D01*
X66338095Y-132159580D02*
X66290476Y-132207200D01*
X66290476Y-132207200D02*
X66195238Y-132254819D01*
X66195238Y-132254819D02*
X65957143Y-132254819D01*
X65957143Y-132254819D02*
X65861905Y-132207200D01*
X65861905Y-132207200D02*
X65814286Y-132159580D01*
X81261905Y-138204819D02*
X81261905Y-137204819D01*
X81261905Y-137204819D02*
X81500000Y-137204819D01*
X81500000Y-137204819D02*
X81642857Y-137252438D01*
X81642857Y-137252438D02*
X81738095Y-137347676D01*
X81738095Y-137347676D02*
X81785714Y-137442914D01*
X81785714Y-137442914D02*
X81833333Y-137633390D01*
X81833333Y-137633390D02*
X81833333Y-137776247D01*
X81833333Y-137776247D02*
X81785714Y-137966723D01*
X81785714Y-137966723D02*
X81738095Y-138061961D01*
X81738095Y-138061961D02*
X81642857Y-138157200D01*
X81642857Y-138157200D02*
X81500000Y-138204819D01*
X81500000Y-138204819D02*
X81261905Y-138204819D01*
X82166667Y-137204819D02*
X82785714Y-137204819D01*
X82785714Y-137204819D02*
X82452381Y-137585771D01*
X82452381Y-137585771D02*
X82595238Y-137585771D01*
X82595238Y-137585771D02*
X82690476Y-137633390D01*
X82690476Y-137633390D02*
X82738095Y-137681009D01*
X82738095Y-137681009D02*
X82785714Y-137776247D01*
X82785714Y-137776247D02*
X82785714Y-138014342D01*
X82785714Y-138014342D02*
X82738095Y-138109580D01*
X82738095Y-138109580D02*
X82690476Y-138157200D01*
X82690476Y-138157200D02*
X82595238Y-138204819D01*
X82595238Y-138204819D02*
X82309524Y-138204819D01*
X82309524Y-138204819D02*
X82214286Y-138157200D01*
X82214286Y-138157200D02*
X82166667Y-138109580D01*
X98285714Y-153204819D02*
X98285714Y-152204819D01*
X98285714Y-152204819D02*
X98523809Y-152204819D01*
X98523809Y-152204819D02*
X98666666Y-152252438D01*
X98666666Y-152252438D02*
X98761904Y-152347676D01*
X98761904Y-152347676D02*
X98809523Y-152442914D01*
X98809523Y-152442914D02*
X98857142Y-152633390D01*
X98857142Y-152633390D02*
X98857142Y-152776247D01*
X98857142Y-152776247D02*
X98809523Y-152966723D01*
X98809523Y-152966723D02*
X98761904Y-153061961D01*
X98761904Y-153061961D02*
X98666666Y-153157200D01*
X98666666Y-153157200D02*
X98523809Y-153204819D01*
X98523809Y-153204819D02*
X98285714Y-153204819D01*
X99809523Y-153204819D02*
X99238095Y-153204819D01*
X99523809Y-153204819D02*
X99523809Y-152204819D01*
X99523809Y-152204819D02*
X99428571Y-152347676D01*
X99428571Y-152347676D02*
X99333333Y-152442914D01*
X99333333Y-152442914D02*
X99238095Y-152490533D01*
X100428571Y-152204819D02*
X100523809Y-152204819D01*
X100523809Y-152204819D02*
X100619047Y-152252438D01*
X100619047Y-152252438D02*
X100666666Y-152300057D01*
X100666666Y-152300057D02*
X100714285Y-152395295D01*
X100714285Y-152395295D02*
X100761904Y-152585771D01*
X100761904Y-152585771D02*
X100761904Y-152823866D01*
X100761904Y-152823866D02*
X100714285Y-153014342D01*
X100714285Y-153014342D02*
X100666666Y-153109580D01*
X100666666Y-153109580D02*
X100619047Y-153157200D01*
X100619047Y-153157200D02*
X100523809Y-153204819D01*
X100523809Y-153204819D02*
X100428571Y-153204819D01*
X100428571Y-153204819D02*
X100333333Y-153157200D01*
X100333333Y-153157200D02*
X100285714Y-153109580D01*
X100285714Y-153109580D02*
X100238095Y-153014342D01*
X100238095Y-153014342D02*
X100190476Y-152823866D01*
X100190476Y-152823866D02*
X100190476Y-152585771D01*
X100190476Y-152585771D02*
X100238095Y-152395295D01*
X100238095Y-152395295D02*
X100285714Y-152300057D01*
X100285714Y-152300057D02*
X100333333Y-152252438D01*
X100333333Y-152252438D02*
X100428571Y-152204819D01*
X55833333Y-146504819D02*
X55500000Y-146028628D01*
X55261905Y-146504819D02*
X55261905Y-145504819D01*
X55261905Y-145504819D02*
X55642857Y-145504819D01*
X55642857Y-145504819D02*
X55738095Y-145552438D01*
X55738095Y-145552438D02*
X55785714Y-145600057D01*
X55785714Y-145600057D02*
X55833333Y-145695295D01*
X55833333Y-145695295D02*
X55833333Y-145838152D01*
X55833333Y-145838152D02*
X55785714Y-145933390D01*
X55785714Y-145933390D02*
X55738095Y-145981009D01*
X55738095Y-145981009D02*
X55642857Y-146028628D01*
X55642857Y-146028628D02*
X55261905Y-146028628D01*
X56785714Y-146504819D02*
X56214286Y-146504819D01*
X56500000Y-146504819D02*
X56500000Y-145504819D01*
X56500000Y-145504819D02*
X56404762Y-145647676D01*
X56404762Y-145647676D02*
X56309524Y-145742914D01*
X56309524Y-145742914D02*
X56214286Y-145790533D01*
X67198095Y-134244819D02*
X67198095Y-135054342D01*
X67198095Y-135054342D02*
X67245714Y-135149580D01*
X67245714Y-135149580D02*
X67293333Y-135197200D01*
X67293333Y-135197200D02*
X67388571Y-135244819D01*
X67388571Y-135244819D02*
X67579047Y-135244819D01*
X67579047Y-135244819D02*
X67674285Y-135197200D01*
X67674285Y-135197200D02*
X67721904Y-135149580D01*
X67721904Y-135149580D02*
X67769523Y-135054342D01*
X67769523Y-135054342D02*
X67769523Y-134244819D01*
X68769523Y-135244819D02*
X68198095Y-135244819D01*
X68483809Y-135244819D02*
X68483809Y-134244819D01*
X68483809Y-134244819D02*
X68388571Y-134387676D01*
X68388571Y-134387676D02*
X68293333Y-134482914D01*
X68293333Y-134482914D02*
X68198095Y-134530533D01*
X84261905Y-148204819D02*
X84261905Y-147204819D01*
X84261905Y-147204819D02*
X84500000Y-147204819D01*
X84500000Y-147204819D02*
X84642857Y-147252438D01*
X84642857Y-147252438D02*
X84738095Y-147347676D01*
X84738095Y-147347676D02*
X84785714Y-147442914D01*
X84785714Y-147442914D02*
X84833333Y-147633390D01*
X84833333Y-147633390D02*
X84833333Y-147776247D01*
X84833333Y-147776247D02*
X84785714Y-147966723D01*
X84785714Y-147966723D02*
X84738095Y-148061961D01*
X84738095Y-148061961D02*
X84642857Y-148157200D01*
X84642857Y-148157200D02*
X84500000Y-148204819D01*
X84500000Y-148204819D02*
X84261905Y-148204819D01*
X85738095Y-147204819D02*
X85261905Y-147204819D01*
X85261905Y-147204819D02*
X85214286Y-147681009D01*
X85214286Y-147681009D02*
X85261905Y-147633390D01*
X85261905Y-147633390D02*
X85357143Y-147585771D01*
X85357143Y-147585771D02*
X85595238Y-147585771D01*
X85595238Y-147585771D02*
X85690476Y-147633390D01*
X85690476Y-147633390D02*
X85738095Y-147681009D01*
X85738095Y-147681009D02*
X85785714Y-147776247D01*
X85785714Y-147776247D02*
X85785714Y-148014342D01*
X85785714Y-148014342D02*
X85738095Y-148109580D01*
X85738095Y-148109580D02*
X85690476Y-148157200D01*
X85690476Y-148157200D02*
X85595238Y-148204819D01*
X85595238Y-148204819D02*
X85357143Y-148204819D01*
X85357143Y-148204819D02*
X85261905Y-148157200D01*
X85261905Y-148157200D02*
X85214286Y-148109580D01*
X51361905Y-146504819D02*
X51361905Y-145504819D01*
X51361905Y-145504819D02*
X51600000Y-145504819D01*
X51600000Y-145504819D02*
X51742857Y-145552438D01*
X51742857Y-145552438D02*
X51838095Y-145647676D01*
X51838095Y-145647676D02*
X51885714Y-145742914D01*
X51885714Y-145742914D02*
X51933333Y-145933390D01*
X51933333Y-145933390D02*
X51933333Y-146076247D01*
X51933333Y-146076247D02*
X51885714Y-146266723D01*
X51885714Y-146266723D02*
X51838095Y-146361961D01*
X51838095Y-146361961D02*
X51742857Y-146457200D01*
X51742857Y-146457200D02*
X51600000Y-146504819D01*
X51600000Y-146504819D02*
X51361905Y-146504819D01*
X52885714Y-146504819D02*
X52314286Y-146504819D01*
X52600000Y-146504819D02*
X52600000Y-145504819D01*
X52600000Y-145504819D02*
X52504762Y-145647676D01*
X52504762Y-145647676D02*
X52409524Y-145742914D01*
X52409524Y-145742914D02*
X52314286Y-145790533D01*
X106285714Y-148204819D02*
X106285714Y-147204819D01*
X106285714Y-147204819D02*
X106523809Y-147204819D01*
X106523809Y-147204819D02*
X106666666Y-147252438D01*
X106666666Y-147252438D02*
X106761904Y-147347676D01*
X106761904Y-147347676D02*
X106809523Y-147442914D01*
X106809523Y-147442914D02*
X106857142Y-147633390D01*
X106857142Y-147633390D02*
X106857142Y-147776247D01*
X106857142Y-147776247D02*
X106809523Y-147966723D01*
X106809523Y-147966723D02*
X106761904Y-148061961D01*
X106761904Y-148061961D02*
X106666666Y-148157200D01*
X106666666Y-148157200D02*
X106523809Y-148204819D01*
X106523809Y-148204819D02*
X106285714Y-148204819D01*
X107809523Y-148204819D02*
X107238095Y-148204819D01*
X107523809Y-148204819D02*
X107523809Y-147204819D01*
X107523809Y-147204819D02*
X107428571Y-147347676D01*
X107428571Y-147347676D02*
X107333333Y-147442914D01*
X107333333Y-147442914D02*
X107238095Y-147490533D01*
X108142857Y-147204819D02*
X108761904Y-147204819D01*
X108761904Y-147204819D02*
X108428571Y-147585771D01*
X108428571Y-147585771D02*
X108571428Y-147585771D01*
X108571428Y-147585771D02*
X108666666Y-147633390D01*
X108666666Y-147633390D02*
X108714285Y-147681009D01*
X108714285Y-147681009D02*
X108761904Y-147776247D01*
X108761904Y-147776247D02*
X108761904Y-148014342D01*
X108761904Y-148014342D02*
X108714285Y-148109580D01*
X108714285Y-148109580D02*
X108666666Y-148157200D01*
X108666666Y-148157200D02*
X108571428Y-148204819D01*
X108571428Y-148204819D02*
X108285714Y-148204819D01*
X108285714Y-148204819D02*
X108190476Y-148157200D01*
X108190476Y-148157200D02*
X108142857Y-148109580D01*
X144285714Y-148329819D02*
X144285714Y-147329819D01*
X144285714Y-147329819D02*
X144523809Y-147329819D01*
X144523809Y-147329819D02*
X144666666Y-147377438D01*
X144666666Y-147377438D02*
X144761904Y-147472676D01*
X144761904Y-147472676D02*
X144809523Y-147567914D01*
X144809523Y-147567914D02*
X144857142Y-147758390D01*
X144857142Y-147758390D02*
X144857142Y-147901247D01*
X144857142Y-147901247D02*
X144809523Y-148091723D01*
X144809523Y-148091723D02*
X144761904Y-148186961D01*
X144761904Y-148186961D02*
X144666666Y-148282200D01*
X144666666Y-148282200D02*
X144523809Y-148329819D01*
X144523809Y-148329819D02*
X144285714Y-148329819D01*
X145238095Y-147425057D02*
X145285714Y-147377438D01*
X145285714Y-147377438D02*
X145380952Y-147329819D01*
X145380952Y-147329819D02*
X145619047Y-147329819D01*
X145619047Y-147329819D02*
X145714285Y-147377438D01*
X145714285Y-147377438D02*
X145761904Y-147425057D01*
X145761904Y-147425057D02*
X145809523Y-147520295D01*
X145809523Y-147520295D02*
X145809523Y-147615533D01*
X145809523Y-147615533D02*
X145761904Y-147758390D01*
X145761904Y-147758390D02*
X145190476Y-148329819D01*
X145190476Y-148329819D02*
X145809523Y-148329819D01*
X146142857Y-147329819D02*
X146809523Y-147329819D01*
X146809523Y-147329819D02*
X146380952Y-148329819D01*
X119785714Y-143204819D02*
X119785714Y-142204819D01*
X119785714Y-142204819D02*
X120023809Y-142204819D01*
X120023809Y-142204819D02*
X120166666Y-142252438D01*
X120166666Y-142252438D02*
X120261904Y-142347676D01*
X120261904Y-142347676D02*
X120309523Y-142442914D01*
X120309523Y-142442914D02*
X120357142Y-142633390D01*
X120357142Y-142633390D02*
X120357142Y-142776247D01*
X120357142Y-142776247D02*
X120309523Y-142966723D01*
X120309523Y-142966723D02*
X120261904Y-143061961D01*
X120261904Y-143061961D02*
X120166666Y-143157200D01*
X120166666Y-143157200D02*
X120023809Y-143204819D01*
X120023809Y-143204819D02*
X119785714Y-143204819D01*
X121309523Y-143204819D02*
X120738095Y-143204819D01*
X121023809Y-143204819D02*
X121023809Y-142204819D01*
X121023809Y-142204819D02*
X120928571Y-142347676D01*
X120928571Y-142347676D02*
X120833333Y-142442914D01*
X120833333Y-142442914D02*
X120738095Y-142490533D01*
X121785714Y-143204819D02*
X121976190Y-143204819D01*
X121976190Y-143204819D02*
X122071428Y-143157200D01*
X122071428Y-143157200D02*
X122119047Y-143109580D01*
X122119047Y-143109580D02*
X122214285Y-142966723D01*
X122214285Y-142966723D02*
X122261904Y-142776247D01*
X122261904Y-142776247D02*
X122261904Y-142395295D01*
X122261904Y-142395295D02*
X122214285Y-142300057D01*
X122214285Y-142300057D02*
X122166666Y-142252438D01*
X122166666Y-142252438D02*
X122071428Y-142204819D01*
X122071428Y-142204819D02*
X121880952Y-142204819D01*
X121880952Y-142204819D02*
X121785714Y-142252438D01*
X121785714Y-142252438D02*
X121738095Y-142300057D01*
X121738095Y-142300057D02*
X121690476Y-142395295D01*
X121690476Y-142395295D02*
X121690476Y-142633390D01*
X121690476Y-142633390D02*
X121738095Y-142728628D01*
X121738095Y-142728628D02*
X121785714Y-142776247D01*
X121785714Y-142776247D02*
X121880952Y-142823866D01*
X121880952Y-142823866D02*
X122071428Y-142823866D01*
X122071428Y-142823866D02*
X122166666Y-142776247D01*
X122166666Y-142776247D02*
X122214285Y-142728628D01*
X122214285Y-142728628D02*
X122261904Y-142633390D01*
X144285714Y-158329819D02*
X144285714Y-157329819D01*
X144285714Y-157329819D02*
X144523809Y-157329819D01*
X144523809Y-157329819D02*
X144666666Y-157377438D01*
X144666666Y-157377438D02*
X144761904Y-157472676D01*
X144761904Y-157472676D02*
X144809523Y-157567914D01*
X144809523Y-157567914D02*
X144857142Y-157758390D01*
X144857142Y-157758390D02*
X144857142Y-157901247D01*
X144857142Y-157901247D02*
X144809523Y-158091723D01*
X144809523Y-158091723D02*
X144761904Y-158186961D01*
X144761904Y-158186961D02*
X144666666Y-158282200D01*
X144666666Y-158282200D02*
X144523809Y-158329819D01*
X144523809Y-158329819D02*
X144285714Y-158329819D01*
X145238095Y-157425057D02*
X145285714Y-157377438D01*
X145285714Y-157377438D02*
X145380952Y-157329819D01*
X145380952Y-157329819D02*
X145619047Y-157329819D01*
X145619047Y-157329819D02*
X145714285Y-157377438D01*
X145714285Y-157377438D02*
X145761904Y-157425057D01*
X145761904Y-157425057D02*
X145809523Y-157520295D01*
X145809523Y-157520295D02*
X145809523Y-157615533D01*
X145809523Y-157615533D02*
X145761904Y-157758390D01*
X145761904Y-157758390D02*
X145190476Y-158329819D01*
X145190476Y-158329819D02*
X145809523Y-158329819D01*
X146714285Y-157329819D02*
X146238095Y-157329819D01*
X146238095Y-157329819D02*
X146190476Y-157806009D01*
X146190476Y-157806009D02*
X146238095Y-157758390D01*
X146238095Y-157758390D02*
X146333333Y-157710771D01*
X146333333Y-157710771D02*
X146571428Y-157710771D01*
X146571428Y-157710771D02*
X146666666Y-157758390D01*
X146666666Y-157758390D02*
X146714285Y-157806009D01*
X146714285Y-157806009D02*
X146761904Y-157901247D01*
X146761904Y-157901247D02*
X146761904Y-158139342D01*
X146761904Y-158139342D02*
X146714285Y-158234580D01*
X146714285Y-158234580D02*
X146666666Y-158282200D01*
X146666666Y-158282200D02*
X146571428Y-158329819D01*
X146571428Y-158329819D02*
X146333333Y-158329819D01*
X146333333Y-158329819D02*
X146238095Y-158282200D01*
X146238095Y-158282200D02*
X146190476Y-158234580D01*
D12*
X148450000Y-142075000D02*
X142550000Y-142075000D01*
X148450000Y-138175000D02*
X142550000Y-138175000D01*
X142550000Y-138175000D02*
X142550000Y-139250000D01*
X50210000Y-149940000D02*
X50210000Y-151860000D01*
X50210000Y-151860000D02*
X53070000Y-151860000D01*
X53070000Y-149940000D02*
X50210000Y-149940000D01*
X123950000Y-146950000D02*
X118050000Y-146950000D01*
X123950000Y-143050000D02*
X118050000Y-143050000D01*
X118050000Y-143050000D02*
X118050000Y-144125000D01*
X89450000Y-151950000D02*
X83550000Y-151950000D01*
X89450000Y-148050000D02*
X83550000Y-148050000D01*
X83550000Y-148050000D02*
X83550000Y-149125000D01*
X113450000Y-136950000D02*
X107550000Y-136950000D01*
X113450000Y-133050000D02*
X107550000Y-133050000D01*
X107550000Y-133050000D02*
X107550000Y-134125000D01*
X70077000Y-156837748D02*
X70077000Y-157360252D01*
X68607000Y-156837748D02*
X68607000Y-157360252D01*
X137950000Y-143950000D02*
X132050000Y-143950000D01*
X137950000Y-140050000D02*
X132050000Y-140050000D01*
X132050000Y-140050000D02*
X132050000Y-141125000D01*
X61147000Y-152594000D02*
X61147000Y-153924000D01*
X59817000Y-152594000D02*
X61147000Y-152594000D01*
X58547000Y-152594000D02*
X53407000Y-152594000D01*
X58547000Y-152594000D02*
X58547000Y-155194000D01*
X53407000Y-152594000D02*
X53407000Y-157794000D01*
X61147000Y-155194000D02*
X61147000Y-157794000D01*
X58547000Y-155194000D02*
X61147000Y-155194000D01*
X61147000Y-157794000D02*
X53407000Y-157794000D01*
X55660000Y-135652000D02*
X58460000Y-135652000D01*
X55660000Y-137652000D02*
X55660000Y-135652000D01*
X58460000Y-135652000D02*
X58460000Y-137652000D01*
X58460000Y-137652000D02*
X55660000Y-137652000D01*
X130950000Y-136950000D02*
X125050000Y-136950000D01*
X130950000Y-133050000D02*
X125050000Y-133050000D01*
X125050000Y-133050000D02*
X125050000Y-134125000D01*
X70614000Y-154581000D02*
X70614000Y-150981000D01*
X70614000Y-150981000D02*
X64864000Y-150981000D01*
X64864000Y-154581000D02*
X70614000Y-154581000D01*
X86450000Y-141950000D02*
X80550000Y-141950000D01*
X86450000Y-138050000D02*
X80550000Y-138050000D01*
X80550000Y-138050000D02*
X80550000Y-139125000D01*
X106950000Y-156950000D02*
X101050000Y-156950000D01*
X106950000Y-153050000D02*
X101050000Y-153050000D01*
X101050000Y-153050000D02*
X101050000Y-154125000D01*
X48800000Y-129330000D02*
X48800000Y-128000000D01*
X50130000Y-129330000D02*
X48800000Y-129330000D01*
X51400000Y-129330000D02*
X74320000Y-129330000D01*
X51400000Y-129330000D02*
X51400000Y-126670000D01*
X74320000Y-129330000D02*
X74320000Y-126670000D01*
X51400000Y-126670000D02*
X74320000Y-126670000D01*
X66267000Y-156837748D02*
X66267000Y-157360252D01*
X64797000Y-156837748D02*
X64797000Y-157360252D01*
X57411252Y-143835000D02*
X56888748Y-143835000D01*
X57411252Y-142365000D02*
X56888748Y-142365000D01*
X48800000Y-163830000D02*
X48800000Y-162500000D01*
X50130000Y-163830000D02*
X48800000Y-163830000D01*
X51400000Y-163830000D02*
X74320000Y-163830000D01*
X51400000Y-163830000D02*
X51400000Y-161170000D01*
X74320000Y-163830000D02*
X74320000Y-161170000D01*
X51400000Y-161170000D02*
X74320000Y-161170000D01*
X61922936Y-150015000D02*
X62377064Y-150015000D01*
X61922936Y-151485000D02*
X62377064Y-151485000D01*
X52369000Y-136797000D02*
X52369000Y-137457000D01*
X50639000Y-136797000D02*
X52369000Y-136797000D01*
X48069000Y-136797000D02*
X48279000Y-136797000D01*
X53069000Y-138847000D02*
X52679000Y-138847000D01*
X53069000Y-138847000D02*
X53069000Y-139297000D01*
X52369000Y-144417000D02*
X52369000Y-143767000D01*
X50639000Y-144417000D02*
X52369000Y-144417000D01*
X48069000Y-144417000D02*
X48279000Y-144417000D01*
X123950000Y-136950000D02*
X118050000Y-136950000D01*
X123950000Y-133050000D02*
X118050000Y-133050000D01*
X118050000Y-133050000D02*
X118050000Y-134125000D01*
X55625000Y-134485000D02*
X55000000Y-134485000D01*
X55312500Y-134797500D02*
X55312500Y-134172500D01*
X54760000Y-134495563D02*
X54760000Y-133860000D01*
X54760000Y-134495563D02*
X53695563Y-135560000D01*
X54760000Y-131104437D02*
X54760000Y-131740000D01*
X54760000Y-131104437D02*
X53695563Y-130040000D01*
X53695563Y-135560000D02*
X49240000Y-135560000D01*
X53695563Y-130040000D02*
X49240000Y-130040000D01*
X49240000Y-135560000D02*
X49240000Y-133860000D01*
X49240000Y-130040000D02*
X49240000Y-131740000D01*
X111950000Y-141950000D02*
X106050000Y-141950000D01*
X111950000Y-138050000D02*
X106050000Y-138050000D01*
X106050000Y-138050000D02*
X106050000Y-139125000D01*
X75965000Y-135477064D02*
X75965000Y-135022936D01*
X77435000Y-135477064D02*
X77435000Y-135022936D01*
X123950000Y-151950000D02*
X118050000Y-151950000D01*
X123950000Y-148050000D02*
X118050000Y-148050000D01*
X118050000Y-148050000D02*
X118050000Y-149125000D01*
X57377064Y-141900000D02*
X56922936Y-141900000D01*
X57377064Y-140430000D02*
X56922936Y-140430000D01*
X63011252Y-134735000D02*
X62488748Y-134735000D01*
X63011252Y-133265000D02*
X62488748Y-133265000D01*
X91450000Y-156950000D02*
X85550000Y-156950000D01*
X91450000Y-153050000D02*
X85550000Y-153050000D01*
X85550000Y-153050000D02*
X85550000Y-154125000D01*
X130950000Y-148075000D02*
X125050000Y-148075000D01*
X130950000Y-144175000D02*
X125050000Y-144175000D01*
X125050000Y-144175000D02*
X125050000Y-145250000D01*
X55779936Y-150165000D02*
X56234064Y-150165000D01*
X55779936Y-151635000D02*
X56234064Y-151635000D01*
X137950000Y-138950000D02*
X132050000Y-138950000D01*
X137950000Y-135050000D02*
X132050000Y-135050000D01*
X132050000Y-135050000D02*
X132050000Y-136125000D01*
X99200000Y-146950000D02*
X93300000Y-146950000D01*
X99200000Y-143050000D02*
X93300000Y-143050000D01*
X93300000Y-143050000D02*
X93300000Y-144125000D01*
X123950000Y-156950000D02*
X118050000Y-156950000D01*
X123950000Y-153050000D02*
X118050000Y-153050000D01*
X118050000Y-153050000D02*
X118050000Y-154125000D01*
X148450000Y-152075000D02*
X142550000Y-152075000D01*
X148450000Y-148175000D02*
X142550000Y-148175000D01*
X142550000Y-148175000D02*
X142550000Y-149250000D01*
X148450000Y-137075000D02*
X142550000Y-137075000D01*
X148450000Y-133175000D02*
X142550000Y-133175000D01*
X142550000Y-133175000D02*
X142550000Y-134250000D01*
X95950000Y-151950000D02*
X90050000Y-151950000D01*
X95950000Y-148050000D02*
X90050000Y-148050000D01*
X90050000Y-148050000D02*
X90050000Y-149125000D01*
X57377064Y-139995000D02*
X56922936Y-139995000D01*
X57377064Y-138525000D02*
X56922936Y-138525000D01*
X108950000Y-151950000D02*
X103050000Y-151950000D01*
X108950000Y-148050000D02*
X103050000Y-148050000D01*
X103050000Y-148050000D02*
X103050000Y-149125000D01*
X63011252Y-132485000D02*
X62488748Y-132485000D01*
X63011252Y-131015000D02*
X62488748Y-131015000D01*
X84950000Y-136950000D02*
X79050000Y-136950000D01*
X84950000Y-133050000D02*
X79050000Y-133050000D01*
X79050000Y-133050000D02*
X79050000Y-134125000D01*
X102450000Y-151950000D02*
X96550000Y-151950000D01*
X102450000Y-148050000D02*
X96550000Y-148050000D01*
X96550000Y-148050000D02*
X96550000Y-149125000D01*
X55772936Y-146865000D02*
X56227064Y-146865000D01*
X55772936Y-148335000D02*
X56227064Y-148335000D01*
D10*
X62785000Y-137065000D02*
X62785000Y-137640000D01*
X62785000Y-137065000D02*
X63460000Y-137065000D01*
X62785000Y-137640000D02*
X61510000Y-137640000D01*
X62785000Y-147415000D02*
X62785000Y-146740000D01*
X62785000Y-147415000D02*
X63460000Y-147415000D01*
X73135000Y-137065000D02*
X72460000Y-137065000D01*
X73135000Y-137065000D02*
X73135000Y-137740000D01*
X73135000Y-147415000D02*
X72460000Y-147415000D01*
X73135000Y-147415000D02*
X73135000Y-146740000D01*
D12*
X87950000Y-146950000D02*
X82050000Y-146950000D01*
X87950000Y-143050000D02*
X82050000Y-143050000D01*
X82050000Y-143050000D02*
X82050000Y-144125000D01*
X50240000Y-146640000D02*
X50240000Y-148560000D01*
X50240000Y-148560000D02*
X53100000Y-148560000D01*
X53100000Y-146640000D02*
X50240000Y-146640000D01*
X110450000Y-146950000D02*
X104550000Y-146950000D01*
X110450000Y-143050000D02*
X104550000Y-143050000D01*
X104550000Y-143050000D02*
X104550000Y-144125000D01*
X148450000Y-147075000D02*
X142550000Y-147075000D01*
X148450000Y-143175000D02*
X142550000Y-143175000D01*
X142550000Y-143175000D02*
X142550000Y-144250000D01*
X123950000Y-141950000D02*
X118050000Y-141950000D01*
X123950000Y-138050000D02*
X118050000Y-138050000D01*
X118050000Y-138050000D02*
X118050000Y-139125000D01*
X148450000Y-157075000D02*
X142550000Y-157075000D01*
X148450000Y-153175000D02*
X142550000Y-153175000D01*
X142550000Y-153175000D02*
X142550000Y-154250000D01*
%LPC*%
D13*
G36*
X121136075Y-161228687D02*
G01*
X121159042Y-161233513D01*
X121166748Y-161240185D01*
X121165902Y-161256049D01*
X121160558Y-161293263D01*
X121151269Y-161348690D01*
X121138589Y-161419194D01*
X121123073Y-161501641D01*
X121105274Y-161592894D01*
X121097740Y-161630659D01*
X121078926Y-161725294D01*
X121061834Y-161813026D01*
X121047076Y-161890579D01*
X121035262Y-161954676D01*
X121027003Y-162002040D01*
X121022911Y-162029396D01*
X121022575Y-162033784D01*
X121022575Y-162062500D01*
X121226537Y-162062500D01*
X121312119Y-162062707D01*
X121375586Y-162064318D01*
X121419837Y-162068819D01*
X121447767Y-162077695D01*
X121462276Y-162092431D01*
X121466260Y-162114511D01*
X121462617Y-162145422D01*
X121455649Y-162179931D01*
X121442361Y-162233150D01*
X121427553Y-162265603D01*
X121407915Y-162281461D01*
X121380137Y-162284893D01*
X121372748Y-162284408D01*
X121351939Y-162283525D01*
X121309904Y-162282471D01*
X121250431Y-162281314D01*
X121177304Y-162280122D01*
X121094310Y-162278964D01*
X121025702Y-162278134D01*
X120709921Y-162274570D01*
X120710644Y-162234160D01*
X120713209Y-162213154D01*
X120720215Y-162170567D01*
X120731119Y-162109316D01*
X120745379Y-162032318D01*
X120762453Y-161942491D01*
X120781798Y-161842751D01*
X120802874Y-161736018D01*
X120807566Y-161712500D01*
X120903767Y-161231250D01*
X121032179Y-161227685D01*
X121094903Y-161226848D01*
X121136075Y-161228687D01*
G37*
G36*
X121010470Y-160470321D02*
G01*
X121109728Y-160476194D01*
X121192953Y-160485960D01*
X121222674Y-160491447D01*
X121416843Y-160543749D01*
X121597619Y-160614493D01*
X121763500Y-160702777D01*
X121912982Y-160807703D01*
X122044565Y-160928369D01*
X122140424Y-161041582D01*
X122164513Y-161075505D01*
X122180918Y-161102023D01*
X122185648Y-161113457D01*
X122173509Y-161116528D01*
X122138562Y-161119221D01*
X122083005Y-161121473D01*
X122009041Y-161123223D01*
X121918869Y-161124408D01*
X121814691Y-161124964D01*
X121779115Y-161125000D01*
X121667670Y-161124970D01*
X121578556Y-161124763D01*
X121509090Y-161124204D01*
X121456591Y-161123118D01*
X121418377Y-161121330D01*
X121391767Y-161118664D01*
X121374078Y-161114944D01*
X121362629Y-161109997D01*
X121354737Y-161103646D01*
X121348706Y-161096875D01*
X121327207Y-161071220D01*
X121297879Y-161035827D01*
X121278682Y-161012500D01*
X121182560Y-160914854D01*
X121069086Y-160834543D01*
X120938996Y-160771636D01*
X120793027Y-160726201D01*
X120631916Y-160698309D01*
X120456401Y-160688027D01*
X120267217Y-160695425D01*
X120065102Y-160720572D01*
X119850792Y-160763537D01*
X119625026Y-160824389D01*
X119543723Y-160849833D01*
X119480573Y-160869944D01*
X119426733Y-160886441D01*
X119386236Y-160898140D01*
X119363116Y-160903858D01*
X119359257Y-160903969D01*
X119370162Y-160895867D01*
X119400427Y-160879704D01*
X119446377Y-160857158D01*
X119504333Y-160829907D01*
X119570622Y-160799630D01*
X119641566Y-160768004D01*
X119713489Y-160736707D01*
X119782715Y-160707418D01*
X119845569Y-160681816D01*
X119847906Y-160680890D01*
X120064097Y-160603946D01*
X120288381Y-160540260D01*
X120484811Y-160497598D01*
X120573750Y-160484759D01*
X120676818Y-160475561D01*
X120787982Y-160470055D01*
X120901211Y-160468292D01*
X121010470Y-160470321D01*
G37*
G36*
X121797011Y-162375193D02*
G01*
X121887245Y-162375744D01*
X121966090Y-162376604D01*
X122030627Y-162377726D01*
X122077943Y-162379064D01*
X122105120Y-162380571D01*
X122110611Y-162381653D01*
X122103287Y-162398542D01*
X122083253Y-162430899D01*
X122053417Y-162474664D01*
X122016685Y-162525776D01*
X121975964Y-162580177D01*
X121934162Y-162633804D01*
X121900577Y-162675000D01*
X121753258Y-162832292D01*
X121585734Y-162976801D01*
X121399883Y-163107482D01*
X121197585Y-163223292D01*
X120980716Y-163323188D01*
X120751155Y-163406125D01*
X120510781Y-163471061D01*
X120441039Y-163486028D01*
X120275792Y-163516519D01*
X120127954Y-163537000D01*
X119992149Y-163547774D01*
X119863003Y-163549146D01*
X119735138Y-163541419D01*
X119645157Y-163530983D01*
X119459847Y-163497030D01*
X119284297Y-163447602D01*
X119121407Y-163383932D01*
X118974078Y-163307250D01*
X118845211Y-163218789D01*
X118782194Y-163164569D01*
X118674345Y-163048883D01*
X118588145Y-162923642D01*
X118522466Y-162786609D01*
X118476182Y-162635547D01*
X118453629Y-162512500D01*
X118445873Y-162456250D01*
X118491255Y-162537500D01*
X118577931Y-162674465D01*
X118673886Y-162790064D01*
X118781984Y-162887095D01*
X118905091Y-162968355D01*
X118964745Y-162999831D01*
X119081182Y-163051457D01*
X119195245Y-163089120D01*
X119314253Y-163114560D01*
X119445530Y-163129519D01*
X119529091Y-163134039D01*
X119758865Y-163132278D01*
X119984838Y-163110577D01*
X120204195Y-163069660D01*
X120414120Y-163010254D01*
X120611800Y-162933081D01*
X120794417Y-162838868D01*
X120877216Y-162786925D01*
X120949918Y-162732961D01*
X121028711Y-162665512D01*
X121106727Y-162591129D01*
X121177099Y-162516365D01*
X121232961Y-162447772D01*
X121233616Y-162446875D01*
X121285994Y-162375000D01*
X121698302Y-162375000D01*
X121797011Y-162375193D01*
G37*
G36*
X119357520Y-161226083D02*
G01*
X119397487Y-161228742D01*
X119422412Y-161233171D01*
X119427099Y-161235977D01*
X119427246Y-161252205D01*
X119422436Y-161289221D01*
X119413417Y-161343473D01*
X119400935Y-161411407D01*
X119385739Y-161489471D01*
X119368577Y-161574111D01*
X119350197Y-161661776D01*
X119331345Y-161748912D01*
X119312770Y-161831966D01*
X119295220Y-161907386D01*
X119279442Y-161971618D01*
X119266184Y-162021110D01*
X119256194Y-162052310D01*
X119254379Y-162056652D01*
X119206410Y-162133530D01*
X119139118Y-162201179D01*
X119057887Y-162254271D01*
X119051489Y-162257465D01*
X118989192Y-162279240D01*
X118913337Y-162292920D01*
X118833539Y-162297785D01*
X118759413Y-162293115D01*
X118712991Y-162282813D01*
X118667830Y-162264893D01*
X118624122Y-162242908D01*
X118617807Y-162239147D01*
X118585257Y-162213444D01*
X118553923Y-162179624D01*
X118528485Y-162144061D01*
X118513624Y-162113130D01*
X118512568Y-162095813D01*
X118526055Y-162082270D01*
X118555304Y-162061737D01*
X118593573Y-162038130D01*
X118634117Y-162015365D01*
X118670192Y-161997358D01*
X118695056Y-161988025D01*
X118699100Y-161987500D01*
X118715423Y-161996059D01*
X118740435Y-162017751D01*
X118753507Y-162031250D01*
X118780861Y-162057851D01*
X118806319Y-162070783D01*
X118841262Y-162074811D01*
X118858011Y-162075000D01*
X118918149Y-162068489D01*
X118961245Y-162046895D01*
X118992205Y-162007129D01*
X119003025Y-161983631D01*
X119010984Y-161957601D01*
X119022724Y-161910800D01*
X119037398Y-161847029D01*
X119054156Y-161770084D01*
X119072152Y-161683765D01*
X119090537Y-161591869D01*
X119090729Y-161590885D01*
X119108407Y-161501541D01*
X119124890Y-161420049D01*
X119139486Y-161349688D01*
X119151503Y-161293738D01*
X119160249Y-161255477D01*
X119165032Y-161238185D01*
X119165250Y-161237760D01*
X119180485Y-161232246D01*
X119213992Y-161228277D01*
X119259109Y-161225896D01*
X119309173Y-161225150D01*
X119357520Y-161226083D01*
G37*
G36*
X122295364Y-161204813D02*
G01*
X122379686Y-161215946D01*
X122437439Y-161231152D01*
X122476529Y-161248981D01*
X122517443Y-161274224D01*
X122554641Y-161302516D01*
X122582582Y-161329494D01*
X122595726Y-161350793D01*
X122595850Y-161355919D01*
X122585001Y-161371214D01*
X122560441Y-161396529D01*
X122527856Y-161426850D01*
X122492931Y-161457162D01*
X122461350Y-161482451D01*
X122438798Y-161497701D01*
X122432504Y-161500000D01*
X122415982Y-161492580D01*
X122390144Y-161474227D01*
X122383856Y-161469078D01*
X122324396Y-161434706D01*
X122254026Y-161419629D01*
X122178035Y-161424094D01*
X122101712Y-161448345D01*
X122087451Y-161455292D01*
X122045919Y-161485090D01*
X122000527Y-161530942D01*
X121957189Y-161585891D01*
X121921817Y-161642977D01*
X121913260Y-161660310D01*
X121893368Y-161719763D01*
X121881794Y-161788353D01*
X121878871Y-161858042D01*
X121884935Y-161920789D01*
X121900320Y-161968556D01*
X121900424Y-161968750D01*
X121944121Y-162026489D01*
X122000692Y-162063917D01*
X122068013Y-162080728D01*
X122143957Y-162076616D01*
X122226397Y-162051275D01*
X122281778Y-162023665D01*
X122318756Y-162004165D01*
X122347581Y-161991960D01*
X122360311Y-161989629D01*
X122373289Y-162001119D01*
X122395904Y-162027252D01*
X122422927Y-162061930D01*
X122447581Y-162096290D01*
X122460083Y-162121566D01*
X122458526Y-162142210D01*
X122441005Y-162162676D01*
X122405613Y-162187415D01*
X122356440Y-162217295D01*
X122280014Y-162253402D01*
X122190979Y-162280151D01*
X122097747Y-162296037D01*
X122008729Y-162299554D01*
X121941778Y-162291498D01*
X121835051Y-162257346D01*
X121747054Y-162206961D01*
X121678040Y-162140518D01*
X121642236Y-162086530D01*
X121612497Y-162008378D01*
X121598854Y-161916516D01*
X121600993Y-161816102D01*
X121618599Y-161712293D01*
X121651358Y-161610245D01*
X121674384Y-161559374D01*
X121730964Y-161471583D01*
X121807018Y-161389645D01*
X121897069Y-161317719D01*
X121995638Y-161259962D01*
X122097244Y-161220532D01*
X122132339Y-161211867D01*
X122208924Y-161203201D01*
X122295364Y-161204813D01*
G37*
G36*
X125300447Y-161100214D02*
G01*
X125361176Y-161101094D01*
X125404554Y-161102999D01*
X125434409Y-161106286D01*
X125454572Y-161111312D01*
X125468871Y-161118436D01*
X125476507Y-161124092D01*
X125506032Y-161148184D01*
X125352311Y-161758467D01*
X125322284Y-161877898D01*
X125294216Y-161989965D01*
X125268683Y-162092335D01*
X125246264Y-162182673D01*
X125227533Y-162258647D01*
X125213070Y-162317923D01*
X125203450Y-162358167D01*
X125199250Y-162377047D01*
X125199111Y-162378125D01*
X125211240Y-162380479D01*
X125245311Y-162382617D01*
X125298253Y-162384462D01*
X125366996Y-162385935D01*
X125448468Y-162386961D01*
X125539600Y-162387462D01*
X125572877Y-162387500D01*
X125690016Y-162387292D01*
X125784254Y-162387553D01*
X125857687Y-162389605D01*
X125912412Y-162394772D01*
X125950525Y-162404377D01*
X125974124Y-162419743D01*
X125985304Y-162442195D01*
X125986162Y-162473055D01*
X125978795Y-162513647D01*
X125965299Y-162565294D01*
X125948955Y-162624896D01*
X125932721Y-162681808D01*
X125917235Y-162729709D01*
X125904280Y-162763462D01*
X125895823Y-162777829D01*
X125880796Y-162779646D01*
X125843185Y-162781353D01*
X125785420Y-162782915D01*
X125709928Y-162784294D01*
X125619138Y-162785457D01*
X125515479Y-162786368D01*
X125401379Y-162786990D01*
X125279268Y-162787289D01*
X125249312Y-162787308D01*
X125105273Y-162787276D01*
X124984185Y-162787044D01*
X124883987Y-162786553D01*
X124802618Y-162785741D01*
X124738016Y-162784550D01*
X124688120Y-162782919D01*
X124650869Y-162780787D01*
X124624202Y-162778095D01*
X124606057Y-162774782D01*
X124594375Y-162770787D01*
X124589612Y-162768041D01*
X124568687Y-162745414D01*
X124561817Y-162725365D01*
X124564872Y-162707904D01*
X124573612Y-162669000D01*
X124587401Y-162611123D01*
X124605601Y-162536744D01*
X124627576Y-162448331D01*
X124652689Y-162348356D01*
X124680303Y-162239288D01*
X124709781Y-162123598D01*
X124740486Y-162003755D01*
X124771782Y-161882229D01*
X124803031Y-161761490D01*
X124833596Y-161644008D01*
X124862842Y-161532254D01*
X124890130Y-161428697D01*
X124914825Y-161335807D01*
X124936288Y-161256054D01*
X124953884Y-161191909D01*
X124966975Y-161145841D01*
X124974925Y-161120320D01*
X124976767Y-161116043D01*
X124988862Y-161109907D01*
X125015230Y-161105407D01*
X125058471Y-161102372D01*
X125121180Y-161100630D01*
X125205954Y-161100007D01*
X125218536Y-161100000D01*
X125300447Y-161100214D01*
G37*
G36*
X124251928Y-161100215D02*
G01*
X124341541Y-161101142D01*
X124411156Y-161103204D01*
X124463279Y-161106821D01*
X124500416Y-161112415D01*
X124525073Y-161120409D01*
X124539757Y-161131224D01*
X124546973Y-161145282D01*
X124549227Y-161163005D01*
X124549311Y-161168921D01*
X124546232Y-161187968D01*
X124537518Y-161228109D01*
X124523950Y-161286272D01*
X124506310Y-161359388D01*
X124485380Y-161444387D01*
X124461942Y-161538199D01*
X124436777Y-161637754D01*
X124410668Y-161739981D01*
X124384395Y-161841811D01*
X124358742Y-161940174D01*
X124334490Y-162031999D01*
X124312420Y-162114217D01*
X124293315Y-162183757D01*
X124277956Y-162237550D01*
X124272728Y-162254980D01*
X124252068Y-162316457D01*
X124228536Y-162377429D01*
X124205916Y-162428392D01*
X124196381Y-162446708D01*
X124127129Y-162546869D01*
X124041518Y-162630551D01*
X123939044Y-162697931D01*
X123819201Y-162749186D01*
X123681486Y-162784494D01*
X123525393Y-162804031D01*
X123350418Y-162807975D01*
X123190873Y-162799564D01*
X123109328Y-162792429D01*
X123050143Y-162784110D01*
X123010769Y-162771170D01*
X122988653Y-162750171D01*
X122981247Y-162717676D01*
X122986000Y-162670248D01*
X123000361Y-162604449D01*
X123011702Y-162558082D01*
X123027498Y-162496308D01*
X123042321Y-162442710D01*
X123054703Y-162402301D01*
X123063176Y-162380095D01*
X123064390Y-162378125D01*
X123084906Y-162365796D01*
X123120635Y-162364039D01*
X123174190Y-162373002D01*
X123229912Y-162387500D01*
X123349988Y-162409604D01*
X123469586Y-162407826D01*
X123522734Y-162399062D01*
X123567477Y-162387243D01*
X123606023Y-162370957D01*
X123639649Y-162347920D01*
X123669632Y-162315848D01*
X123697251Y-162272457D01*
X123723782Y-162215464D01*
X123750504Y-162142585D01*
X123778694Y-162051536D01*
X123809630Y-161940033D01*
X123836095Y-161838919D01*
X123858809Y-161750513D01*
X123879344Y-161670260D01*
X123896912Y-161601272D01*
X123910724Y-161546657D01*
X123919990Y-161509525D01*
X123923922Y-161492987D01*
X123924003Y-161492458D01*
X123912428Y-161490274D01*
X123881422Y-161488581D01*
X123836566Y-161487625D01*
X123811448Y-161487500D01*
X123755903Y-161486680D01*
X123721309Y-161483797D01*
X123703648Y-161478219D01*
X123698892Y-161469750D01*
X123701638Y-161447510D01*
X123708980Y-161407120D01*
X123719573Y-161354712D01*
X123732072Y-161296422D01*
X123745132Y-161238384D01*
X123757411Y-161186730D01*
X123767561Y-161147596D01*
X123773777Y-161128125D01*
X123785899Y-161100000D01*
X124139810Y-161100000D01*
X124251928Y-161100215D01*
G37*
G36*
X127512130Y-161079165D02*
G01*
X127685019Y-161100158D01*
X127851104Y-161140420D01*
X127936644Y-161170330D01*
X127981531Y-161187926D01*
X128014149Y-161203027D01*
X128035392Y-161219466D01*
X128046153Y-161241075D01*
X128047323Y-161271689D01*
X128039797Y-161315140D01*
X128024466Y-161375263D01*
X128002728Y-161454060D01*
X127978170Y-161539449D01*
X127956988Y-161605563D01*
X127939743Y-161650808D01*
X127926999Y-161673587D01*
X127924612Y-161675569D01*
X127890310Y-161680631D01*
X127843370Y-161665566D01*
X127785200Y-161630931D01*
X127754100Y-161607831D01*
X127648054Y-161538182D01*
X127538534Y-161492450D01*
X127426734Y-161470986D01*
X127313845Y-161474139D01*
X127303491Y-161475671D01*
X127185621Y-161504252D01*
X127083049Y-161549818D01*
X126997716Y-161611327D01*
X126946058Y-161667478D01*
X126901731Y-161737988D01*
X126863325Y-161822645D01*
X126832960Y-161914258D01*
X126812759Y-162005635D01*
X126804844Y-162089585D01*
X126807389Y-162137500D01*
X126825669Y-162229143D01*
X126854557Y-162300150D01*
X126896356Y-162352422D01*
X126953365Y-162387861D01*
X127027885Y-162408367D01*
X127122218Y-162415843D01*
X127144338Y-162415938D01*
X127255262Y-162408539D01*
X127360345Y-162386523D01*
X127465113Y-162348074D01*
X127575090Y-162291376D01*
X127635447Y-162254540D01*
X127690261Y-162224591D01*
X127732045Y-162213958D01*
X127763390Y-162222429D01*
X127782582Y-162242651D01*
X127789538Y-162255281D01*
X127793002Y-162269887D01*
X127792376Y-162290448D01*
X127787059Y-162320944D01*
X127776451Y-162365355D01*
X127759955Y-162427661D01*
X127748215Y-162470776D01*
X127694081Y-162668750D01*
X127587463Y-162708536D01*
X127491514Y-162742955D01*
X127410312Y-162768155D01*
X127336014Y-162785641D01*
X127260774Y-162796922D01*
X127176748Y-162803505D01*
X127076090Y-162806898D01*
X127075554Y-162806909D01*
X127004535Y-162808001D01*
X126940923Y-162808298D01*
X126889531Y-162807828D01*
X126855170Y-162806624D01*
X126844190Y-162805448D01*
X126818047Y-162799885D01*
X126778093Y-162791784D01*
X126750394Y-162786311D01*
X126653135Y-162757914D01*
X126557677Y-162712854D01*
X126469280Y-162654804D01*
X126393200Y-162587438D01*
X126334698Y-162514429D01*
X126316895Y-162483482D01*
X126287228Y-162419675D01*
X126266867Y-162360691D01*
X126254314Y-162299155D01*
X126248071Y-162227693D01*
X126246641Y-162138929D01*
X126246648Y-162137500D01*
X126251778Y-162016972D01*
X126267191Y-161911058D01*
X126294983Y-161810748D01*
X126337247Y-161707032D01*
X126355603Y-161668750D01*
X126436009Y-161533914D01*
X126535768Y-161414425D01*
X126653869Y-161311113D01*
X126789300Y-161224809D01*
X126941050Y-161156342D01*
X127006770Y-161133925D01*
X127167592Y-161095837D01*
X127337850Y-161077654D01*
X127512130Y-161079165D01*
G37*
G36*
X131153598Y-161078084D02*
G01*
X131271369Y-161088856D01*
X131347481Y-161100752D01*
X131426003Y-161117511D01*
X131502708Y-161137747D01*
X131573367Y-161160074D01*
X131633755Y-161183107D01*
X131679642Y-161205460D01*
X131706802Y-161225747D01*
X131711541Y-161233141D01*
X131711678Y-161253984D01*
X131705282Y-161293124D01*
X131693733Y-161345661D01*
X131678411Y-161406699D01*
X131660696Y-161471337D01*
X131641967Y-161534679D01*
X131623604Y-161591825D01*
X131606988Y-161637878D01*
X131593497Y-161667939D01*
X131586537Y-161676908D01*
X131551290Y-161682059D01*
X131504689Y-161666916D01*
X131448776Y-161632296D01*
X131421186Y-161610635D01*
X131375211Y-161576881D01*
X131319745Y-161542396D01*
X131277622Y-161520033D01*
X131242189Y-161503777D01*
X131212352Y-161492836D01*
X131181682Y-161486162D01*
X131143749Y-161482706D01*
X131092125Y-161481420D01*
X131039742Y-161481250D01*
X130973897Y-161481532D01*
X130926622Y-161483125D01*
X130891474Y-161487145D01*
X130862014Y-161494708D01*
X130831797Y-161506931D01*
X130797991Y-161523154D01*
X130697941Y-161585662D01*
X130615220Y-161665527D01*
X130550612Y-161761358D01*
X130504904Y-161871759D01*
X130478882Y-161995338D01*
X130472755Y-162100000D01*
X130478208Y-162187725D01*
X130495066Y-162257102D01*
X130524696Y-162312679D01*
X130543482Y-162335392D01*
X130599541Y-162377816D01*
X130672068Y-162405292D01*
X130757718Y-162418127D01*
X130853141Y-162416627D01*
X130954991Y-162401097D01*
X131059920Y-162371844D01*
X131164579Y-162329173D01*
X131265622Y-162273390D01*
X131272912Y-162268719D01*
X131316695Y-162242494D01*
X131355753Y-162222837D01*
X131383038Y-162213204D01*
X131387051Y-162212767D01*
X131417248Y-162221255D01*
X131443961Y-162242268D01*
X131459597Y-162268293D01*
X131460032Y-162285014D01*
X131454538Y-162304423D01*
X131443959Y-162342902D01*
X131429682Y-162395370D01*
X131413092Y-162456747D01*
X131408178Y-162475000D01*
X131390175Y-162537968D01*
X131372381Y-162593270D01*
X131356571Y-162635838D01*
X131344518Y-162660608D01*
X131342089Y-162663635D01*
X131313401Y-162682140D01*
X131262895Y-162704537D01*
X131193276Y-162729804D01*
X131107251Y-162756915D01*
X131058764Y-162770889D01*
X130972657Y-162789239D01*
X130869864Y-162802019D01*
X130758132Y-162809007D01*
X130645209Y-162809980D01*
X130538841Y-162804716D01*
X130446775Y-162792993D01*
X130426874Y-162789021D01*
X130297510Y-162750337D01*
X130184631Y-162694798D01*
X130089373Y-162623346D01*
X130012873Y-162536925D01*
X129956266Y-162436475D01*
X129935912Y-162381713D01*
X129919218Y-162306062D01*
X129910004Y-162214199D01*
X129908241Y-162113761D01*
X129913899Y-162012384D01*
X129926947Y-161917701D01*
X129937920Y-161868750D01*
X129989732Y-161721187D01*
X130063159Y-161584441D01*
X130156512Y-161460253D01*
X130268101Y-161350364D01*
X130396236Y-161256517D01*
X130539226Y-161180452D01*
X130646061Y-161139115D01*
X130805869Y-161097814D01*
X130974341Y-161077528D01*
X131153598Y-161078084D01*
G37*
G36*
X128654905Y-161100797D02*
G01*
X128748788Y-161101775D01*
X128864908Y-161103359D01*
X128882355Y-161103615D01*
X129016146Y-161105841D01*
X129127835Y-161108436D01*
X129220333Y-161111727D01*
X129296551Y-161116041D01*
X129359399Y-161121703D01*
X129411788Y-161129040D01*
X129456628Y-161138380D01*
X129496831Y-161150047D01*
X129535306Y-161164368D01*
X129573845Y-161181158D01*
X129667022Y-161235926D01*
X129740962Y-161305516D01*
X129794565Y-161388473D01*
X129826729Y-161483338D01*
X129833427Y-161525000D01*
X129834690Y-161609099D01*
X129822563Y-161701299D01*
X129799023Y-161789978D01*
X129780411Y-161836309D01*
X129725728Y-161924535D01*
X129649238Y-162005694D01*
X129553515Y-162078304D01*
X129441133Y-162140883D01*
X129314665Y-162191947D01*
X129176686Y-162230013D01*
X129062829Y-162249715D01*
X129011401Y-162254674D01*
X128944558Y-162258714D01*
X128871894Y-162261349D01*
X128818006Y-162262114D01*
X128665776Y-162262500D01*
X128653025Y-162303125D01*
X128645707Y-162328710D01*
X128633617Y-162373504D01*
X128618087Y-162432470D01*
X128600448Y-162500570D01*
X128587806Y-162550000D01*
X128569747Y-162619133D01*
X128552879Y-162680297D01*
X128538474Y-162729141D01*
X128527802Y-162761313D01*
X128523019Y-162771875D01*
X128505395Y-162778584D01*
X128467698Y-162783620D01*
X128414807Y-162787021D01*
X128351602Y-162788824D01*
X128282963Y-162789066D01*
X128213770Y-162787787D01*
X128148901Y-162785024D01*
X128093239Y-162780814D01*
X128051661Y-162775196D01*
X128029049Y-162768207D01*
X128028805Y-162768041D01*
X128007835Y-162743796D01*
X128001157Y-162721166D01*
X128004261Y-162702377D01*
X128013068Y-162662239D01*
X128026937Y-162603234D01*
X128045226Y-162527846D01*
X128067294Y-162438558D01*
X128092501Y-162337852D01*
X128120205Y-162228212D01*
X128149765Y-162112121D01*
X128180540Y-161992061D01*
X128211888Y-161870515D01*
X128214158Y-161861768D01*
X128763885Y-161861768D01*
X128775355Y-161869104D01*
X128806011Y-161873451D01*
X128850221Y-161874928D01*
X128902352Y-161873659D01*
X128956772Y-161869763D01*
X129007849Y-161863363D01*
X129045773Y-161855700D01*
X129126439Y-161827441D01*
X129186464Y-161788888D01*
X129228838Y-161737932D01*
X129238707Y-161719599D01*
X129258447Y-161656459D01*
X129255629Y-161599080D01*
X129231553Y-161550709D01*
X129187520Y-161514588D01*
X129150534Y-161499701D01*
X129119270Y-161494335D01*
X129071140Y-161490172D01*
X129014282Y-161487813D01*
X128985642Y-161487500D01*
X128929473Y-161487769D01*
X128893222Y-161489391D01*
X128871800Y-161493584D01*
X128860112Y-161501568D01*
X128853067Y-161514562D01*
X128851057Y-161519726D01*
X128843273Y-161544138D01*
X128831689Y-161585181D01*
X128817761Y-161637140D01*
X128802945Y-161694301D01*
X128788699Y-161750948D01*
X128776478Y-161801366D01*
X128767740Y-161839841D01*
X128763940Y-161860656D01*
X128763885Y-161861768D01*
X128214158Y-161861768D01*
X128243170Y-161749967D01*
X128273743Y-161632899D01*
X128302966Y-161521794D01*
X128330199Y-161419136D01*
X128354801Y-161327407D01*
X128376129Y-161249090D01*
X128393543Y-161186669D01*
X128406403Y-161142625D01*
X128414066Y-161119443D01*
X128415445Y-161116663D01*
X128421979Y-161111486D01*
X128433671Y-161107392D01*
X128452961Y-161104314D01*
X128482290Y-161102184D01*
X128524096Y-161100933D01*
X128580822Y-161100493D01*
X128654905Y-161100797D01*
G37*
G36*
X132437879Y-161100715D02*
G01*
X132533750Y-161101840D01*
X132631130Y-161103789D01*
X132726667Y-161106511D01*
X132817006Y-161109951D01*
X132898794Y-161114057D01*
X132968678Y-161118775D01*
X133023305Y-161124053D01*
X133058654Y-161129684D01*
X133168583Y-161162792D01*
X133264243Y-161207557D01*
X133342688Y-161262139D01*
X133400970Y-161324699D01*
X133419888Y-161355066D01*
X133438619Y-161409217D01*
X133447892Y-161477667D01*
X133447693Y-161551564D01*
X133438005Y-161622058D01*
X133420440Y-161676864D01*
X133379934Y-161742123D01*
X133323186Y-161803563D01*
X133258511Y-161852633D01*
X133238692Y-161863721D01*
X133185233Y-161890981D01*
X133215992Y-161911115D01*
X133288620Y-161967093D01*
X133338764Y-162027170D01*
X133368948Y-162095913D01*
X133381696Y-162177891D01*
X133382499Y-162212500D01*
X133370361Y-162322105D01*
X133335502Y-162421969D01*
X133278576Y-162511249D01*
X133200237Y-162589101D01*
X133101139Y-162654678D01*
X133006302Y-162698142D01*
X132956570Y-162716554D01*
X132909432Y-162731925D01*
X132861968Y-162744569D01*
X132811258Y-162754801D01*
X132754383Y-162762935D01*
X132688422Y-162769286D01*
X132610456Y-162774169D01*
X132517563Y-162777897D01*
X132406825Y-162780786D01*
X132275322Y-162783149D01*
X132207926Y-162784134D01*
X132084549Y-162785828D01*
X131983745Y-162787074D01*
X131903080Y-162787779D01*
X131840118Y-162787849D01*
X131792424Y-162787190D01*
X131757561Y-162785708D01*
X131733095Y-162783308D01*
X131716590Y-162779898D01*
X131705610Y-162775382D01*
X131697719Y-162769667D01*
X131692048Y-162764221D01*
X131672897Y-162740894D01*
X131665313Y-162723728D01*
X131668376Y-162707167D01*
X131677140Y-162669105D01*
X131690966Y-162612004D01*
X131709218Y-162538328D01*
X131731256Y-162450542D01*
X131743251Y-162403187D01*
X132289344Y-162403187D01*
X132468195Y-162397755D01*
X132541522Y-162395103D01*
X132595485Y-162391730D01*
X132635734Y-162386780D01*
X132667917Y-162379395D01*
X132697682Y-162368716D01*
X132717897Y-162359838D01*
X132774536Y-162328235D01*
X132809211Y-162293595D01*
X132824946Y-162251775D01*
X132826028Y-162211645D01*
X132817607Y-162168968D01*
X132797278Y-162140789D01*
X132790867Y-162135674D01*
X132757690Y-162120474D01*
X132705402Y-162107403D01*
X132639869Y-162097288D01*
X132566957Y-162090953D01*
X132492533Y-162089226D01*
X132465843Y-162089918D01*
X132372182Y-162093750D01*
X132339533Y-162212500D01*
X132324409Y-162267918D01*
X132310944Y-162317990D01*
X132301129Y-162355287D01*
X132298114Y-162367218D01*
X132289344Y-162403187D01*
X131743251Y-162403187D01*
X131756443Y-162351107D01*
X131784140Y-162242488D01*
X131813711Y-162127149D01*
X131844516Y-162007552D01*
X131875917Y-161886161D01*
X131907277Y-161765439D01*
X131923478Y-161703346D01*
X132470112Y-161703346D01*
X132473588Y-161717863D01*
X132484571Y-161724452D01*
X132503308Y-161727167D01*
X132511788Y-161727956D01*
X132566240Y-161730065D01*
X132630175Y-161727995D01*
X132693695Y-161722467D01*
X132746902Y-161714200D01*
X132765855Y-161709475D01*
X132826335Y-161682533D01*
X132867494Y-161645461D01*
X132887436Y-161600695D01*
X132885635Y-161555668D01*
X132870836Y-161527499D01*
X132841134Y-161507641D01*
X132794039Y-161495383D01*
X132727062Y-161490011D01*
X132656944Y-161490208D01*
X132524214Y-161493750D01*
X132502244Y-161571707D01*
X132484687Y-161634320D01*
X132473894Y-161676849D01*
X132470112Y-161703346D01*
X131923478Y-161703346D01*
X131937958Y-161647851D01*
X131967322Y-161535859D01*
X131994730Y-161431927D01*
X132019545Y-161338518D01*
X132041129Y-161258097D01*
X132058843Y-161193126D01*
X132072050Y-161146068D01*
X132080111Y-161119388D01*
X132082150Y-161114252D01*
X132098541Y-161109316D01*
X132136562Y-161105522D01*
X132192860Y-161102819D01*
X132264081Y-161101151D01*
X132346872Y-161100468D01*
X132437879Y-161100715D01*
G37*
G36*
X120239507Y-161345252D02*
G01*
X120290731Y-161354423D01*
X120388690Y-161378778D01*
X120466002Y-161410333D01*
X120526546Y-161451379D01*
X120574199Y-161504209D01*
X120592736Y-161532890D01*
X120627079Y-161609071D01*
X120639841Y-161687120D01*
X120633287Y-161768750D01*
X120603629Y-161869524D01*
X120552810Y-161961937D01*
X120484078Y-162043097D01*
X120400678Y-162110114D01*
X120305857Y-162160098D01*
X120202859Y-162190158D01*
X120152853Y-162196559D01*
X120104737Y-162199373D01*
X120074226Y-162197988D01*
X120054082Y-162191112D01*
X120037069Y-162177459D01*
X120035191Y-162175601D01*
X120007423Y-162147847D01*
X119946777Y-162173923D01*
X119869414Y-162196343D01*
X119794214Y-162197873D01*
X119725681Y-162179173D01*
X119668319Y-162140903D01*
X119659404Y-162131853D01*
X119642611Y-162110439D01*
X119633131Y-162086698D01*
X119628975Y-162052768D01*
X119628139Y-162008367D01*
X119630972Y-161981998D01*
X119792667Y-161981998D01*
X119793440Y-162031038D01*
X119812730Y-162066333D01*
X119847209Y-162086320D01*
X119893552Y-162089436D01*
X119948432Y-162074118D01*
X119968267Y-162064527D01*
X120000192Y-162040262D01*
X120037511Y-162001513D01*
X120073845Y-161955855D01*
X120102818Y-161910862D01*
X120110596Y-161895462D01*
X120127633Y-161842870D01*
X120133832Y-161789045D01*
X120129048Y-161741937D01*
X120113941Y-161710359D01*
X120080331Y-161690560D01*
X120034806Y-161687016D01*
X119983976Y-161699184D01*
X119936657Y-161724903D01*
X119875573Y-161781827D01*
X119830770Y-161853512D01*
X119800612Y-161942883D01*
X119792667Y-161981998D01*
X119630972Y-161981998D01*
X119637443Y-161921757D01*
X119666548Y-161842183D01*
X119717242Y-161765925D01*
X119773694Y-161705614D01*
X119848114Y-161645793D01*
X119925682Y-161603631D01*
X120002705Y-161580250D01*
X120075490Y-161576775D01*
X120140027Y-161594177D01*
X120170928Y-161611667D01*
X120190516Y-161628025D01*
X120192874Y-161631841D01*
X120204176Y-161636283D01*
X120226892Y-161619136D01*
X120228675Y-161617372D01*
X120250745Y-161599820D01*
X120277537Y-161590736D01*
X120317804Y-161587635D01*
X120333859Y-161587500D01*
X120375233Y-161588012D01*
X120396575Y-161591004D01*
X120402864Y-161598653D01*
X120399078Y-161613139D01*
X120398110Y-161615625D01*
X120389636Y-161635979D01*
X120373015Y-161674905D01*
X120350116Y-161728061D01*
X120322808Y-161791109D01*
X120298371Y-161847293D01*
X120269708Y-161913722D01*
X120244902Y-161972454D01*
X120225567Y-162019569D01*
X120213316Y-162051143D01*
X120209675Y-162062918D01*
X120219390Y-162074107D01*
X120244805Y-162073360D01*
X120280323Y-162061851D01*
X120320349Y-162040757D01*
X120322909Y-162039124D01*
X120405002Y-161973807D01*
X120464852Y-161898543D01*
X120501877Y-161814301D01*
X120515496Y-161722053D01*
X120515549Y-161717837D01*
X120505962Y-161641609D01*
X120475719Y-161578374D01*
X120424327Y-161527585D01*
X120351291Y-161488695D01*
X120290746Y-161469218D01*
X120177856Y-161452070D01*
X120055011Y-161456290D01*
X119978530Y-161468922D01*
X119858689Y-161505979D01*
X119753717Y-161563112D01*
X119664004Y-161640017D01*
X119589941Y-161736392D01*
X119557213Y-161795168D01*
X119531910Y-161848259D01*
X119516358Y-161888662D01*
X119508157Y-161925539D01*
X119504905Y-161968053D01*
X119504358Y-161996841D01*
X119505658Y-162055104D01*
X119511905Y-162097449D01*
X119524659Y-162132726D01*
X119530253Y-162143750D01*
X119578660Y-162212379D01*
X119642569Y-162265441D01*
X119723187Y-162303398D01*
X119821723Y-162326718D01*
X119939384Y-162335863D01*
X120025696Y-162334474D01*
X120140738Y-162323907D01*
X120238282Y-162302701D01*
X120324174Y-162269191D01*
X120391634Y-162230291D01*
X120435181Y-162204408D01*
X120472386Y-162191474D01*
X120515350Y-162187554D01*
X120523153Y-162187500D01*
X120590173Y-162187500D01*
X120529259Y-162249312D01*
X120438639Y-162324140D01*
X120331920Y-162380819D01*
X120208586Y-162419540D01*
X120068119Y-162440496D01*
X120003324Y-162444063D01*
X119937223Y-162445009D01*
X119873485Y-162444106D01*
X119820096Y-162441567D01*
X119789308Y-162438360D01*
X119671738Y-162410705D01*
X119573162Y-162368674D01*
X119494235Y-162312890D01*
X119435611Y-162243976D01*
X119397944Y-162162555D01*
X119381887Y-162069251D01*
X119381328Y-162049518D01*
X119392293Y-161922738D01*
X119425803Y-161804299D01*
X119480334Y-161695751D01*
X119554360Y-161598643D01*
X119646354Y-161514525D01*
X119754791Y-161444947D01*
X119878146Y-161391459D01*
X120014892Y-161355611D01*
X120073459Y-161346499D01*
X120135483Y-161340177D01*
X120186672Y-161339610D01*
X120239507Y-161345252D01*
G37*
G36*
X142237990Y-161800000D02*
G01*
X142237990Y-163031871D01*
X141900692Y-163031871D01*
X141563394Y-163031871D01*
X141563394Y-161800000D01*
X141563394Y-160568129D01*
X141900692Y-160568129D01*
X142237990Y-160568129D01*
X142237990Y-161800000D01*
G37*
G36*
X144467090Y-160817437D02*
G01*
X144467090Y-161066744D01*
X143865819Y-161066744D01*
X143264549Y-161066744D01*
X143264549Y-161316051D01*
X143264549Y-161565358D01*
X143821824Y-161565358D01*
X144379099Y-161565358D01*
X144379099Y-161814665D01*
X144379099Y-162063972D01*
X143821824Y-162063972D01*
X143264549Y-162063972D01*
X143264549Y-162298614D01*
X143264549Y-162533256D01*
X143865819Y-162533256D01*
X144467090Y-162533256D01*
X144467090Y-162782564D01*
X144467090Y-163031871D01*
X143528521Y-163031871D01*
X142589953Y-163031871D01*
X142589953Y-161800000D01*
X142589953Y-160568129D01*
X143528521Y-160568129D01*
X144467090Y-160568129D01*
X144467090Y-160817437D01*
G37*
G36*
X146696189Y-160817437D02*
G01*
X146696189Y-161066744D01*
X146109584Y-161066744D01*
X145522979Y-161066744D01*
X145522979Y-161316051D01*
X145522979Y-161565358D01*
X146065588Y-161565358D01*
X146608198Y-161565358D01*
X146608198Y-161814665D01*
X146608198Y-162063972D01*
X146065588Y-162063972D01*
X145522979Y-162063972D01*
X145522979Y-162298614D01*
X145522979Y-162533256D01*
X146109584Y-162533256D01*
X146696189Y-162533256D01*
X146696189Y-162782564D01*
X146696189Y-163031871D01*
X145772286Y-163031871D01*
X144848383Y-163031871D01*
X144848383Y-161800000D01*
X144848383Y-160568129D01*
X145772286Y-160568129D01*
X146696189Y-160568129D01*
X146696189Y-160817437D01*
G37*
G36*
X148954618Y-160817437D02*
G01*
X148954618Y-161066744D01*
X148353348Y-161066744D01*
X147752078Y-161066744D01*
X147752078Y-161316051D01*
X147752078Y-161565358D01*
X148309353Y-161565358D01*
X148866628Y-161565358D01*
X148866628Y-161814665D01*
X148866628Y-162063972D01*
X148309353Y-162063972D01*
X147752078Y-162063972D01*
X147752078Y-162298614D01*
X147752078Y-162533256D01*
X148353348Y-162533256D01*
X148954618Y-162533256D01*
X148954618Y-162782564D01*
X148954618Y-163031871D01*
X148016050Y-163031871D01*
X147077482Y-163031871D01*
X147077482Y-161800000D01*
X147077482Y-160568129D01*
X148016050Y-160568129D01*
X148954618Y-160568129D01*
X148954618Y-160817437D01*
G37*
G36*
X138309107Y-158987729D02*
G01*
X138400824Y-159066255D01*
X138508407Y-159198045D01*
X138517139Y-159209811D01*
X138716050Y-159466248D01*
X138951966Y-159748478D01*
X139215727Y-160046105D01*
X139498170Y-160348732D01*
X139729131Y-160585155D01*
X139998029Y-160848578D01*
X140238586Y-161070578D01*
X140457499Y-161256780D01*
X140661467Y-161412806D01*
X140857189Y-161544278D01*
X140910796Y-161577079D01*
X141006515Y-161636935D01*
X141061627Y-161681416D01*
X141087125Y-161723052D01*
X141094002Y-161774373D01*
X141094110Y-161786015D01*
X141090390Y-161831730D01*
X141073823Y-161872441D01*
X141036304Y-161917130D01*
X140969723Y-161974776D01*
X140865976Y-162054357D01*
X140822806Y-162086515D01*
X140326515Y-162477307D01*
X139846738Y-162898943D01*
X139393567Y-163341519D01*
X138977095Y-163795126D01*
X138607413Y-164249859D01*
X138574858Y-164293072D01*
X138461766Y-164440816D01*
X138374174Y-164544708D01*
X138305120Y-164609753D01*
X138247643Y-164640958D01*
X138194780Y-164643328D01*
X138139569Y-164621871D01*
X138127251Y-164614938D01*
X138091753Y-164581604D01*
X138029863Y-164511043D01*
X137949980Y-164413263D01*
X137860501Y-164298268D01*
X137851089Y-164285865D01*
X137418191Y-163742553D01*
X136984830Y-163256166D01*
X136549275Y-162824981D01*
X136109797Y-162447276D01*
X135702940Y-162147183D01*
X135551128Y-162038854D01*
X135445678Y-161950639D01*
X135380584Y-161876219D01*
X135372359Y-161858309D01*
X136113645Y-161858309D01*
X136147079Y-161964813D01*
X136166665Y-162005384D01*
X136243719Y-162130121D01*
X136359204Y-162282176D01*
X136506288Y-162455052D01*
X136678141Y-162642250D01*
X136867931Y-162837271D01*
X137068828Y-163033618D01*
X137273999Y-163224790D01*
X137476615Y-163404290D01*
X137669844Y-163565619D01*
X137846855Y-163702278D01*
X138000817Y-163807769D01*
X138124898Y-163875593D01*
X138138609Y-163881357D01*
X138220178Y-163906012D01*
X138290202Y-163900318D01*
X138375186Y-163863790D01*
X138480190Y-163799085D01*
X138617388Y-163697880D01*
X138779385Y-163566962D01*
X138958787Y-163413117D01*
X139148200Y-163243134D01*
X139340229Y-163063799D01*
X139527479Y-162881900D01*
X139702556Y-162704224D01*
X139858066Y-162537557D01*
X139986614Y-162388687D01*
X139999266Y-162373099D01*
X140133148Y-162199582D01*
X140226972Y-162057269D01*
X140283328Y-161937082D01*
X140304802Y-161829946D01*
X140293984Y-161726783D01*
X140253460Y-161618517D01*
X140228352Y-161569612D01*
X140129377Y-161412927D01*
X139991035Y-161229830D01*
X139821367Y-161028465D01*
X139628409Y-160816972D01*
X139420199Y-160603495D01*
X139204776Y-160396177D01*
X138990178Y-160203159D01*
X138784441Y-160032584D01*
X138595605Y-159892594D01*
X138529919Y-159849092D01*
X138383332Y-159766479D01*
X138261335Y-159726855D01*
X138149069Y-159729799D01*
X138031668Y-159774890D01*
X137936992Y-159832297D01*
X137781389Y-159945525D01*
X137604422Y-160089773D01*
X137412827Y-160258164D01*
X137213340Y-160443821D01*
X137012696Y-160639867D01*
X136817632Y-160839425D01*
X136634882Y-161035619D01*
X136471182Y-161221571D01*
X136333269Y-161390404D01*
X136227877Y-161535243D01*
X136165807Y-161640611D01*
X136119907Y-161758589D01*
X136113645Y-161858309D01*
X135372359Y-161858309D01*
X135349840Y-161809276D01*
X135345381Y-161771011D01*
X135368609Y-161718671D01*
X135430033Y-161648379D01*
X135517260Y-161571878D01*
X135617897Y-161500914D01*
X135651304Y-161481070D01*
X135802061Y-161383607D01*
X135981886Y-161244687D01*
X136192167Y-161063085D01*
X136434297Y-160837577D01*
X136709665Y-160566939D01*
X136842075Y-160432878D01*
X137091768Y-160175996D01*
X137304121Y-159952720D01*
X137484785Y-159756743D01*
X137639406Y-159581758D01*
X137773634Y-159421455D01*
X137893115Y-159269528D01*
X137941570Y-159204925D01*
X138049487Y-159071067D01*
X138141405Y-158990203D01*
X138225289Y-158962401D01*
X138309107Y-158987729D01*
G37*
G36*
X138248604Y-159820263D02*
G01*
X138309437Y-159842400D01*
X138411617Y-159898086D01*
X138545904Y-159990576D01*
X138704903Y-160113306D01*
X138881220Y-160259713D01*
X139067461Y-160423233D01*
X139256231Y-160597303D01*
X139440136Y-160775359D01*
X139611780Y-160950838D01*
X139763771Y-161117178D01*
X139821396Y-161184442D01*
X139937229Y-161330567D01*
X140040415Y-161475247D01*
X140124810Y-161608581D01*
X140184273Y-161720669D01*
X140212660Y-161801611D01*
X140214203Y-161817525D01*
X140192529Y-161894440D01*
X140131184Y-162003048D01*
X140035683Y-162137844D01*
X139911542Y-162293320D01*
X139764275Y-162463970D01*
X139599398Y-162644288D01*
X139422427Y-162828766D01*
X139238876Y-163011899D01*
X139054260Y-163188180D01*
X138874096Y-163352102D01*
X138703898Y-163498160D01*
X138549181Y-163620845D01*
X138415461Y-163714653D01*
X138308253Y-163774075D01*
X138234935Y-163793656D01*
X138182107Y-163777375D01*
X138099438Y-163735355D01*
X138004404Y-163676528D01*
X138000219Y-163673698D01*
X137826895Y-163547808D01*
X137637040Y-163395606D01*
X137437024Y-163223477D01*
X137419873Y-163207852D01*
X138007542Y-163207852D01*
X138206026Y-163207852D01*
X138404511Y-163207852D01*
X138385454Y-162939374D01*
X138376543Y-162793815D01*
X138369861Y-162646502D01*
X138366559Y-162524058D01*
X138366397Y-162499420D01*
X138366397Y-162327945D01*
X138223191Y-162327945D01*
X138079986Y-162327945D01*
X138061188Y-162555254D01*
X138048810Y-162705214D01*
X138035304Y-162869288D01*
X138024966Y-162995208D01*
X138007542Y-163207852D01*
X137419873Y-163207852D01*
X137233215Y-163037806D01*
X137031985Y-162844976D01*
X136839703Y-162651373D01*
X136662738Y-162463380D01*
X136507462Y-162287382D01*
X136380243Y-162129765D01*
X136287451Y-161996911D01*
X136241543Y-161910984D01*
X136220112Y-161853162D01*
X136216542Y-161806576D01*
X136234289Y-161754335D01*
X136958545Y-161754335D01*
X136976417Y-161825853D01*
X137015187Y-161893428D01*
X137085628Y-161954357D01*
X137198823Y-162020532D01*
X137340054Y-162085448D01*
X137494602Y-162142603D01*
X137647750Y-162185493D01*
X137700827Y-162196393D01*
X137868213Y-162218855D01*
X138061656Y-162232281D01*
X138264287Y-162236675D01*
X138459239Y-162232039D01*
X138629644Y-162218376D01*
X138756686Y-162196203D01*
X138932039Y-162139169D01*
X139086060Y-162067367D01*
X139210054Y-161986660D01*
X139295326Y-161902910D01*
X139333180Y-161821976D01*
X139334295Y-161806840D01*
X139314256Y-161761956D01*
X139263458Y-161698295D01*
X139231639Y-161666114D01*
X139171362Y-161604166D01*
X139134441Y-161556392D01*
X139128983Y-161542710D01*
X139103263Y-161525416D01*
X139036971Y-161498801D01*
X138946412Y-161467900D01*
X138847892Y-161437750D01*
X138757715Y-161413386D01*
X138692186Y-161399845D01*
X138668229Y-161400401D01*
X138670950Y-161430909D01*
X138689139Y-161494183D01*
X138692879Y-161505133D01*
X138721516Y-161569298D01*
X138759818Y-161590798D01*
X138821283Y-161585661D01*
X138894739Y-161584530D01*
X138963778Y-161614086D01*
X139024227Y-161659261D01*
X139100392Y-161744444D01*
X139121915Y-161825815D01*
X139092784Y-161901310D01*
X139016993Y-161968863D01*
X138898531Y-162026408D01*
X138741391Y-162071879D01*
X138549562Y-162103210D01*
X138327037Y-162118337D01*
X138138512Y-162117681D01*
X137979878Y-162110870D01*
X137863762Y-162100525D01*
X137774024Y-162083854D01*
X137694525Y-162058063D01*
X137628325Y-162029393D01*
X137499235Y-161954803D01*
X137428730Y-161878617D01*
X137416774Y-161801427D01*
X137463332Y-161723823D01*
X137568370Y-161646394D01*
X137653761Y-161602854D01*
X137816064Y-161528549D01*
X137668919Y-161443596D01*
X137521774Y-161358642D01*
X137362485Y-161418239D01*
X137237105Y-161476786D01*
X137122402Y-161551001D01*
X137030201Y-161631047D01*
X136972325Y-161707084D01*
X136958545Y-161754335D01*
X136234289Y-161754335D01*
X136234762Y-161752942D01*
X136278699Y-161673979D01*
X136300146Y-161638192D01*
X136392832Y-161501706D01*
X136519902Y-161339903D01*
X136653484Y-161184065D01*
X137901545Y-161184065D01*
X138006433Y-161184065D01*
X138111322Y-161184065D01*
X138091227Y-161609353D01*
X138071132Y-162034642D01*
X138205478Y-162034642D01*
X138339823Y-162034642D01*
X138335216Y-161616686D01*
X138330609Y-161198730D01*
X138451159Y-161189711D01*
X138525796Y-161182618D01*
X138568108Y-161175670D01*
X138571709Y-161173709D01*
X138560725Y-161145838D01*
X138530364Y-161073282D01*
X138484508Y-160965209D01*
X138427040Y-160830786D01*
X138384695Y-160732219D01*
X138197680Y-160297712D01*
X138049613Y-160740888D01*
X137901545Y-161184065D01*
X136653484Y-161184065D01*
X136674474Y-161159578D01*
X136849668Y-160967527D01*
X137038604Y-160770545D01*
X137234402Y-160575428D01*
X137430181Y-160388971D01*
X137619060Y-160217971D01*
X137794160Y-160069221D01*
X137948599Y-159949518D01*
X138075498Y-159865658D01*
X138117179Y-159843589D01*
X138187757Y-159817070D01*
X138248604Y-159820263D01*
G37*
D14*
X147250000Y-141000000D03*
X147250000Y-139250000D03*
X143750000Y-139250000D03*
X143750000Y-141000000D03*
D15*
X51045000Y-150900000D03*
X53095000Y-150900000D03*
D14*
X122750000Y-145875000D03*
X122750000Y-144125000D03*
X119250000Y-144125000D03*
X119250000Y-145875000D03*
X88250000Y-150875000D03*
X88250000Y-149125000D03*
X84750000Y-149125000D03*
X84750000Y-150875000D03*
X112250000Y-135875000D03*
X112250000Y-134125000D03*
X108750000Y-134125000D03*
X108750000Y-135875000D03*
D16*
X69342000Y-156061500D03*
X69342000Y-158136500D03*
D14*
X136750000Y-142875000D03*
X136750000Y-141125000D03*
X133250000Y-141125000D03*
X133250000Y-142875000D03*
D17*
X59817000Y-153924000D03*
D18*
X59817000Y-156464000D03*
X57277000Y-153924000D03*
X57277000Y-156464000D03*
X54737000Y-153924000D03*
X54737000Y-156464000D03*
D19*
X56335000Y-136652000D03*
D20*
X57785000Y-136652000D03*
D14*
X129750000Y-135875000D03*
X129750000Y-134125000D03*
X126250000Y-134125000D03*
X126250000Y-135875000D03*
D21*
X69414000Y-152781000D03*
X65714000Y-152781000D03*
D14*
X85250000Y-140875000D03*
X85250000Y-139125000D03*
X81750000Y-139125000D03*
X81750000Y-140875000D03*
X105750000Y-155875000D03*
X105750000Y-154125000D03*
X102250000Y-154125000D03*
X102250000Y-155875000D03*
D17*
X50130000Y-128000000D03*
D18*
X52670000Y-128000000D03*
X55210000Y-128000000D03*
X57750000Y-128000000D03*
X60290000Y-128000000D03*
X62830000Y-128000000D03*
X65370000Y-128000000D03*
X67910000Y-128000000D03*
X70450000Y-128000000D03*
X72990000Y-128000000D03*
D16*
X65532000Y-156061500D03*
X65532000Y-158136500D03*
D22*
X58187500Y-143100000D03*
X56112500Y-143100000D03*
D17*
X50130000Y-162500000D03*
D18*
X52670000Y-162500000D03*
X55210000Y-162500000D03*
X57750000Y-162500000D03*
X60290000Y-162500000D03*
X62830000Y-162500000D03*
X65370000Y-162500000D03*
X67910000Y-162500000D03*
X70450000Y-162500000D03*
X72990000Y-162500000D03*
D23*
X61150000Y-150750000D03*
X63150000Y-150750000D03*
D24*
X52109000Y-139307000D03*
X52109000Y-139957000D03*
X52109000Y-140607000D03*
X52109000Y-141257000D03*
X52109000Y-141907000D03*
D25*
X49459000Y-137032000D03*
D26*
X51689000Y-138287000D03*
D27*
X49459000Y-139482000D03*
X49459000Y-141732000D03*
D26*
X51689000Y-142927000D03*
D25*
X49459000Y-144182000D03*
D14*
X122750000Y-135875000D03*
X122750000Y-134125000D03*
X119250000Y-134125000D03*
X119250000Y-135875000D03*
D28*
X54200000Y-132800000D03*
X49800000Y-132800000D03*
D14*
X110750000Y-140875000D03*
X110750000Y-139125000D03*
X107250000Y-139125000D03*
X107250000Y-140875000D03*
D29*
X76700000Y-136250000D03*
X76700000Y-134250000D03*
D14*
X122750000Y-150875000D03*
X122750000Y-149125000D03*
X119250000Y-149125000D03*
X119250000Y-150875000D03*
D30*
X58150000Y-141165000D03*
X56150000Y-141165000D03*
D22*
X63787500Y-134000000D03*
X61712500Y-134000000D03*
D14*
X90250000Y-155875000D03*
X90250000Y-154125000D03*
X86750000Y-154125000D03*
X86750000Y-155875000D03*
X129750000Y-147000000D03*
X129750000Y-145250000D03*
X126250000Y-145250000D03*
X126250000Y-147000000D03*
D23*
X55007000Y-150900000D03*
X57007000Y-150900000D03*
D14*
X136750000Y-137875000D03*
X136750000Y-136125000D03*
X133250000Y-136125000D03*
X133250000Y-137875000D03*
X98000000Y-145875000D03*
X98000000Y-144125000D03*
X94500000Y-144125000D03*
X94500000Y-145875000D03*
X122750000Y-155875000D03*
X122750000Y-154125000D03*
X119250000Y-154125000D03*
X119250000Y-155875000D03*
X147250000Y-151000000D03*
X147250000Y-149250000D03*
X143750000Y-149250000D03*
X143750000Y-151000000D03*
X147250000Y-136000000D03*
X147250000Y-134250000D03*
X143750000Y-134250000D03*
X143750000Y-136000000D03*
X94750000Y-150875000D03*
X94750000Y-149125000D03*
X91250000Y-149125000D03*
X91250000Y-150875000D03*
D30*
X58150000Y-139260000D03*
X56150000Y-139260000D03*
D14*
X107750000Y-150875000D03*
X107750000Y-149125000D03*
X104250000Y-149125000D03*
X104250000Y-150875000D03*
D22*
X63787500Y-131750000D03*
X61712500Y-131750000D03*
D14*
X83750000Y-135875000D03*
X83750000Y-134125000D03*
X80250000Y-134125000D03*
X80250000Y-135875000D03*
X101250000Y-150875000D03*
X101250000Y-149125000D03*
X97750000Y-149125000D03*
X97750000Y-150875000D03*
D23*
X55000000Y-147600000D03*
X57000000Y-147600000D03*
D31*
X62260000Y-138240000D03*
X62260000Y-139040000D03*
X62260000Y-139840000D03*
X62260000Y-140640000D03*
X62260000Y-141440000D03*
X62260000Y-142240000D03*
X62260000Y-143040000D03*
X62260000Y-143840000D03*
X62260000Y-144640000D03*
X62260000Y-145440000D03*
X62260000Y-146240000D03*
D32*
X63960000Y-147940000D03*
X64760000Y-147940000D03*
X65560000Y-147940000D03*
X66360000Y-147940000D03*
X67160000Y-147940000D03*
X67960000Y-147940000D03*
X68760000Y-147940000D03*
X69560000Y-147940000D03*
X70360000Y-147940000D03*
X71160000Y-147940000D03*
X71960000Y-147940000D03*
D31*
X73660000Y-146240000D03*
X73660000Y-145440000D03*
X73660000Y-144640000D03*
X73660000Y-143840000D03*
X73660000Y-143040000D03*
X73660000Y-142240000D03*
X73660000Y-141440000D03*
X73660000Y-140640000D03*
X73660000Y-139840000D03*
X73660000Y-139040000D03*
X73660000Y-138240000D03*
D32*
X71960000Y-136540000D03*
X71160000Y-136540000D03*
X70360000Y-136540000D03*
X69560000Y-136540000D03*
X68760000Y-136540000D03*
X67960000Y-136540000D03*
X67160000Y-136540000D03*
X66360000Y-136540000D03*
X65560000Y-136540000D03*
X64760000Y-136540000D03*
X63960000Y-136540000D03*
D14*
X86750000Y-145875000D03*
X86750000Y-144125000D03*
X83250000Y-144125000D03*
X83250000Y-145875000D03*
D15*
X51075000Y-147600000D03*
X53125000Y-147600000D03*
D14*
X109250000Y-145875000D03*
X109250000Y-144125000D03*
X105750000Y-144125000D03*
X105750000Y-145875000D03*
X147250000Y-146000000D03*
X147250000Y-144250000D03*
X143750000Y-144250000D03*
X143750000Y-146000000D03*
X122750000Y-140875000D03*
X122750000Y-139125000D03*
X119250000Y-139125000D03*
X119250000Y-140875000D03*
X147250000Y-156000000D03*
X147250000Y-154250000D03*
X143750000Y-154250000D03*
X143750000Y-156000000D03*
%LPD*%
M02*
