G04 #@! TF.GenerationSoftware,KiCad,Pcbnew,8.0.1*
G04 #@! TF.CreationDate,2024-04-10T03:36:54-04:00*
G04 #@! TF.ProjectId,ieee_pcb_workshop,69656565-5f70-4636-925f-776f726b7368,rev?*
G04 #@! TF.SameCoordinates,Original*
G04 #@! TF.FileFunction,Legend,Bot*
G04 #@! TF.FilePolarity,Positive*
%FSLAX46Y46*%
G04 Gerber Fmt 4.6, Leading zero omitted, Abs format (unit mm)*
G04 Created by KiCad (PCBNEW 8.0.1) date 2024-04-10 03:36:54*
%MOMM*%
%LPD*%
G01*
G04 APERTURE LIST*
%ADD10C,0.150000*%
%ADD11C,0.200000*%
%ADD12R,1.700000X1.700000*%
%ADD13O,1.700000X1.700000*%
%ADD14O,1.900000X1.050000*%
G04 APERTURE END LIST*
D10*
X76700000Y-163450000D02*
X78500000Y-163450000D01*
X78500000Y-165500000D01*
X76700000Y-165500000D01*
X76700000Y-163450000D01*
G36*
X76700000Y-163450000D02*
G01*
X78500000Y-163450000D01*
X78500000Y-165500000D01*
X76700000Y-165500000D01*
X76700000Y-163450000D01*
G37*
X76600000Y-146600000D02*
X78500000Y-146600000D01*
X78500000Y-151200000D01*
X76600000Y-151200000D01*
X76600000Y-146600000D01*
G36*
X76600000Y-146600000D02*
G01*
X78500000Y-146600000D01*
X78500000Y-151200000D01*
X76600000Y-151200000D01*
X76600000Y-146600000D01*
G37*
X47400000Y-129600000D02*
X76700000Y-129600000D01*
X76700000Y-165500000D01*
X47400000Y-165500000D01*
X47400000Y-129600000D01*
G36*
X47400000Y-129600000D02*
G01*
X76700000Y-129600000D01*
X76700000Y-165500000D01*
X47400000Y-165500000D01*
X47400000Y-129600000D01*
G37*
X47400000Y-123500000D02*
X78500000Y-123500000D01*
X78500000Y-129600000D01*
X47400000Y-129600000D01*
X47400000Y-123500000D01*
G36*
X47400000Y-123500000D02*
G01*
X78500000Y-123500000D01*
X78500000Y-129600000D01*
X47400000Y-129600000D01*
X47400000Y-123500000D01*
G37*
X78500000Y-123500000D02*
X152500000Y-123500000D01*
X152500000Y-167500000D01*
X78500000Y-167500000D01*
X78500000Y-123500000D01*
G36*
X78500000Y-123500000D02*
G01*
X152500000Y-123500000D01*
X152500000Y-167500000D01*
X78500000Y-167500000D01*
X78500000Y-123500000D01*
G37*
D11*
G36*
X77735555Y-160460817D02*
G01*
X77810578Y-160496909D01*
X77836355Y-160521570D01*
X77867579Y-160581709D01*
X77868391Y-160630174D01*
X77839983Y-160689224D01*
X77815324Y-160714998D01*
X77747764Y-160750075D01*
X77580305Y-160793527D01*
X77366814Y-160795119D01*
X77198881Y-160754720D01*
X77123858Y-160718628D01*
X77098085Y-160693970D01*
X77066858Y-160633827D01*
X77066046Y-160585363D01*
X77094453Y-160526315D01*
X77119115Y-160500538D01*
X77186670Y-160465462D01*
X77354131Y-160422010D01*
X77567621Y-160420418D01*
X77735555Y-160460817D01*
G37*
G36*
X77735555Y-157127484D02*
G01*
X77810578Y-157163576D01*
X77836355Y-157188237D01*
X77867579Y-157248376D01*
X77868391Y-157296841D01*
X77839983Y-157355891D01*
X77815324Y-157381665D01*
X77747764Y-157416742D01*
X77580305Y-157460194D01*
X77366814Y-157461786D01*
X77198881Y-157421387D01*
X77123858Y-157385295D01*
X77098085Y-157360637D01*
X77066858Y-157300494D01*
X77066046Y-157252030D01*
X77094453Y-157192982D01*
X77119115Y-157167205D01*
X77186670Y-157132129D01*
X77354131Y-157088677D01*
X77567621Y-157087085D01*
X77735555Y-157127484D01*
G37*
G36*
X77458916Y-152313795D02*
G01*
X77422800Y-152296420D01*
X77400357Y-152253194D01*
X77399046Y-152109865D01*
X77421424Y-152063349D01*
X77464468Y-152041000D01*
X77512442Y-152040770D01*
X77458916Y-152313795D01*
G37*
G36*
X78509742Y-163531244D02*
G01*
X76662790Y-163531244D01*
X76662790Y-162953609D01*
X76820385Y-162953609D01*
X76832723Y-162990625D01*
X76858288Y-163020101D01*
X76893187Y-163037551D01*
X76932107Y-163040317D01*
X76951223Y-163035970D01*
X77534297Y-162839999D01*
X77535020Y-163080406D01*
X77281043Y-163081118D01*
X77244995Y-163096050D01*
X77217405Y-163123640D01*
X77202473Y-163159688D01*
X77202473Y-163198706D01*
X77217405Y-163234754D01*
X77244995Y-163262344D01*
X77281043Y-163277276D01*
X77300552Y-163279197D01*
X77535616Y-163278538D01*
X77535806Y-163341563D01*
X77550738Y-163377611D01*
X77578328Y-163405201D01*
X77614376Y-163420133D01*
X77653394Y-163420133D01*
X77689442Y-163405201D01*
X77717032Y-163377611D01*
X77731964Y-163341563D01*
X77733885Y-163322054D01*
X77733752Y-163277984D01*
X77986728Y-163277276D01*
X78022776Y-163262344D01*
X78050366Y-163234754D01*
X78065298Y-163198706D01*
X78065298Y-163159688D01*
X78050366Y-163123640D01*
X78022776Y-163096050D01*
X77986728Y-163081118D01*
X77967219Y-163079197D01*
X77733156Y-163079852D01*
X77732030Y-162705545D01*
X77733100Y-162690500D01*
X77731974Y-162687124D01*
X77731964Y-162683498D01*
X77725828Y-162668685D01*
X77720761Y-162653484D01*
X77718407Y-162650770D01*
X77717032Y-162647450D01*
X77705693Y-162636111D01*
X77695196Y-162624008D01*
X77691983Y-162622401D01*
X77689442Y-162619860D01*
X77674627Y-162613723D01*
X77660297Y-162606558D01*
X77656714Y-162606303D01*
X77653394Y-162604928D01*
X77637361Y-162604928D01*
X77621377Y-162603792D01*
X77616382Y-162604928D01*
X77614376Y-162604928D01*
X77611934Y-162605939D01*
X77602262Y-162608139D01*
X76870077Y-162854225D01*
X76840601Y-162879790D01*
X76823151Y-162914689D01*
X76820385Y-162953609D01*
X76662790Y-162953609D01*
X76662790Y-161893483D01*
X76867219Y-161893483D01*
X76868881Y-162116438D01*
X76868004Y-162119071D01*
X76869006Y-162133176D01*
X76869140Y-162151087D01*
X76870515Y-162154407D01*
X76870770Y-162157991D01*
X76877776Y-162176299D01*
X76927116Y-162271328D01*
X76931691Y-162282373D01*
X76934847Y-162286219D01*
X76935838Y-162288127D01*
X76937832Y-162289856D01*
X76944127Y-162297527D01*
X76994229Y-162345460D01*
X77001145Y-162353435D01*
X77005294Y-162356046D01*
X77006899Y-162357582D01*
X77009339Y-162358592D01*
X77017736Y-162363878D01*
X77100753Y-162403816D01*
X77102138Y-162405201D01*
X77112887Y-162409653D01*
X77131282Y-162418503D01*
X77134865Y-162418757D01*
X77138186Y-162420133D01*
X77157695Y-162422054D01*
X77253837Y-162420444D01*
X77265440Y-162421269D01*
X77270276Y-162420169D01*
X77272442Y-162420133D01*
X77274884Y-162419121D01*
X77284556Y-162416922D01*
X77412930Y-162372514D01*
X77415299Y-162372514D01*
X77427295Y-162367544D01*
X77445313Y-162361312D01*
X77448028Y-162358956D01*
X77451347Y-162357582D01*
X77466501Y-162345146D01*
X77867937Y-161941841D01*
X77869140Y-162341563D01*
X77884072Y-162377611D01*
X77911662Y-162405201D01*
X77947710Y-162420133D01*
X77986728Y-162420133D01*
X78022776Y-162405201D01*
X78050366Y-162377611D01*
X78065298Y-162341563D01*
X78067219Y-162322054D01*
X78065298Y-161683498D01*
X78050366Y-161647450D01*
X78022776Y-161619860D01*
X77986728Y-161604928D01*
X77947710Y-161604928D01*
X77911662Y-161619860D01*
X77896508Y-161632296D01*
X77345262Y-162186106D01*
X77240756Y-162222257D01*
X77182908Y-162223226D01*
X77123858Y-162194818D01*
X77098085Y-162170160D01*
X77067061Y-162110408D01*
X77065637Y-161919546D01*
X77094453Y-161859648D01*
X77145604Y-161806184D01*
X77160535Y-161770135D01*
X77160535Y-161731117D01*
X77145604Y-161695069D01*
X77118014Y-161667479D01*
X77081966Y-161652548D01*
X77042948Y-161652548D01*
X77006899Y-161667479D01*
X76991746Y-161679916D01*
X76943814Y-161730016D01*
X76935838Y-161736934D01*
X76933225Y-161741083D01*
X76931691Y-161742688D01*
X76930680Y-161745127D01*
X76925395Y-161753524D01*
X76885456Y-161836541D01*
X76884072Y-161837926D01*
X76879619Y-161848675D01*
X76870770Y-161867070D01*
X76870515Y-161870653D01*
X76869140Y-161873974D01*
X76867219Y-161893483D01*
X76662790Y-161893483D01*
X76662790Y-161341564D01*
X77773901Y-161341564D01*
X77775385Y-161345147D01*
X77788832Y-161377612D01*
X77788833Y-161377613D01*
X77801270Y-161392766D01*
X77864043Y-161452822D01*
X77889533Y-161463379D01*
X77900091Y-161467753D01*
X77900092Y-161467753D01*
X77939109Y-161467753D01*
X77960226Y-161459005D01*
X77975158Y-161452821D01*
X77975162Y-161452816D01*
X77990311Y-161440385D01*
X78050366Y-161377613D01*
X78061735Y-161350165D01*
X78065298Y-161341564D01*
X78065298Y-161302546D01*
X78050366Y-161266498D01*
X78050366Y-161266497D01*
X78037929Y-161251344D01*
X77975180Y-161191311D01*
X77975158Y-161191289D01*
X77960226Y-161185104D01*
X77939109Y-161176357D01*
X77900091Y-161176357D01*
X77889533Y-161180730D01*
X77864043Y-161191288D01*
X77848890Y-161203725D01*
X77788833Y-161266497D01*
X77788832Y-161266498D01*
X77778274Y-161291988D01*
X77773901Y-161302546D01*
X77773901Y-161341564D01*
X76662790Y-161341564D01*
X76662790Y-160560150D01*
X76867219Y-160560150D01*
X76868575Y-160641167D01*
X76868004Y-160642881D01*
X76868788Y-160653925D01*
X76869140Y-160674897D01*
X76870515Y-160678217D01*
X76870770Y-160681801D01*
X76877776Y-160700109D01*
X76927116Y-160795138D01*
X76931691Y-160806183D01*
X76934847Y-160810029D01*
X76935838Y-160811937D01*
X76937832Y-160813666D01*
X76944127Y-160821337D01*
X76994229Y-160869270D01*
X77001145Y-160877245D01*
X77005294Y-160879856D01*
X77006899Y-160881392D01*
X77009339Y-160882402D01*
X77017736Y-160887688D01*
X77108007Y-160931116D01*
X77114981Y-160936283D01*
X77129615Y-160941511D01*
X77131282Y-160942313D01*
X77132002Y-160942364D01*
X77133441Y-160942878D01*
X77318753Y-160987457D01*
X77328662Y-160991562D01*
X77340771Y-160992754D01*
X77343310Y-160993365D01*
X77344768Y-160993147D01*
X77348171Y-160993483D01*
X77580288Y-160991752D01*
X77591127Y-160993365D01*
X77603188Y-160991581D01*
X77605775Y-160991562D01*
X77607138Y-160990997D01*
X77610520Y-160990497D01*
X77793599Y-160942992D01*
X77803155Y-160942313D01*
X77817767Y-160936721D01*
X77819456Y-160936283D01*
X77820036Y-160935852D01*
X77821463Y-160935307D01*
X77916487Y-160885969D01*
X77927537Y-160881393D01*
X77931385Y-160878234D01*
X77933291Y-160877245D01*
X77935020Y-160875250D01*
X77942690Y-160868956D01*
X77990623Y-160818855D01*
X77998600Y-160811938D01*
X78001211Y-160807788D01*
X78002747Y-160806184D01*
X78003757Y-160803743D01*
X78009043Y-160795347D01*
X78048981Y-160712329D01*
X78050366Y-160710945D01*
X78054818Y-160700195D01*
X78063668Y-160681801D01*
X78063922Y-160678217D01*
X78065298Y-160674897D01*
X78067219Y-160655388D01*
X78065862Y-160574370D01*
X78066434Y-160572657D01*
X78065649Y-160561612D01*
X78065298Y-160540641D01*
X78063922Y-160537320D01*
X78063668Y-160533737D01*
X78056662Y-160515428D01*
X78007320Y-160420395D01*
X78002747Y-160409354D01*
X77999590Y-160405508D01*
X77998600Y-160403600D01*
X77996603Y-160401868D01*
X77990310Y-160394200D01*
X77940202Y-160346262D01*
X77933291Y-160338293D01*
X77929144Y-160335682D01*
X77927537Y-160334145D01*
X77925093Y-160333133D01*
X77916701Y-160327850D01*
X77826429Y-160284421D01*
X77819456Y-160279255D01*
X77804823Y-160274027D01*
X77803155Y-160273225D01*
X77802432Y-160273173D01*
X77800995Y-160272660D01*
X77615684Y-160228080D01*
X77605775Y-160223976D01*
X77593665Y-160222783D01*
X77591127Y-160222173D01*
X77589668Y-160222390D01*
X77586266Y-160222055D01*
X77354148Y-160223785D01*
X77343310Y-160222173D01*
X77331248Y-160223956D01*
X77328662Y-160223976D01*
X77327298Y-160224540D01*
X77323917Y-160225041D01*
X77140837Y-160272545D01*
X77131282Y-160273225D01*
X77116666Y-160278817D01*
X77114981Y-160279255D01*
X77114401Y-160279684D01*
X77112973Y-160280231D01*
X77017939Y-160329573D01*
X77006899Y-160334146D01*
X77003053Y-160337301D01*
X77001145Y-160338293D01*
X76999412Y-160340290D01*
X76991746Y-160346583D01*
X76943814Y-160396683D01*
X76935838Y-160403601D01*
X76933225Y-160407750D01*
X76931691Y-160409355D01*
X76930680Y-160411794D01*
X76925395Y-160420191D01*
X76885456Y-160503208D01*
X76884072Y-160504593D01*
X76879619Y-160515342D01*
X76870770Y-160533737D01*
X76870515Y-160537320D01*
X76869140Y-160540641D01*
X76867219Y-160560150D01*
X76662790Y-160560150D01*
X76662790Y-159655283D01*
X76867219Y-159655283D01*
X76869140Y-159664993D01*
X76869140Y-159674897D01*
X76872889Y-159683949D01*
X76874791Y-159693560D01*
X76880283Y-159701798D01*
X76884072Y-159710945D01*
X76890998Y-159717871D01*
X76896434Y-159726025D01*
X76904662Y-159731535D01*
X76911662Y-159738535D01*
X76920713Y-159742284D01*
X76928854Y-159747736D01*
X76938561Y-159749677D01*
X76947710Y-159753467D01*
X76967012Y-159755367D01*
X76967114Y-159755388D01*
X76967148Y-159755381D01*
X76967219Y-159755388D01*
X77868467Y-159753689D01*
X77869140Y-159960611D01*
X77884072Y-159996659D01*
X77911662Y-160024249D01*
X77947710Y-160039181D01*
X77986728Y-160039181D01*
X78022776Y-160024249D01*
X78050366Y-159996659D01*
X78065298Y-159960611D01*
X78067219Y-159941102D01*
X78065298Y-159350165D01*
X78050366Y-159314117D01*
X78022776Y-159286527D01*
X77986728Y-159271595D01*
X77947710Y-159271595D01*
X77911662Y-159286527D01*
X77884072Y-159314117D01*
X77869140Y-159350165D01*
X77867219Y-159369674D01*
X77867823Y-159555575D01*
X77253089Y-159556733D01*
X77274798Y-159534476D01*
X77284314Y-159526224D01*
X77286981Y-159521985D01*
X77288461Y-159520469D01*
X77289470Y-159518031D01*
X77294757Y-159509633D01*
X77349382Y-159396087D01*
X77352148Y-159357167D01*
X77339809Y-159320151D01*
X77314244Y-159290674D01*
X77279346Y-159273225D01*
X77240426Y-159270460D01*
X77203410Y-159282798D01*
X77173933Y-159308363D01*
X77163490Y-159324953D01*
X77125867Y-159403157D01*
X77052490Y-159478386D01*
X76919482Y-159569001D01*
X76911662Y-159572241D01*
X76905109Y-159578793D01*
X76896582Y-159584603D01*
X76891071Y-159592831D01*
X76884072Y-159599831D01*
X76880322Y-159608882D01*
X76874871Y-159617023D01*
X76872929Y-159626730D01*
X76869140Y-159635879D01*
X76869140Y-159645678D01*
X76867219Y-159655283D01*
X76662790Y-159655283D01*
X76662790Y-158960612D01*
X77773901Y-158960612D01*
X77775385Y-158964195D01*
X77788832Y-158996660D01*
X77788833Y-158996661D01*
X77801270Y-159011814D01*
X77864043Y-159071870D01*
X77889533Y-159082427D01*
X77900091Y-159086801D01*
X77900092Y-159086801D01*
X77939109Y-159086801D01*
X77960226Y-159078053D01*
X77975158Y-159071869D01*
X77975162Y-159071864D01*
X77990311Y-159059433D01*
X78050366Y-158996661D01*
X78061735Y-158969213D01*
X78065298Y-158960612D01*
X78065298Y-158921594D01*
X78050366Y-158885546D01*
X78050366Y-158885545D01*
X78037929Y-158870392D01*
X77975180Y-158810359D01*
X77975158Y-158810337D01*
X77960226Y-158804152D01*
X77939109Y-158795405D01*
X77900091Y-158795405D01*
X77889533Y-158799778D01*
X77864043Y-158810336D01*
X77848890Y-158822773D01*
X77788833Y-158885545D01*
X77788832Y-158885546D01*
X77778274Y-158911036D01*
X77773901Y-158921594D01*
X77773901Y-158960612D01*
X76662790Y-158960612D01*
X76662790Y-158191705D01*
X76820385Y-158191705D01*
X76832723Y-158228721D01*
X76858288Y-158258197D01*
X76893187Y-158275647D01*
X76932107Y-158278413D01*
X76951223Y-158274066D01*
X77534297Y-158078095D01*
X77535020Y-158318502D01*
X77281043Y-158319214D01*
X77244995Y-158334146D01*
X77217405Y-158361736D01*
X77202473Y-158397784D01*
X77202473Y-158436802D01*
X77217405Y-158472850D01*
X77244995Y-158500440D01*
X77281043Y-158515372D01*
X77300552Y-158517293D01*
X77535616Y-158516634D01*
X77535806Y-158579659D01*
X77550738Y-158615707D01*
X77578328Y-158643297D01*
X77614376Y-158658229D01*
X77653394Y-158658229D01*
X77689442Y-158643297D01*
X77717032Y-158615707D01*
X77731964Y-158579659D01*
X77733885Y-158560150D01*
X77733752Y-158516080D01*
X77986728Y-158515372D01*
X78022776Y-158500440D01*
X78050366Y-158472850D01*
X78065298Y-158436802D01*
X78065298Y-158397784D01*
X78050366Y-158361736D01*
X78022776Y-158334146D01*
X77986728Y-158319214D01*
X77967219Y-158317293D01*
X77733156Y-158317948D01*
X77732030Y-157943641D01*
X77733100Y-157928596D01*
X77731974Y-157925220D01*
X77731964Y-157921594D01*
X77725828Y-157906781D01*
X77720761Y-157891580D01*
X77718407Y-157888866D01*
X77717032Y-157885546D01*
X77705693Y-157874207D01*
X77695196Y-157862104D01*
X77691983Y-157860497D01*
X77689442Y-157857956D01*
X77674627Y-157851819D01*
X77660297Y-157844654D01*
X77656714Y-157844399D01*
X77653394Y-157843024D01*
X77637361Y-157843024D01*
X77621377Y-157841888D01*
X77616382Y-157843024D01*
X77614376Y-157843024D01*
X77611934Y-157844035D01*
X77602262Y-157846235D01*
X76870077Y-158092321D01*
X76840601Y-158117886D01*
X76823151Y-158152785D01*
X76820385Y-158191705D01*
X76662790Y-158191705D01*
X76662790Y-157226817D01*
X76867219Y-157226817D01*
X76868575Y-157307834D01*
X76868004Y-157309548D01*
X76868788Y-157320592D01*
X76869140Y-157341564D01*
X76870515Y-157344884D01*
X76870770Y-157348468D01*
X76877776Y-157366776D01*
X76927116Y-157461805D01*
X76931691Y-157472850D01*
X76934847Y-157476696D01*
X76935838Y-157478604D01*
X76937832Y-157480333D01*
X76944127Y-157488004D01*
X76994229Y-157535937D01*
X77001145Y-157543912D01*
X77005294Y-157546523D01*
X77006899Y-157548059D01*
X77009339Y-157549069D01*
X77017736Y-157554355D01*
X77108007Y-157597783D01*
X77114981Y-157602950D01*
X77129615Y-157608178D01*
X77131282Y-157608980D01*
X77132002Y-157609031D01*
X77133441Y-157609545D01*
X77318753Y-157654124D01*
X77328662Y-157658229D01*
X77340771Y-157659421D01*
X77343310Y-157660032D01*
X77344768Y-157659814D01*
X77348171Y-157660150D01*
X77580288Y-157658419D01*
X77591127Y-157660032D01*
X77603188Y-157658248D01*
X77605775Y-157658229D01*
X77607138Y-157657664D01*
X77610520Y-157657164D01*
X77793599Y-157609659D01*
X77803155Y-157608980D01*
X77817767Y-157603388D01*
X77819456Y-157602950D01*
X77820036Y-157602519D01*
X77821463Y-157601974D01*
X77916487Y-157552636D01*
X77927537Y-157548060D01*
X77931385Y-157544901D01*
X77933291Y-157543912D01*
X77935020Y-157541917D01*
X77942690Y-157535623D01*
X77990623Y-157485522D01*
X77998600Y-157478605D01*
X78001211Y-157474455D01*
X78002747Y-157472851D01*
X78003757Y-157470410D01*
X78009043Y-157462014D01*
X78048981Y-157378996D01*
X78050366Y-157377612D01*
X78054818Y-157366862D01*
X78063668Y-157348468D01*
X78063922Y-157344884D01*
X78065298Y-157341564D01*
X78067219Y-157322055D01*
X78065862Y-157241037D01*
X78066434Y-157239324D01*
X78065649Y-157228279D01*
X78065298Y-157207308D01*
X78063922Y-157203987D01*
X78063668Y-157200404D01*
X78056662Y-157182095D01*
X78007320Y-157087062D01*
X78002747Y-157076021D01*
X77999590Y-157072175D01*
X77998600Y-157070267D01*
X77996603Y-157068535D01*
X77990310Y-157060867D01*
X77940202Y-157012929D01*
X77933291Y-157004960D01*
X77929144Y-157002349D01*
X77927537Y-157000812D01*
X77925093Y-156999800D01*
X77916701Y-156994517D01*
X77826429Y-156951088D01*
X77819456Y-156945922D01*
X77804823Y-156940694D01*
X77803155Y-156939892D01*
X77802432Y-156939840D01*
X77800995Y-156939327D01*
X77615684Y-156894747D01*
X77605775Y-156890643D01*
X77593665Y-156889450D01*
X77591127Y-156888840D01*
X77589668Y-156889057D01*
X77586266Y-156888722D01*
X77354148Y-156890452D01*
X77343310Y-156888840D01*
X77331248Y-156890623D01*
X77328662Y-156890643D01*
X77327298Y-156891207D01*
X77323917Y-156891708D01*
X77140837Y-156939212D01*
X77131282Y-156939892D01*
X77116666Y-156945484D01*
X77114981Y-156945922D01*
X77114401Y-156946351D01*
X77112973Y-156946898D01*
X77017939Y-156996240D01*
X77006899Y-157000813D01*
X77003053Y-157003968D01*
X77001145Y-157004960D01*
X76999412Y-157006957D01*
X76991746Y-157013250D01*
X76943814Y-157063350D01*
X76935838Y-157070268D01*
X76933225Y-157074417D01*
X76931691Y-157076022D01*
X76930680Y-157078461D01*
X76925395Y-157086858D01*
X76885456Y-157169875D01*
X76884072Y-157171260D01*
X76879619Y-157182009D01*
X76870770Y-157200404D01*
X76870515Y-157203987D01*
X76869140Y-157207308D01*
X76867219Y-157226817D01*
X76662790Y-157226817D01*
X76662790Y-155579659D01*
X76773901Y-155579659D01*
X76788833Y-155615707D01*
X76816423Y-155643297D01*
X76852471Y-155658229D01*
X76871980Y-155660150D01*
X78320061Y-155658229D01*
X78356109Y-155643297D01*
X78383699Y-155615707D01*
X78398631Y-155579659D01*
X78398631Y-155540641D01*
X78383699Y-155504593D01*
X78356109Y-155477003D01*
X78320061Y-155462071D01*
X78300552Y-155460150D01*
X76852471Y-155462071D01*
X76816423Y-155477003D01*
X76788833Y-155504593D01*
X76773901Y-155540641D01*
X76773901Y-155579659D01*
X76662790Y-155579659D01*
X76662790Y-153845759D01*
X76867219Y-153845759D01*
X76869140Y-153855469D01*
X76869140Y-153865373D01*
X76872889Y-153874425D01*
X76874791Y-153884036D01*
X76880283Y-153892274D01*
X76884072Y-153901421D01*
X76890998Y-153908347D01*
X76896434Y-153916501D01*
X76904662Y-153922011D01*
X76911662Y-153929011D01*
X76920713Y-153932760D01*
X76928854Y-153938212D01*
X76938561Y-153940153D01*
X76947710Y-153943943D01*
X76967012Y-153945843D01*
X76967114Y-153945864D01*
X76967148Y-153945857D01*
X76967219Y-153945864D01*
X77868467Y-153944165D01*
X77869140Y-154151087D01*
X77884072Y-154187135D01*
X77911662Y-154214725D01*
X77947710Y-154229657D01*
X77986728Y-154229657D01*
X78022776Y-154214725D01*
X78050366Y-154187135D01*
X78065298Y-154151087D01*
X78067219Y-154131578D01*
X78065298Y-153540641D01*
X78050366Y-153504593D01*
X78022776Y-153477003D01*
X77986728Y-153462071D01*
X77947710Y-153462071D01*
X77911662Y-153477003D01*
X77884072Y-153504593D01*
X77869140Y-153540641D01*
X77867219Y-153560150D01*
X77867823Y-153746051D01*
X77253089Y-153747209D01*
X77274798Y-153724952D01*
X77284314Y-153716700D01*
X77286981Y-153712461D01*
X77288461Y-153710945D01*
X77289470Y-153708507D01*
X77294757Y-153700109D01*
X77349382Y-153586563D01*
X77352148Y-153547643D01*
X77339809Y-153510627D01*
X77314244Y-153481150D01*
X77279346Y-153463701D01*
X77240426Y-153460936D01*
X77203410Y-153473274D01*
X77173933Y-153498839D01*
X77163490Y-153515429D01*
X77125867Y-153593633D01*
X77052490Y-153668862D01*
X76919482Y-153759477D01*
X76911662Y-153762717D01*
X76905109Y-153769269D01*
X76896582Y-153775079D01*
X76891071Y-153783307D01*
X76884072Y-153790307D01*
X76880322Y-153799358D01*
X76874871Y-153807499D01*
X76872929Y-153817206D01*
X76869140Y-153826355D01*
X76869140Y-153836154D01*
X76867219Y-153845759D01*
X76662790Y-153845759D01*
X76662790Y-153241431D01*
X77201625Y-153241431D01*
X77214748Y-153278176D01*
X77240935Y-153307102D01*
X77276197Y-153323805D01*
X77315167Y-153325743D01*
X77334186Y-153320990D01*
X77986870Y-153085943D01*
X77991574Y-153085710D01*
X78004429Y-153079620D01*
X78018579Y-153074525D01*
X78022301Y-153071154D01*
X78026836Y-153069007D01*
X78036657Y-153058157D01*
X78047504Y-153048338D01*
X78049651Y-153043803D01*
X78053022Y-153040081D01*
X78057943Y-153026299D01*
X78064208Y-153013076D01*
X78064457Y-153008061D01*
X78066145Y-153003336D01*
X78065418Y-152988721D01*
X78066145Y-152974106D01*
X78064457Y-152969380D01*
X78064208Y-152964366D01*
X78057943Y-152951142D01*
X78053022Y-152937361D01*
X78049651Y-152933638D01*
X78047504Y-152929104D01*
X78036657Y-152919284D01*
X78026836Y-152908435D01*
X78022301Y-152906287D01*
X78018579Y-152902917D01*
X78000852Y-152894547D01*
X77315167Y-152651699D01*
X77276197Y-152653637D01*
X77240935Y-152670340D01*
X77214748Y-152699266D01*
X77201625Y-152736011D01*
X77203563Y-152774981D01*
X77220266Y-152810243D01*
X77249192Y-152836430D01*
X77266918Y-152844800D01*
X77672675Y-152988506D01*
X77249192Y-153141012D01*
X77220266Y-153167199D01*
X77203563Y-153202461D01*
X77201625Y-153241431D01*
X76662790Y-153241431D01*
X76662790Y-152083959D01*
X77200552Y-152083959D01*
X77202157Y-152259466D01*
X77201337Y-152261928D01*
X77202304Y-152275543D01*
X77202473Y-152293944D01*
X77203848Y-152297264D01*
X77204103Y-152300848D01*
X77211109Y-152319156D01*
X77258146Y-152409750D01*
X77261295Y-152419196D01*
X77265669Y-152424240D01*
X77269171Y-152430984D01*
X77278641Y-152439197D01*
X77286859Y-152448673D01*
X77296732Y-152454887D01*
X77298648Y-152456549D01*
X77300186Y-152457061D01*
X77303450Y-152459116D01*
X77386467Y-152499054D01*
X77387852Y-152500439D01*
X77398601Y-152504891D01*
X77416996Y-152513741D01*
X77420579Y-152513995D01*
X77423900Y-152515371D01*
X77443409Y-152517292D01*
X77531193Y-152515822D01*
X77538542Y-152517292D01*
X77547337Y-152515552D01*
X77558156Y-152515371D01*
X77567208Y-152511621D01*
X77576819Y-152509720D01*
X77585057Y-152504227D01*
X77594204Y-152500439D01*
X77601130Y-152493512D01*
X77609284Y-152488077D01*
X77614794Y-152479848D01*
X77621794Y-152472849D01*
X77625543Y-152463797D01*
X77630995Y-152455657D01*
X77636705Y-152436904D01*
X77636724Y-152436804D01*
X77636726Y-152436801D01*
X77636726Y-152436796D01*
X77714555Y-152039801D01*
X77798048Y-152039400D01*
X77844971Y-152061974D01*
X77867413Y-152105198D01*
X77868724Y-152248528D01*
X77823151Y-152343260D01*
X77820385Y-152382180D01*
X77832724Y-152419196D01*
X77858288Y-152448673D01*
X77893187Y-152466122D01*
X77932107Y-152468888D01*
X77969123Y-152456549D01*
X77998600Y-152430985D01*
X78009043Y-152414394D01*
X78048981Y-152331376D01*
X78050366Y-152329992D01*
X78054818Y-152319242D01*
X78063668Y-152300848D01*
X78063922Y-152297264D01*
X78065298Y-152293944D01*
X78067219Y-152274435D01*
X78065613Y-152098927D01*
X78066434Y-152096466D01*
X78065466Y-152082850D01*
X78065298Y-152064450D01*
X78063922Y-152061129D01*
X78063668Y-152057546D01*
X78056662Y-152039237D01*
X78009624Y-151948642D01*
X78006476Y-151939197D01*
X78002101Y-151934153D01*
X77998600Y-151927409D01*
X77989125Y-151919192D01*
X77980911Y-151909721D01*
X77971039Y-151903507D01*
X77969123Y-151901845D01*
X77967584Y-151901331D01*
X77964321Y-151899278D01*
X77881303Y-151859340D01*
X77879918Y-151857955D01*
X77869163Y-151853500D01*
X77850773Y-151844653D01*
X77847190Y-151844398D01*
X77843870Y-151843023D01*
X77824361Y-151841102D01*
X77638449Y-151841993D01*
X77633990Y-151841102D01*
X77629258Y-151842037D01*
X77458821Y-151842855D01*
X77455916Y-151841887D01*
X77441091Y-151842940D01*
X77423900Y-151843023D01*
X77420579Y-151844398D01*
X77416996Y-151844653D01*
X77398687Y-151851659D01*
X77308089Y-151898698D01*
X77298648Y-151901845D01*
X77293605Y-151906217D01*
X77286859Y-151909721D01*
X77278641Y-151919196D01*
X77269171Y-151927410D01*
X77262957Y-151937281D01*
X77261295Y-151939198D01*
X77260781Y-151940736D01*
X77258728Y-151944000D01*
X77218789Y-152027017D01*
X77217405Y-152028402D01*
X77212952Y-152039151D01*
X77204103Y-152057546D01*
X77203848Y-152061129D01*
X77202473Y-152064450D01*
X77200552Y-152083959D01*
X76662790Y-152083959D01*
X76662790Y-151560149D01*
X77200552Y-151560149D01*
X77202473Y-151674896D01*
X77217405Y-151710944D01*
X77244995Y-151738534D01*
X77281043Y-151753466D01*
X77320061Y-151753466D01*
X77356109Y-151738534D01*
X77383699Y-151710944D01*
X77398631Y-151674896D01*
X77400552Y-151655387D01*
X77399379Y-151585362D01*
X77427786Y-151526314D01*
X77452448Y-151500537D01*
X77513038Y-151469078D01*
X77986728Y-151467752D01*
X78022776Y-151452820D01*
X78050366Y-151425230D01*
X78065298Y-151389182D01*
X78065298Y-151350164D01*
X78050366Y-151314116D01*
X78022776Y-151286526D01*
X77986728Y-151271594D01*
X77967219Y-151269673D01*
X77505061Y-151270966D01*
X77503535Y-151270458D01*
X77496018Y-151270992D01*
X77281043Y-151271594D01*
X77244995Y-151286526D01*
X77217405Y-151314116D01*
X77202473Y-151350164D01*
X77202473Y-151389182D01*
X77217405Y-151425230D01*
X77243668Y-151451493D01*
X77218789Y-151503207D01*
X77217405Y-151504592D01*
X77212952Y-151515341D01*
X77204103Y-151533736D01*
X77203848Y-151537319D01*
X77202473Y-151540640D01*
X77200552Y-151560149D01*
X76662790Y-151560149D01*
X76662790Y-151158562D01*
X78509742Y-151158562D01*
X78509742Y-163531244D01*
G37*
G36*
X77810578Y-145282623D02*
G01*
X77836355Y-145307284D01*
X77867471Y-145367215D01*
X77868605Y-145463062D01*
X77839983Y-145522557D01*
X77815324Y-145548331D01*
X77755620Y-145579329D01*
X77517200Y-145580830D01*
X77457191Y-145551961D01*
X77431418Y-145527303D01*
X77400299Y-145467368D01*
X77399165Y-145371522D01*
X77427786Y-145312029D01*
X77452448Y-145286252D01*
X77512148Y-145255255D01*
X77750569Y-145253754D01*
X77810578Y-145282623D01*
G37*
G36*
X77867413Y-142605198D02*
G01*
X77868724Y-142748528D01*
X77839983Y-142808271D01*
X77815324Y-142834045D01*
X77755620Y-142865043D01*
X77517200Y-142866544D01*
X77457191Y-142837675D01*
X77431418Y-142813017D01*
X77400357Y-142753194D01*
X77399046Y-142609865D01*
X77409619Y-142587887D01*
X77857986Y-142587042D01*
X77867413Y-142605198D01*
G37*
G36*
X77810578Y-141044527D02*
G01*
X77836355Y-141069188D01*
X77867471Y-141129119D01*
X77868605Y-141224966D01*
X77839983Y-141284461D01*
X77815324Y-141310235D01*
X77755620Y-141341233D01*
X77517200Y-141342734D01*
X77457191Y-141313865D01*
X77431418Y-141289207D01*
X77400299Y-141229272D01*
X77399165Y-141133426D01*
X77427786Y-141073933D01*
X77452448Y-141048156D01*
X77512148Y-141017159D01*
X77750569Y-141015658D01*
X77810578Y-141044527D01*
G37*
G36*
X77810578Y-140139765D02*
G01*
X77836355Y-140164426D01*
X77867413Y-140224245D01*
X77868724Y-140367575D01*
X77858271Y-140389303D01*
X77409755Y-140390342D01*
X77400357Y-140372241D01*
X77399046Y-140228912D01*
X77427786Y-140169171D01*
X77452448Y-140143394D01*
X77512148Y-140112397D01*
X77750569Y-140110896D01*
X77810578Y-140139765D01*
G37*
G36*
X77810578Y-139235003D02*
G01*
X77836355Y-139259664D01*
X77867413Y-139319483D01*
X77868724Y-139462813D01*
X77858453Y-139484162D01*
X77409458Y-139485008D01*
X77400357Y-139467479D01*
X77399046Y-139324150D01*
X77427786Y-139264409D01*
X77452448Y-139238632D01*
X77512148Y-139207635D01*
X77750569Y-139206134D01*
X77810578Y-139235003D01*
G37*
G36*
X77810578Y-135949289D02*
G01*
X77836355Y-135973950D01*
X77867471Y-136033881D01*
X77868605Y-136129728D01*
X77839983Y-136189223D01*
X77815324Y-136214997D01*
X77755620Y-136245995D01*
X77517200Y-136247496D01*
X77457191Y-136218627D01*
X77431418Y-136193969D01*
X77400299Y-136134034D01*
X77399165Y-136038188D01*
X77427786Y-135978695D01*
X77452448Y-135952918D01*
X77512148Y-135921921D01*
X77750569Y-135920420D01*
X77810578Y-135949289D01*
G37*
G36*
X77867413Y-133748055D02*
G01*
X77868724Y-133891385D01*
X77839983Y-133951128D01*
X77815324Y-133976902D01*
X77755620Y-134007900D01*
X77517200Y-134009401D01*
X77457191Y-133980532D01*
X77431418Y-133955874D01*
X77400357Y-133896051D01*
X77399046Y-133752722D01*
X77409619Y-133730744D01*
X77857986Y-133729899D01*
X77867413Y-133748055D01*
G37*
G36*
X77810578Y-129949289D02*
G01*
X77836355Y-129973950D01*
X77867413Y-130033769D01*
X77868724Y-130177099D01*
X77858271Y-130198827D01*
X77409755Y-130199866D01*
X77400357Y-130181765D01*
X77399046Y-130038436D01*
X77427786Y-129978695D01*
X77452448Y-129952918D01*
X77512148Y-129921921D01*
X77750569Y-129920420D01*
X77810578Y-129949289D01*
G37*
G36*
X78511663Y-146698759D02*
G01*
X76708489Y-146698759D01*
X76708489Y-146503336D01*
X77201625Y-146503336D01*
X77214748Y-146540081D01*
X77240935Y-146569007D01*
X77276197Y-146585710D01*
X77315167Y-146587648D01*
X77334186Y-146582895D01*
X77986870Y-146347848D01*
X77991574Y-146347615D01*
X78004429Y-146341525D01*
X78018579Y-146336430D01*
X78022301Y-146333059D01*
X78026836Y-146330912D01*
X78036657Y-146320062D01*
X78047504Y-146310243D01*
X78049651Y-146305708D01*
X78053022Y-146301986D01*
X78057943Y-146288204D01*
X78064208Y-146274981D01*
X78064457Y-146269966D01*
X78066145Y-146265241D01*
X78065418Y-146250626D01*
X78066145Y-146236011D01*
X78064457Y-146231285D01*
X78064208Y-146226271D01*
X78057943Y-146213047D01*
X78053022Y-146199266D01*
X78049651Y-146195543D01*
X78047504Y-146191009D01*
X78036657Y-146181189D01*
X78026836Y-146170340D01*
X78022301Y-146168192D01*
X78018579Y-146164822D01*
X78000852Y-146156452D01*
X77315167Y-145913604D01*
X77276197Y-145915542D01*
X77240935Y-145932245D01*
X77214748Y-145961171D01*
X77201625Y-145997916D01*
X77203563Y-146036886D01*
X77220266Y-146072148D01*
X77249192Y-146098335D01*
X77266918Y-146106705D01*
X77672675Y-146250411D01*
X77249192Y-146402917D01*
X77220266Y-146429104D01*
X77203563Y-146464366D01*
X77201625Y-146503336D01*
X76708489Y-146503336D01*
X76708489Y-145345864D01*
X77200552Y-145345864D01*
X77202068Y-145474020D01*
X77201337Y-145476214D01*
X77202245Y-145488996D01*
X77202473Y-145508230D01*
X77203848Y-145511550D01*
X77204103Y-145515134D01*
X77211109Y-145533442D01*
X77260449Y-145628471D01*
X77265024Y-145639516D01*
X77268180Y-145643362D01*
X77269171Y-145645270D01*
X77271165Y-145646999D01*
X77277460Y-145654670D01*
X77327562Y-145702603D01*
X77334478Y-145710578D01*
X77338627Y-145713189D01*
X77340232Y-145714725D01*
X77342672Y-145715735D01*
X77351069Y-145721021D01*
X77434086Y-145760959D01*
X77435471Y-145762344D01*
X77446220Y-145766796D01*
X77464615Y-145775646D01*
X77468198Y-145775900D01*
X77471519Y-145777276D01*
X77491028Y-145779197D01*
X77761483Y-145777494D01*
X77764235Y-145778412D01*
X77778661Y-145777386D01*
X77796251Y-145777276D01*
X77799571Y-145775900D01*
X77803155Y-145775646D01*
X77821463Y-145768640D01*
X77916487Y-145719302D01*
X77927537Y-145714726D01*
X77931385Y-145711567D01*
X77933291Y-145710578D01*
X77935020Y-145708583D01*
X77942690Y-145702289D01*
X77990623Y-145652188D01*
X77998600Y-145645271D01*
X78001211Y-145641121D01*
X78002747Y-145639517D01*
X78003757Y-145637076D01*
X78009043Y-145628680D01*
X78048981Y-145545662D01*
X78050366Y-145544278D01*
X78054818Y-145533528D01*
X78063668Y-145515134D01*
X78063922Y-145511550D01*
X78065298Y-145508230D01*
X78067219Y-145488721D01*
X78065702Y-145360564D01*
X78066434Y-145358371D01*
X78065525Y-145345588D01*
X78065298Y-145326355D01*
X78063922Y-145323034D01*
X78063668Y-145319451D01*
X78056662Y-145301142D01*
X78007320Y-145206109D01*
X78002747Y-145195068D01*
X77999590Y-145191222D01*
X77998600Y-145189314D01*
X77996603Y-145187582D01*
X77990310Y-145179914D01*
X77940202Y-145131976D01*
X77933291Y-145124007D01*
X77929144Y-145121396D01*
X77927537Y-145119859D01*
X77925093Y-145118847D01*
X77916701Y-145113564D01*
X77833683Y-145073625D01*
X77832299Y-145072241D01*
X77821549Y-145067788D01*
X77803155Y-145058939D01*
X77799571Y-145058684D01*
X77796251Y-145057309D01*
X77776742Y-145055388D01*
X77506286Y-145057090D01*
X77503535Y-145056173D01*
X77489108Y-145057198D01*
X77471519Y-145057309D01*
X77468198Y-145058684D01*
X77464615Y-145058939D01*
X77446306Y-145065945D01*
X77351272Y-145115287D01*
X77340232Y-145119860D01*
X77336386Y-145123015D01*
X77334478Y-145124007D01*
X77332745Y-145126004D01*
X77325079Y-145132297D01*
X77277147Y-145182397D01*
X77269171Y-145189315D01*
X77266558Y-145193464D01*
X77265024Y-145195069D01*
X77264013Y-145197508D01*
X77258728Y-145205905D01*
X77218789Y-145288922D01*
X77217405Y-145290307D01*
X77212952Y-145301056D01*
X77204103Y-145319451D01*
X77203848Y-145323034D01*
X77202473Y-145326355D01*
X77200552Y-145345864D01*
X76708489Y-145345864D01*
X76708489Y-144441102D01*
X77200552Y-144441102D01*
X77202068Y-144569258D01*
X77201337Y-144571452D01*
X77202245Y-144584234D01*
X77202473Y-144603468D01*
X77203848Y-144606788D01*
X77204103Y-144610372D01*
X77211109Y-144628680D01*
X77258146Y-144719274D01*
X77261295Y-144728720D01*
X77265669Y-144733764D01*
X77269171Y-144740508D01*
X77278641Y-144748721D01*
X77286859Y-144758197D01*
X77296732Y-144764411D01*
X77298648Y-144766073D01*
X77300186Y-144766585D01*
X77303450Y-144768640D01*
X77386467Y-144808578D01*
X77387852Y-144809963D01*
X77398601Y-144814415D01*
X77416996Y-144823265D01*
X77420579Y-144823519D01*
X77423900Y-144824895D01*
X77443409Y-144826816D01*
X77986728Y-144824895D01*
X78022776Y-144809963D01*
X78050366Y-144782373D01*
X78065298Y-144746325D01*
X78065298Y-144707307D01*
X78050366Y-144671259D01*
X78022776Y-144643669D01*
X77986728Y-144628737D01*
X77967219Y-144626816D01*
X77469841Y-144628574D01*
X77422800Y-144605944D01*
X77400299Y-144562606D01*
X77399165Y-144466760D01*
X77427786Y-144407267D01*
X77436783Y-144397863D01*
X77986728Y-144396324D01*
X78022776Y-144381392D01*
X78050366Y-144353802D01*
X78065298Y-144317754D01*
X78065298Y-144278736D01*
X78050366Y-144242688D01*
X78022776Y-144215098D01*
X77986728Y-144200166D01*
X77967219Y-144198245D01*
X77281043Y-144200166D01*
X77244995Y-144215098D01*
X77217405Y-144242688D01*
X77202473Y-144278736D01*
X77202473Y-144317754D01*
X77217405Y-144353802D01*
X77228200Y-144364597D01*
X77218789Y-144384160D01*
X77217405Y-144385545D01*
X77212952Y-144396294D01*
X77204103Y-144414689D01*
X77203848Y-144418272D01*
X77202473Y-144421593D01*
X77200552Y-144441102D01*
X76708489Y-144441102D01*
X76708489Y-143841563D01*
X77202473Y-143841563D01*
X77217405Y-143877611D01*
X77244995Y-143905201D01*
X77281043Y-143920133D01*
X77300552Y-143922054D01*
X77986728Y-143920133D01*
X78022776Y-143905201D01*
X78050366Y-143877611D01*
X78065298Y-143841563D01*
X78065298Y-143802545D01*
X78050366Y-143766497D01*
X78039570Y-143755701D01*
X78048981Y-143736138D01*
X78050366Y-143734754D01*
X78054818Y-143724004D01*
X78063668Y-143705610D01*
X78063922Y-143702026D01*
X78065298Y-143698706D01*
X78067219Y-143679197D01*
X78065702Y-143551040D01*
X78066434Y-143548847D01*
X78065525Y-143536064D01*
X78065298Y-143516831D01*
X78063922Y-143513510D01*
X78063668Y-143509927D01*
X78056662Y-143491618D01*
X78009624Y-143401023D01*
X78006476Y-143391578D01*
X78002101Y-143386534D01*
X77998600Y-143379790D01*
X77989125Y-143371573D01*
X77980911Y-143362102D01*
X77971039Y-143355888D01*
X77969123Y-143354226D01*
X77967584Y-143353712D01*
X77964321Y-143351659D01*
X77881303Y-143311721D01*
X77879918Y-143310336D01*
X77869163Y-143305881D01*
X77850773Y-143297034D01*
X77847190Y-143296779D01*
X77843870Y-143295404D01*
X77824361Y-143293483D01*
X77281043Y-143295404D01*
X77244995Y-143310336D01*
X77217405Y-143337926D01*
X77202473Y-143373974D01*
X77202473Y-143412992D01*
X77217405Y-143449040D01*
X77244995Y-143476630D01*
X77281043Y-143491562D01*
X77300552Y-143493483D01*
X77797928Y-143491724D01*
X77844971Y-143514355D01*
X77867471Y-143557691D01*
X77868605Y-143653538D01*
X77839983Y-143713033D01*
X77830987Y-143722435D01*
X77281043Y-143723975D01*
X77244995Y-143738907D01*
X77217405Y-143766497D01*
X77202473Y-143802545D01*
X77202473Y-143841563D01*
X76708489Y-143841563D01*
X76708489Y-142508230D01*
X76869140Y-142508230D01*
X76884072Y-142544278D01*
X76911662Y-142571868D01*
X76947710Y-142586800D01*
X76967219Y-142588721D01*
X77200591Y-142588281D01*
X77202157Y-142759466D01*
X77201337Y-142761928D01*
X77202304Y-142775543D01*
X77202473Y-142793944D01*
X77203848Y-142797264D01*
X77204103Y-142800848D01*
X77211109Y-142819156D01*
X77260449Y-142914185D01*
X77265024Y-142925230D01*
X77268180Y-142929076D01*
X77269171Y-142930984D01*
X77271165Y-142932713D01*
X77277460Y-142940384D01*
X77327562Y-142988317D01*
X77334478Y-142996292D01*
X77338627Y-142998903D01*
X77340232Y-143000439D01*
X77342672Y-143001449D01*
X77351069Y-143006735D01*
X77434086Y-143046673D01*
X77435471Y-143048058D01*
X77446220Y-143052510D01*
X77464615Y-143061360D01*
X77468198Y-143061614D01*
X77471519Y-143062990D01*
X77491028Y-143064911D01*
X77761483Y-143063208D01*
X77764235Y-143064126D01*
X77778661Y-143063100D01*
X77796251Y-143062990D01*
X77799571Y-143061614D01*
X77803155Y-143061360D01*
X77821463Y-143054354D01*
X77916487Y-143005016D01*
X77927537Y-143000440D01*
X77931385Y-142997281D01*
X77933291Y-142996292D01*
X77935020Y-142994297D01*
X77942690Y-142988003D01*
X77990623Y-142937902D01*
X77998600Y-142930985D01*
X78001211Y-142926835D01*
X78002747Y-142925231D01*
X78003757Y-142922790D01*
X78009043Y-142914394D01*
X78048981Y-142831376D01*
X78050366Y-142829992D01*
X78054818Y-142819242D01*
X78063668Y-142800848D01*
X78063922Y-142797264D01*
X78065298Y-142793944D01*
X78067219Y-142774435D01*
X78065613Y-142598927D01*
X78066434Y-142596466D01*
X78065466Y-142582850D01*
X78065298Y-142564450D01*
X78063922Y-142561129D01*
X78063668Y-142557546D01*
X78056662Y-142539237D01*
X78054321Y-142534729D01*
X78065298Y-142508230D01*
X78065298Y-142469212D01*
X78050366Y-142433164D01*
X78022776Y-142405574D01*
X77986728Y-142390642D01*
X77967219Y-142388721D01*
X77341203Y-142389900D01*
X77335664Y-142389507D01*
X77334445Y-142389913D01*
X76947710Y-142390642D01*
X76911662Y-142405574D01*
X76884072Y-142433164D01*
X76869140Y-142469212D01*
X76869140Y-142508230D01*
X76708489Y-142508230D01*
X76708489Y-142060149D01*
X77200552Y-142060149D01*
X77202473Y-142174896D01*
X77217405Y-142210944D01*
X77244995Y-142238534D01*
X77281043Y-142253466D01*
X77320061Y-142253466D01*
X77356109Y-142238534D01*
X77383699Y-142210944D01*
X77398631Y-142174896D01*
X77400552Y-142155387D01*
X77399379Y-142085362D01*
X77427786Y-142026314D01*
X77452448Y-142000537D01*
X77513038Y-141969078D01*
X77986728Y-141967752D01*
X78022776Y-141952820D01*
X78050366Y-141925230D01*
X78065298Y-141889182D01*
X78065298Y-141850164D01*
X78050366Y-141814116D01*
X78022776Y-141786526D01*
X77986728Y-141771594D01*
X77967219Y-141769673D01*
X77505061Y-141770966D01*
X77503535Y-141770458D01*
X77496018Y-141770992D01*
X77281043Y-141771594D01*
X77244995Y-141786526D01*
X77217405Y-141814116D01*
X77202473Y-141850164D01*
X77202473Y-141889182D01*
X77217405Y-141925230D01*
X77243668Y-141951493D01*
X77218789Y-142003207D01*
X77217405Y-142004592D01*
X77212952Y-142015341D01*
X77204103Y-142033736D01*
X77203848Y-142037319D01*
X77202473Y-142040640D01*
X77200552Y-142060149D01*
X76708489Y-142060149D01*
X76708489Y-141107768D01*
X77200552Y-141107768D01*
X77202068Y-141235924D01*
X77201337Y-141238118D01*
X77202245Y-141250900D01*
X77202473Y-141270134D01*
X77203848Y-141273454D01*
X77204103Y-141277038D01*
X77211109Y-141295346D01*
X77260449Y-141390375D01*
X77265024Y-141401420D01*
X77268180Y-141405266D01*
X77269171Y-141407174D01*
X77271165Y-141408903D01*
X77277460Y-141416574D01*
X77327562Y-141464507D01*
X77334478Y-141472482D01*
X77338627Y-141475093D01*
X77340232Y-141476629D01*
X77342672Y-141477639D01*
X77351069Y-141482925D01*
X77434086Y-141522863D01*
X77435471Y-141524248D01*
X77446220Y-141528700D01*
X77464615Y-141537550D01*
X77468198Y-141537804D01*
X77471519Y-141539180D01*
X77491028Y-141541101D01*
X77761483Y-141539398D01*
X77764235Y-141540316D01*
X77778661Y-141539290D01*
X77796251Y-141539180D01*
X77799571Y-141537804D01*
X77803155Y-141537550D01*
X77821463Y-141530544D01*
X77916487Y-141481206D01*
X77927537Y-141476630D01*
X77931385Y-141473471D01*
X77933291Y-141472482D01*
X77935020Y-141470487D01*
X77942690Y-141464193D01*
X77990623Y-141414092D01*
X77998600Y-141407175D01*
X78001211Y-141403025D01*
X78002747Y-141401421D01*
X78003757Y-141398980D01*
X78009043Y-141390584D01*
X78048981Y-141307566D01*
X78050366Y-141306182D01*
X78054818Y-141295432D01*
X78063668Y-141277038D01*
X78063922Y-141273454D01*
X78065298Y-141270134D01*
X78067219Y-141250625D01*
X78065702Y-141122468D01*
X78066434Y-141120275D01*
X78065525Y-141107492D01*
X78065298Y-141088259D01*
X78063922Y-141084938D01*
X78063668Y-141081355D01*
X78056662Y-141063046D01*
X78007320Y-140968013D01*
X78002747Y-140956972D01*
X77999590Y-140953126D01*
X77998600Y-140951218D01*
X77996603Y-140949486D01*
X77990310Y-140941818D01*
X77940202Y-140893880D01*
X77933291Y-140885911D01*
X77929144Y-140883300D01*
X77927537Y-140881763D01*
X77925093Y-140880751D01*
X77916701Y-140875468D01*
X77833683Y-140835529D01*
X77832299Y-140834145D01*
X77821549Y-140829692D01*
X77803155Y-140820843D01*
X77799571Y-140820588D01*
X77796251Y-140819213D01*
X77776742Y-140817292D01*
X77506286Y-140818994D01*
X77503535Y-140818077D01*
X77489108Y-140819102D01*
X77471519Y-140819213D01*
X77468198Y-140820588D01*
X77464615Y-140820843D01*
X77446306Y-140827849D01*
X77351272Y-140877191D01*
X77340232Y-140881764D01*
X77336386Y-140884919D01*
X77334478Y-140885911D01*
X77332745Y-140887908D01*
X77325079Y-140894201D01*
X77277147Y-140944301D01*
X77269171Y-140951219D01*
X77266558Y-140955368D01*
X77265024Y-140956973D01*
X77264013Y-140959412D01*
X77258728Y-140967809D01*
X77218789Y-141050826D01*
X77217405Y-141052211D01*
X77212952Y-141062960D01*
X77204103Y-141081355D01*
X77203848Y-141084938D01*
X77202473Y-141088259D01*
X77200552Y-141107768D01*
X76708489Y-141107768D01*
X76708489Y-140203006D01*
X77200552Y-140203006D01*
X77202157Y-140378513D01*
X77201337Y-140380975D01*
X77202304Y-140394590D01*
X77202473Y-140412991D01*
X77203848Y-140416311D01*
X77204103Y-140419895D01*
X77211109Y-140438203D01*
X77213449Y-140442711D01*
X77202473Y-140469211D01*
X77202473Y-140508229D01*
X77217405Y-140544277D01*
X77244995Y-140571867D01*
X77281043Y-140586799D01*
X77300552Y-140588720D01*
X77922862Y-140587278D01*
X77932107Y-140587935D01*
X77934156Y-140587251D01*
X78094405Y-140586880D01*
X78097569Y-140587935D01*
X78113013Y-140586837D01*
X78129585Y-140586799D01*
X78132905Y-140585423D01*
X78136489Y-140585169D01*
X78154797Y-140578163D01*
X78249826Y-140528822D01*
X78260871Y-140524248D01*
X78264717Y-140521091D01*
X78266625Y-140520101D01*
X78268354Y-140518106D01*
X78276025Y-140511812D01*
X78323958Y-140461709D01*
X78331933Y-140454794D01*
X78334544Y-140450644D01*
X78336080Y-140449040D01*
X78337090Y-140446599D01*
X78342376Y-140438203D01*
X78382314Y-140355185D01*
X78383699Y-140353801D01*
X78388151Y-140343051D01*
X78397001Y-140324657D01*
X78397255Y-140321073D01*
X78398631Y-140317753D01*
X78400552Y-140298244D01*
X78399035Y-140170087D01*
X78399767Y-140167894D01*
X78398858Y-140155111D01*
X78398631Y-140135878D01*
X78397255Y-140132557D01*
X78397001Y-140128974D01*
X78389995Y-140110665D01*
X78331933Y-139998837D01*
X78302456Y-139973273D01*
X78265440Y-139960934D01*
X78226520Y-139963700D01*
X78191621Y-139981149D01*
X78166057Y-140010626D01*
X78153718Y-140047642D01*
X78156484Y-140086562D01*
X78163490Y-140104870D01*
X78200804Y-140176738D01*
X78201938Y-140272585D01*
X78173316Y-140332080D01*
X78148658Y-140357853D01*
X78089116Y-140388768D01*
X78067176Y-140388819D01*
X78065613Y-140217974D01*
X78066434Y-140215513D01*
X78065466Y-140201897D01*
X78065298Y-140183497D01*
X78063922Y-140180176D01*
X78063668Y-140176593D01*
X78056662Y-140158284D01*
X78007320Y-140063251D01*
X78002747Y-140052210D01*
X77999590Y-140048364D01*
X77998600Y-140046456D01*
X77996603Y-140044724D01*
X77990310Y-140037056D01*
X77940202Y-139989118D01*
X77933291Y-139981149D01*
X77929144Y-139978538D01*
X77927537Y-139977001D01*
X77925093Y-139975989D01*
X77916701Y-139970706D01*
X77833683Y-139930767D01*
X77832299Y-139929383D01*
X77821549Y-139924930D01*
X77803155Y-139916081D01*
X77799571Y-139915826D01*
X77796251Y-139914451D01*
X77776742Y-139912530D01*
X77506286Y-139914232D01*
X77503535Y-139913315D01*
X77489108Y-139914340D01*
X77471519Y-139914451D01*
X77468198Y-139915826D01*
X77464615Y-139916081D01*
X77446306Y-139923087D01*
X77351272Y-139972429D01*
X77340232Y-139977002D01*
X77336386Y-139980157D01*
X77334478Y-139981149D01*
X77332745Y-139983146D01*
X77325079Y-139989439D01*
X77277147Y-140039539D01*
X77269171Y-140046457D01*
X77266558Y-140050606D01*
X77265024Y-140052211D01*
X77264013Y-140054650D01*
X77258728Y-140063047D01*
X77218789Y-140146064D01*
X77217405Y-140147449D01*
X77212952Y-140158198D01*
X77204103Y-140176593D01*
X77203848Y-140180176D01*
X77202473Y-140183497D01*
X77200552Y-140203006D01*
X76708489Y-140203006D01*
X76708489Y-139603467D01*
X76869140Y-139603467D01*
X76884072Y-139639515D01*
X76911662Y-139667105D01*
X76947710Y-139682037D01*
X76967219Y-139683958D01*
X77917946Y-139682166D01*
X77932107Y-139683173D01*
X77935223Y-139682134D01*
X77986728Y-139682037D01*
X78022776Y-139667105D01*
X78050366Y-139639515D01*
X78065298Y-139603467D01*
X78065298Y-139564449D01*
X78053654Y-139536339D01*
X78054818Y-139533527D01*
X78063668Y-139515133D01*
X78063922Y-139511549D01*
X78065298Y-139508229D01*
X78067219Y-139488720D01*
X78065613Y-139313212D01*
X78066434Y-139310751D01*
X78065466Y-139297135D01*
X78065298Y-139278735D01*
X78063922Y-139275414D01*
X78063668Y-139271831D01*
X78056662Y-139253522D01*
X78007320Y-139158489D01*
X78002747Y-139147448D01*
X77999590Y-139143602D01*
X77998600Y-139141694D01*
X77996603Y-139139962D01*
X77990310Y-139132294D01*
X77940202Y-139084356D01*
X77933291Y-139076387D01*
X77929144Y-139073776D01*
X77927537Y-139072239D01*
X77925093Y-139071227D01*
X77916701Y-139065944D01*
X77833683Y-139026005D01*
X77832299Y-139024621D01*
X77821549Y-139020168D01*
X77803155Y-139011319D01*
X77799571Y-139011064D01*
X77796251Y-139009689D01*
X77776742Y-139007768D01*
X77506286Y-139009470D01*
X77503535Y-139008553D01*
X77489108Y-139009578D01*
X77471519Y-139009689D01*
X77468198Y-139011064D01*
X77464615Y-139011319D01*
X77446306Y-139018325D01*
X77351272Y-139067667D01*
X77340232Y-139072240D01*
X77336386Y-139075395D01*
X77334478Y-139076387D01*
X77332745Y-139078384D01*
X77325079Y-139084677D01*
X77277147Y-139134777D01*
X77269171Y-139141695D01*
X77266558Y-139145844D01*
X77265024Y-139147449D01*
X77264013Y-139149888D01*
X77258728Y-139158285D01*
X77218789Y-139241302D01*
X77217405Y-139242687D01*
X77212952Y-139253436D01*
X77204103Y-139271831D01*
X77203848Y-139275414D01*
X77202473Y-139278735D01*
X77200552Y-139298244D01*
X77202157Y-139473751D01*
X77201337Y-139476213D01*
X77201989Y-139485399D01*
X76947710Y-139485879D01*
X76911662Y-139500811D01*
X76884072Y-139528401D01*
X76869140Y-139564449D01*
X76869140Y-139603467D01*
X76708489Y-139603467D01*
X76708489Y-138821948D01*
X76819600Y-138821948D01*
X76827172Y-138860225D01*
X76848815Y-138892690D01*
X76881235Y-138914401D01*
X76919495Y-138922053D01*
X76957772Y-138914481D01*
X76975070Y-138905258D01*
X78275951Y-138035696D01*
X78297662Y-138003276D01*
X78305314Y-137965015D01*
X78297743Y-137926739D01*
X78276099Y-137894274D01*
X78243679Y-137872563D01*
X78205419Y-137864911D01*
X78167142Y-137872482D01*
X78149844Y-137881706D01*
X76848963Y-138751268D01*
X76827252Y-138783688D01*
X76819600Y-138821948D01*
X76708489Y-138821948D01*
X76708489Y-137345863D01*
X77200552Y-137345863D01*
X77202068Y-137474018D01*
X77201337Y-137476212D01*
X77202245Y-137488994D01*
X77202473Y-137508229D01*
X77203848Y-137511549D01*
X77204103Y-137515132D01*
X77211109Y-137533441D01*
X77258146Y-137624036D01*
X77261295Y-137633482D01*
X77265669Y-137638526D01*
X77269171Y-137645270D01*
X77278642Y-137653484D01*
X77286859Y-137662959D01*
X77296729Y-137669171D01*
X77298647Y-137670835D01*
X77300187Y-137671348D01*
X77303450Y-137673402D01*
X77386467Y-137713340D01*
X77387852Y-137714725D01*
X77398601Y-137719177D01*
X77416996Y-137728027D01*
X77420579Y-137728281D01*
X77423900Y-137729657D01*
X77443409Y-137731578D01*
X77986728Y-137729657D01*
X78022776Y-137714725D01*
X78050366Y-137687135D01*
X78065298Y-137651087D01*
X78065298Y-137612069D01*
X78050366Y-137576021D01*
X78022776Y-137548431D01*
X77986728Y-137533499D01*
X77967219Y-137531578D01*
X77469841Y-137533336D01*
X77422800Y-137510705D01*
X77400299Y-137467369D01*
X77399165Y-137371521D01*
X77421424Y-137325253D01*
X77464416Y-137302931D01*
X77986728Y-137301085D01*
X78022776Y-137286153D01*
X78050366Y-137258563D01*
X78065298Y-137222515D01*
X78065298Y-137183497D01*
X78050366Y-137147449D01*
X78022776Y-137119859D01*
X77986728Y-137104927D01*
X77967219Y-137103006D01*
X77469841Y-137104764D01*
X77422800Y-137082134D01*
X77400299Y-137038796D01*
X77399165Y-136942950D01*
X77427786Y-136883457D01*
X77436783Y-136874053D01*
X77986728Y-136872514D01*
X78022776Y-136857582D01*
X78050366Y-136829992D01*
X78065298Y-136793944D01*
X78065298Y-136754926D01*
X78050366Y-136718878D01*
X78022776Y-136691288D01*
X77986728Y-136676356D01*
X77967219Y-136674435D01*
X77281043Y-136676356D01*
X77244995Y-136691288D01*
X77217405Y-136718878D01*
X77202473Y-136754926D01*
X77202473Y-136793944D01*
X77217405Y-136829992D01*
X77228200Y-136840787D01*
X77218789Y-136860350D01*
X77217405Y-136861735D01*
X77212952Y-136872484D01*
X77204103Y-136890879D01*
X77203848Y-136894462D01*
X77202473Y-136897783D01*
X77200552Y-136917292D01*
X77202068Y-137045448D01*
X77201337Y-137047642D01*
X77202245Y-137060424D01*
X77202473Y-137079658D01*
X77203848Y-137082978D01*
X77204103Y-137086562D01*
X77211109Y-137104870D01*
X77258146Y-137195464D01*
X77260622Y-137202893D01*
X77258728Y-137205904D01*
X77218789Y-137288921D01*
X77217405Y-137290306D01*
X77212952Y-137301055D01*
X77204103Y-137319450D01*
X77203848Y-137323033D01*
X77202473Y-137326354D01*
X77200552Y-137345863D01*
X76708489Y-137345863D01*
X76708489Y-136012530D01*
X77200552Y-136012530D01*
X77202068Y-136140686D01*
X77201337Y-136142880D01*
X77202245Y-136155662D01*
X77202473Y-136174896D01*
X77203848Y-136178216D01*
X77204103Y-136181800D01*
X77211109Y-136200108D01*
X77260449Y-136295137D01*
X77265024Y-136306182D01*
X77268180Y-136310028D01*
X77269171Y-136311936D01*
X77271165Y-136313665D01*
X77277460Y-136321336D01*
X77327562Y-136369269D01*
X77334478Y-136377244D01*
X77338627Y-136379855D01*
X77340232Y-136381391D01*
X77342672Y-136382401D01*
X77351069Y-136387687D01*
X77434086Y-136427625D01*
X77435471Y-136429010D01*
X77446220Y-136433462D01*
X77464615Y-136442312D01*
X77468198Y-136442566D01*
X77471519Y-136443942D01*
X77491028Y-136445863D01*
X77761483Y-136444160D01*
X77764235Y-136445078D01*
X77778661Y-136444052D01*
X77796251Y-136443942D01*
X77799571Y-136442566D01*
X77803155Y-136442312D01*
X77821463Y-136435306D01*
X77916487Y-136385968D01*
X77927537Y-136381392D01*
X77931385Y-136378233D01*
X77933291Y-136377244D01*
X77935020Y-136375249D01*
X77942690Y-136368955D01*
X77990623Y-136318854D01*
X77998600Y-136311937D01*
X78001211Y-136307787D01*
X78002747Y-136306183D01*
X78003757Y-136303742D01*
X78009043Y-136295346D01*
X78048981Y-136212328D01*
X78050366Y-136210944D01*
X78054818Y-136200194D01*
X78063668Y-136181800D01*
X78063922Y-136178216D01*
X78065298Y-136174896D01*
X78067219Y-136155387D01*
X78065702Y-136027230D01*
X78066434Y-136025037D01*
X78065525Y-136012254D01*
X78065298Y-135993021D01*
X78063922Y-135989700D01*
X78063668Y-135986117D01*
X78056662Y-135967808D01*
X78007320Y-135872775D01*
X78002747Y-135861734D01*
X77999590Y-135857888D01*
X77998600Y-135855980D01*
X77996603Y-135854248D01*
X77990310Y-135846580D01*
X77940202Y-135798642D01*
X77933291Y-135790673D01*
X77929144Y-135788062D01*
X77927537Y-135786525D01*
X77925093Y-135785513D01*
X77916701Y-135780230D01*
X77833683Y-135740291D01*
X77832299Y-135738907D01*
X77821549Y-135734454D01*
X77803155Y-135725605D01*
X77799571Y-135725350D01*
X77796251Y-135723975D01*
X77776742Y-135722054D01*
X77506286Y-135723756D01*
X77503535Y-135722839D01*
X77489108Y-135723864D01*
X77471519Y-135723975D01*
X77468198Y-135725350D01*
X77464615Y-135725605D01*
X77446306Y-135732611D01*
X77351272Y-135781953D01*
X77340232Y-135786526D01*
X77336386Y-135789681D01*
X77334478Y-135790673D01*
X77332745Y-135792670D01*
X77325079Y-135798963D01*
X77277147Y-135849063D01*
X77269171Y-135855981D01*
X77266558Y-135860130D01*
X77265024Y-135861735D01*
X77264013Y-135864174D01*
X77258728Y-135872571D01*
X77218789Y-135955588D01*
X77217405Y-135956973D01*
X77212952Y-135967722D01*
X77204103Y-135986117D01*
X77203848Y-135989700D01*
X77202473Y-135993021D01*
X77200552Y-136012530D01*
X76708489Y-136012530D01*
X76708489Y-135155387D01*
X77200552Y-135155387D01*
X77202157Y-135330894D01*
X77201337Y-135333356D01*
X77202304Y-135346971D01*
X77202473Y-135365372D01*
X77203848Y-135368692D01*
X77204103Y-135372276D01*
X77211109Y-135390584D01*
X77269171Y-135502412D01*
X77298648Y-135527977D01*
X77335664Y-135540315D01*
X77374584Y-135537550D01*
X77409482Y-135520101D01*
X77435047Y-135490624D01*
X77447386Y-135453608D01*
X77444620Y-135414688D01*
X77437614Y-135396379D01*
X77400357Y-135324622D01*
X77399046Y-135181293D01*
X77427786Y-135121552D01*
X77452448Y-135095775D01*
X77512148Y-135064778D01*
X77750569Y-135063277D01*
X77810578Y-135092146D01*
X77836355Y-135116807D01*
X77867413Y-135176626D01*
X77868724Y-135319956D01*
X77823151Y-135414688D01*
X77820385Y-135453608D01*
X77832724Y-135490624D01*
X77858288Y-135520101D01*
X77893187Y-135537550D01*
X77932107Y-135540316D01*
X77969123Y-135527977D01*
X77998600Y-135502413D01*
X78009043Y-135485822D01*
X78048981Y-135402804D01*
X78050366Y-135401420D01*
X78054818Y-135390670D01*
X78063668Y-135372276D01*
X78063922Y-135368692D01*
X78065298Y-135365372D01*
X78067219Y-135345863D01*
X78065613Y-135170355D01*
X78066434Y-135167894D01*
X78065466Y-135154278D01*
X78065298Y-135135878D01*
X78063922Y-135132557D01*
X78063668Y-135128974D01*
X78056662Y-135110665D01*
X78007320Y-135015632D01*
X78002747Y-135004591D01*
X77999590Y-135000745D01*
X77998600Y-134998837D01*
X77996603Y-134997105D01*
X77990310Y-134989437D01*
X77940202Y-134941499D01*
X77933291Y-134933530D01*
X77929144Y-134930919D01*
X77927537Y-134929382D01*
X77925093Y-134928370D01*
X77916701Y-134923087D01*
X77833683Y-134883148D01*
X77832299Y-134881764D01*
X77821549Y-134877311D01*
X77803155Y-134868462D01*
X77799571Y-134868207D01*
X77796251Y-134866832D01*
X77776742Y-134864911D01*
X77506286Y-134866613D01*
X77503535Y-134865696D01*
X77489108Y-134866721D01*
X77471519Y-134866832D01*
X77468198Y-134868207D01*
X77464615Y-134868462D01*
X77446306Y-134875468D01*
X77351272Y-134924810D01*
X77340232Y-134929383D01*
X77336386Y-134932538D01*
X77334478Y-134933530D01*
X77332745Y-134935527D01*
X77325079Y-134941820D01*
X77277147Y-134991920D01*
X77269171Y-134998838D01*
X77266558Y-135002987D01*
X77265024Y-135004592D01*
X77264013Y-135007031D01*
X77258728Y-135015428D01*
X77218789Y-135098445D01*
X77217405Y-135099830D01*
X77212952Y-135110579D01*
X77204103Y-135128974D01*
X77203848Y-135132557D01*
X77202473Y-135135878D01*
X77200552Y-135155387D01*
X76708489Y-135155387D01*
X76708489Y-134555849D01*
X77773901Y-134555849D01*
X77775385Y-134559432D01*
X77788832Y-134591897D01*
X77788833Y-134591898D01*
X77801270Y-134607051D01*
X77864043Y-134667107D01*
X77889533Y-134677664D01*
X77900091Y-134682038D01*
X77900092Y-134682038D01*
X77939109Y-134682038D01*
X77960226Y-134673290D01*
X77975158Y-134667106D01*
X77975162Y-134667101D01*
X77990311Y-134654670D01*
X78050366Y-134591898D01*
X78061735Y-134564450D01*
X78065298Y-134555849D01*
X78065298Y-134516831D01*
X78050366Y-134480783D01*
X78050366Y-134480782D01*
X78037929Y-134465629D01*
X77975180Y-134405596D01*
X77975158Y-134405574D01*
X77960226Y-134399389D01*
X77939109Y-134390642D01*
X77900091Y-134390642D01*
X77889533Y-134395015D01*
X77864043Y-134405573D01*
X77848890Y-134418010D01*
X77788833Y-134480782D01*
X77788832Y-134480783D01*
X77778274Y-134506273D01*
X77773901Y-134516831D01*
X77773901Y-134555849D01*
X76708489Y-134555849D01*
X76708489Y-133651087D01*
X76869140Y-133651087D01*
X76884072Y-133687135D01*
X76911662Y-133714725D01*
X76947710Y-133729657D01*
X76967219Y-133731578D01*
X77200591Y-133731138D01*
X77202157Y-133902323D01*
X77201337Y-133904785D01*
X77202304Y-133918400D01*
X77202473Y-133936801D01*
X77203848Y-133940121D01*
X77204103Y-133943705D01*
X77211109Y-133962013D01*
X77260449Y-134057042D01*
X77265024Y-134068087D01*
X77268180Y-134071933D01*
X77269171Y-134073841D01*
X77271165Y-134075570D01*
X77277460Y-134083241D01*
X77327562Y-134131174D01*
X77334478Y-134139149D01*
X77338627Y-134141760D01*
X77340232Y-134143296D01*
X77342672Y-134144306D01*
X77351069Y-134149592D01*
X77434086Y-134189530D01*
X77435471Y-134190915D01*
X77446220Y-134195367D01*
X77464615Y-134204217D01*
X77468198Y-134204471D01*
X77471519Y-134205847D01*
X77491028Y-134207768D01*
X77761483Y-134206065D01*
X77764235Y-134206983D01*
X77778661Y-134205957D01*
X77796251Y-134205847D01*
X77799571Y-134204471D01*
X77803155Y-134204217D01*
X77821463Y-134197211D01*
X77916487Y-134147873D01*
X77927537Y-134143297D01*
X77931385Y-134140138D01*
X77933291Y-134139149D01*
X77935020Y-134137154D01*
X77942690Y-134130860D01*
X77990623Y-134080759D01*
X77998600Y-134073842D01*
X78001211Y-134069692D01*
X78002747Y-134068088D01*
X78003757Y-134065647D01*
X78009043Y-134057251D01*
X78048981Y-133974233D01*
X78050366Y-133972849D01*
X78054818Y-133962099D01*
X78063668Y-133943705D01*
X78063922Y-133940121D01*
X78065298Y-133936801D01*
X78067219Y-133917292D01*
X78065613Y-133741784D01*
X78066434Y-133739323D01*
X78065466Y-133725707D01*
X78065298Y-133707307D01*
X78063922Y-133703986D01*
X78063668Y-133700403D01*
X78056662Y-133682094D01*
X78054321Y-133677586D01*
X78065298Y-133651087D01*
X78065298Y-133612069D01*
X78050366Y-133576021D01*
X78022776Y-133548431D01*
X77986728Y-133533499D01*
X77967219Y-133531578D01*
X77341203Y-133532757D01*
X77335664Y-133532364D01*
X77334445Y-133532770D01*
X76947710Y-133533499D01*
X76911662Y-133548431D01*
X76884072Y-133576021D01*
X76869140Y-133612069D01*
X76869140Y-133651087D01*
X76708489Y-133651087D01*
X76708489Y-133174896D01*
X77202473Y-133174896D01*
X77217405Y-133210944D01*
X77244995Y-133238534D01*
X77281043Y-133253466D01*
X77300552Y-133255387D01*
X77986728Y-133253466D01*
X78022776Y-133238534D01*
X78050366Y-133210944D01*
X78065298Y-133174896D01*
X78065298Y-133135878D01*
X78050366Y-133099830D01*
X78039570Y-133089034D01*
X78048981Y-133069471D01*
X78050366Y-133068087D01*
X78054818Y-133057337D01*
X78063668Y-133038943D01*
X78063922Y-133035359D01*
X78065298Y-133032039D01*
X78067219Y-133012530D01*
X78065702Y-132884373D01*
X78066434Y-132882180D01*
X78065525Y-132869397D01*
X78065298Y-132850164D01*
X78063922Y-132846843D01*
X78063668Y-132843260D01*
X78056662Y-132824951D01*
X78009624Y-132734356D01*
X78006476Y-132724911D01*
X78002101Y-132719867D01*
X77998600Y-132713123D01*
X77989125Y-132704906D01*
X77980911Y-132695435D01*
X77971039Y-132689221D01*
X77969123Y-132687559D01*
X77967584Y-132687045D01*
X77964321Y-132684992D01*
X77881303Y-132645054D01*
X77879918Y-132643669D01*
X77869163Y-132639214D01*
X77850773Y-132630367D01*
X77847190Y-132630112D01*
X77843870Y-132628737D01*
X77824361Y-132626816D01*
X77281043Y-132628737D01*
X77244995Y-132643669D01*
X77217405Y-132671259D01*
X77202473Y-132707307D01*
X77202473Y-132746325D01*
X77217405Y-132782373D01*
X77244995Y-132809963D01*
X77281043Y-132824895D01*
X77300552Y-132826816D01*
X77797928Y-132825057D01*
X77844971Y-132847688D01*
X77867471Y-132891024D01*
X77868605Y-132986871D01*
X77839983Y-133046366D01*
X77830987Y-133055768D01*
X77281043Y-133057308D01*
X77244995Y-133072240D01*
X77217405Y-133099830D01*
X77202473Y-133135878D01*
X77202473Y-133174896D01*
X76708489Y-133174896D01*
X76708489Y-131841563D01*
X76869140Y-131841563D01*
X76884072Y-131877611D01*
X76911662Y-131905201D01*
X76947710Y-131920133D01*
X76967219Y-131922054D01*
X77212236Y-131921592D01*
X77204103Y-131938498D01*
X77203848Y-131942081D01*
X77202473Y-131945402D01*
X77200552Y-131964911D01*
X77202068Y-132093067D01*
X77201337Y-132095261D01*
X77202245Y-132108043D01*
X77202473Y-132127277D01*
X77203848Y-132130597D01*
X77204103Y-132134181D01*
X77211109Y-132152489D01*
X77258146Y-132243083D01*
X77261295Y-132252529D01*
X77265669Y-132257573D01*
X77269171Y-132264317D01*
X77278641Y-132272530D01*
X77286859Y-132282006D01*
X77296732Y-132288220D01*
X77298648Y-132289882D01*
X77300186Y-132290394D01*
X77303450Y-132292449D01*
X77386467Y-132332387D01*
X77387852Y-132333772D01*
X77398601Y-132338224D01*
X77416996Y-132347074D01*
X77420579Y-132347328D01*
X77423900Y-132348704D01*
X77443409Y-132350625D01*
X77986728Y-132348704D01*
X78022776Y-132333772D01*
X78050366Y-132306182D01*
X78065298Y-132270134D01*
X78065298Y-132231116D01*
X78050366Y-132195068D01*
X78022776Y-132167478D01*
X77986728Y-132152546D01*
X77967219Y-132150625D01*
X77469841Y-132152383D01*
X77422800Y-132129753D01*
X77400299Y-132086415D01*
X77399165Y-131990569D01*
X77427786Y-131931076D01*
X77437265Y-131921168D01*
X77986728Y-131920133D01*
X78022776Y-131905201D01*
X78050366Y-131877611D01*
X78065298Y-131841563D01*
X78065298Y-131802545D01*
X78050366Y-131766497D01*
X78022776Y-131738907D01*
X77986728Y-131723975D01*
X77967219Y-131722054D01*
X76947710Y-131723975D01*
X76911662Y-131738907D01*
X76884072Y-131766497D01*
X76869140Y-131802545D01*
X76869140Y-131841563D01*
X76708489Y-131841563D01*
X76708489Y-131270134D01*
X76869140Y-131270134D01*
X76884072Y-131306182D01*
X76911662Y-131333772D01*
X76947710Y-131348704D01*
X76967219Y-131350625D01*
X77201714Y-131350111D01*
X77202473Y-131508229D01*
X77217405Y-131544277D01*
X77244995Y-131571867D01*
X77281043Y-131586799D01*
X77320061Y-131586799D01*
X77356109Y-131571867D01*
X77383699Y-131544277D01*
X77398631Y-131508229D01*
X77400552Y-131488720D01*
X77399885Y-131349676D01*
X77797801Y-131348804D01*
X77844971Y-131371497D01*
X77867579Y-131415041D01*
X77869140Y-131508229D01*
X77884072Y-131544277D01*
X77911662Y-131571867D01*
X77947710Y-131586799D01*
X77986728Y-131586799D01*
X78022776Y-131571867D01*
X78050366Y-131544277D01*
X78065298Y-131508229D01*
X78067219Y-131488720D01*
X78065862Y-131407702D01*
X78066434Y-131405989D01*
X78065649Y-131394944D01*
X78065298Y-131373973D01*
X78063922Y-131370652D01*
X78063668Y-131367069D01*
X78056662Y-131348760D01*
X78009624Y-131258165D01*
X78006476Y-131248720D01*
X78002101Y-131243676D01*
X77998600Y-131236932D01*
X77989125Y-131228715D01*
X77980911Y-131219244D01*
X77971039Y-131213030D01*
X77969123Y-131211368D01*
X77967584Y-131210854D01*
X77964321Y-131208801D01*
X77881303Y-131168863D01*
X77879918Y-131167478D01*
X77869163Y-131163023D01*
X77850773Y-131154176D01*
X77847190Y-131153921D01*
X77843870Y-131152546D01*
X77824361Y-131150625D01*
X77398934Y-131151557D01*
X77398631Y-131088259D01*
X77383699Y-131052211D01*
X77356109Y-131024621D01*
X77320061Y-131009689D01*
X77281043Y-131009689D01*
X77244995Y-131024621D01*
X77217405Y-131052211D01*
X77202473Y-131088259D01*
X77200552Y-131107768D01*
X77200764Y-131151991D01*
X76947710Y-131152546D01*
X76911662Y-131167478D01*
X76884072Y-131195068D01*
X76869140Y-131231116D01*
X76869140Y-131270134D01*
X76708489Y-131270134D01*
X76708489Y-130793944D01*
X76869140Y-130793944D01*
X76884072Y-130829992D01*
X76896508Y-130845146D01*
X76959280Y-130905201D01*
X76969838Y-130909574D01*
X76995329Y-130920133D01*
X77034347Y-130920133D01*
X77070395Y-130905201D01*
X77085549Y-130892765D01*
X77145604Y-130829993D01*
X77156973Y-130802545D01*
X77160536Y-130793944D01*
X77202473Y-130793944D01*
X77217405Y-130829992D01*
X77244995Y-130857582D01*
X77281043Y-130872514D01*
X77300552Y-130874435D01*
X77986728Y-130872514D01*
X78022776Y-130857582D01*
X78050366Y-130829992D01*
X78065298Y-130793944D01*
X78065298Y-130754926D01*
X78050366Y-130718878D01*
X78022776Y-130691288D01*
X77986728Y-130676356D01*
X77967219Y-130674435D01*
X77281043Y-130676356D01*
X77244995Y-130691288D01*
X77217405Y-130718878D01*
X77202473Y-130754926D01*
X77202473Y-130793944D01*
X77160536Y-130793944D01*
X77160536Y-130754926D01*
X77145604Y-130718878D01*
X77145604Y-130718877D01*
X77133167Y-130703724D01*
X77070395Y-130643669D01*
X77034347Y-130628737D01*
X76995329Y-130628737D01*
X76969838Y-130639295D01*
X76959280Y-130643669D01*
X76944127Y-130656106D01*
X76884073Y-130718877D01*
X76884072Y-130718878D01*
X76869140Y-130754926D01*
X76869140Y-130793944D01*
X76708489Y-130793944D01*
X76708489Y-130012530D01*
X77200552Y-130012530D01*
X77202157Y-130188037D01*
X77201337Y-130190499D01*
X77202304Y-130204114D01*
X77202473Y-130222515D01*
X77203848Y-130225835D01*
X77204103Y-130229419D01*
X77211109Y-130247727D01*
X77213449Y-130252235D01*
X77202473Y-130278735D01*
X77202473Y-130317753D01*
X77217405Y-130353801D01*
X77244995Y-130381391D01*
X77281043Y-130396323D01*
X77300552Y-130398244D01*
X77922862Y-130396802D01*
X77932107Y-130397459D01*
X77934156Y-130396775D01*
X78094405Y-130396404D01*
X78097569Y-130397459D01*
X78113013Y-130396361D01*
X78129585Y-130396323D01*
X78132905Y-130394947D01*
X78136489Y-130394693D01*
X78154797Y-130387687D01*
X78249826Y-130338346D01*
X78260871Y-130333772D01*
X78264717Y-130330615D01*
X78266625Y-130329625D01*
X78268354Y-130327630D01*
X78276025Y-130321336D01*
X78323958Y-130271233D01*
X78331933Y-130264318D01*
X78334544Y-130260168D01*
X78336080Y-130258564D01*
X78337090Y-130256123D01*
X78342376Y-130247727D01*
X78382314Y-130164709D01*
X78383699Y-130163325D01*
X78388151Y-130152575D01*
X78397001Y-130134181D01*
X78397255Y-130130597D01*
X78398631Y-130127277D01*
X78400552Y-130107768D01*
X78399035Y-129979611D01*
X78399767Y-129977418D01*
X78398858Y-129964635D01*
X78398631Y-129945402D01*
X78397255Y-129942081D01*
X78397001Y-129938498D01*
X78389995Y-129920189D01*
X78331933Y-129808361D01*
X78302456Y-129782797D01*
X78265440Y-129770458D01*
X78226520Y-129773224D01*
X78191621Y-129790673D01*
X78166057Y-129820150D01*
X78153718Y-129857166D01*
X78156484Y-129896086D01*
X78163490Y-129914394D01*
X78200804Y-129986262D01*
X78201938Y-130082109D01*
X78173316Y-130141604D01*
X78148658Y-130167377D01*
X78089116Y-130198292D01*
X78067176Y-130198343D01*
X78065613Y-130027498D01*
X78066434Y-130025037D01*
X78065466Y-130011421D01*
X78065298Y-129993021D01*
X78063922Y-129989700D01*
X78063668Y-129986117D01*
X78056662Y-129967808D01*
X78007320Y-129872775D01*
X78002747Y-129861734D01*
X77999590Y-129857888D01*
X77998600Y-129855980D01*
X77996603Y-129854248D01*
X77990310Y-129846580D01*
X77940202Y-129798642D01*
X77933291Y-129790673D01*
X77929144Y-129788062D01*
X77927537Y-129786525D01*
X77925093Y-129785513D01*
X77916701Y-129780230D01*
X77833683Y-129740291D01*
X77832299Y-129738907D01*
X77821549Y-129734454D01*
X77803155Y-129725605D01*
X77799571Y-129725350D01*
X77796251Y-129723975D01*
X77776742Y-129722054D01*
X77506286Y-129723756D01*
X77503535Y-129722839D01*
X77489108Y-129723864D01*
X77471519Y-129723975D01*
X77468198Y-129725350D01*
X77464615Y-129725605D01*
X77446306Y-129732611D01*
X77351272Y-129781953D01*
X77340232Y-129786526D01*
X77336386Y-129789681D01*
X77334478Y-129790673D01*
X77332745Y-129792670D01*
X77325079Y-129798963D01*
X77277147Y-129849063D01*
X77269171Y-129855981D01*
X77266558Y-129860130D01*
X77265024Y-129861735D01*
X77264013Y-129864174D01*
X77258728Y-129872571D01*
X77218789Y-129955588D01*
X77217405Y-129956973D01*
X77212952Y-129967722D01*
X77204103Y-129986117D01*
X77203848Y-129989700D01*
X77202473Y-129993021D01*
X77200552Y-130012530D01*
X76708489Y-130012530D01*
X76708489Y-129610943D01*
X78511663Y-129610943D01*
X78511663Y-146698759D01*
G37*
%LPC*%
D12*
X59817000Y-153924000D03*
D13*
X59817000Y-156464000D03*
X57277000Y-153924000D03*
X57277000Y-156464000D03*
X54737000Y-153924000D03*
X54737000Y-156464000D03*
D12*
X50130000Y-128000000D03*
D13*
X52670000Y-128000000D03*
X55210000Y-128000000D03*
X57750000Y-128000000D03*
X60290000Y-128000000D03*
X62830000Y-128000000D03*
X65370000Y-128000000D03*
X67910000Y-128000000D03*
X70450000Y-128000000D03*
X72990000Y-128000000D03*
D12*
X50130000Y-162500000D03*
D13*
X52670000Y-162500000D03*
X55210000Y-162500000D03*
X57750000Y-162500000D03*
X60290000Y-162500000D03*
X62830000Y-162500000D03*
X65370000Y-162500000D03*
X67910000Y-162500000D03*
X70450000Y-162500000D03*
X72990000Y-162500000D03*
D14*
X49459000Y-137032000D03*
X49459000Y-144182000D03*
%LPD*%
M02*
